<ttFont>
<head>
    <!-- Most of this table will be recalculated by the compiler -->
    <tableVersion value="1.0"/>
    <fontRevision value="1.106"/>
    <checkSumAdjustment value="0xedb67dbc"/>
    <magicNumber value="0x5f0f3cf5"/>
    <flags value="00000000 00000001"/>
    <unitsPerEm value="1000"/>
    <created value="Mon Sep 16 15:13:58 2019"/>
    <modified value="Mon Sep 16 15:22:46 2019"/>
    <xMin value="-255"/>
    <yMin value="-326"/>
    <xMax value="1971"/>
    <yMax value="1300"/>
    <macStyle value="00000000 00000010"/>
    <lowestRecPPEM value="6"/>
    <fontDirectionHint value="2"/>
    <indexToLocFormat value="0"/>
    <glyphDataFormat value="0"/>
  </head>
    <TTGlyph name=".notdef" xMin="116" yMin="-200" xMax="616" yMax="800">
      <contour>
        <pt x="116" y="-200" on="1"/>
        <pt x="116" y="800" on="1"/>
        <pt x="616" y="800" on="1"/>
        <pt x="616" y="-200" on="1"/>
      </contour>
      <contour>
        <pt x="187" y="750" on="1"/>
        <pt x="366" y="360" on="1"/>
        <pt x="545" y="750" on="1"/>
      </contour>
      <contour>
        <pt x="166" y="-76" on="1"/>
        <pt x="338" y="300" on="1"/>
        <pt x="166" y="676" on="1"/>
      </contour>
      <contour>
        <pt x="566" y="676" on="1"/>
        <pt x="394" y="300" on="1"/>
        <pt x="566" y="-76" on="1"/>
      </contour>
      <contour>
        <pt x="366" y="240" on="1"/>
        <pt x="187" y="-150" on="1"/>
        <pt x="545" y="-150" on="1"/>
      </contour>
    </TTGlyph>
    <TTGlyph name="A" xMin="-3" yMin="0" xMax="702" yMax="700">
      <contour>
        <pt x="-3" y="0" on="1"/>
        <pt x="409" y="700" on="1"/>
        <pt x="591" y="700" on="1"/>
        <pt x="702" y="0" on="1"/>
        <pt x="599" y="0" on="1"/>
        <pt x="570" y="189" on="1"/>
        <pt x="221" y="189" on="1"/>
        <pt x="111" y="0" on="1"/>
      </contour>
      <contour>
        <pt x="463" y="604" on="1"/>
        <pt x="275" y="281" on="1"/>
        <pt x="556" y="281" on="1"/>
        <pt x="506" y="604" on="1"/>
      </contour>
    </TTGlyph>
    <TTGlyph name="A.sc" xMin="2" yMin="0" xMax="626" yMax="583">
      <component glyphName="a.sc" x="0" y="0" flags="0x204"/>
    </TTGlyph>
    <TTGlyph name="AE" xMin="-32" yMin="0" xMax="1201" yMax="700">
      <contour>
        <pt x="768" y="608" on="1"/>
        <pt x="725" y="408" on="1"/>
        <pt x="1070" y="408" on="1"/>
        <pt x="1050" y="318" on="1"/>
        <pt x="706" y="318" on="1"/>
        <pt x="658" y="92" on="1"/>
        <pt x="1105" y="92" on="1"/>
        <pt x="1077" y="0" on="1"/>
        <pt x="536" y="0" on="1"/>
        <pt x="576" y="189" on="1"/>
        <pt x="244" y="189" on="1"/>
        <pt x="92" y="0" on="1"/>
        <pt x="-32" y="0" on="1"/>
        <pt x="530" y="700" on="1"/>
        <pt x="1201" y="700" on="1"/>
        <pt x="1195" y="608" on="1"/>
      </contour>
      <contour>
        <pt x="577" y="604" on="1"/>
        <pt x="318" y="281" on="1"/>
        <pt x="596" y="281" on="1"/>
        <pt x="665" y="604" on="1"/>
      </contour>
    </TTGlyph>
    <TTGlyph name="AE.sc" xMin="-24" yMin="0" xMax="1047" yMax="582">
      <component glyphName="ae.sc" x="0" y="0" flags="0x204"/>
    </TTGlyph>
    <TTGlyph name="AEacute" xMin="-32" yMin="0" xMax="1201" yMax="962">
      <component glyphName="AE" x="0" y="0" flags="0x204"/>
      <component glyphName="acute" x="507" y="168" flags="0x4"/>
    </TTGlyph>
    <TTGlyph name="AEacute.sc" xMin="-24" yMin="0" xMax="1047" yMax="844">
      <component glyphName="aeacute.sc" x="0" y="0" flags="0x204"/>
    </TTGlyph>
    <TTGlyph name="Aacute" xMin="-3" yMin="0" xMax="762" yMax="962">
      <component glyphName="A" x="0" y="0" flags="0x204"/>
      <component glyphName="acute" x="249" y="168" flags="0x4"/>
    </TTGlyph>
    <TTGlyph name="Aacute.sc" xMin="2" yMin="0" xMax="696" yMax="845">
      <component glyphName="aacute.sc" x="0" y="0" flags="0x204"/>
    </TTGlyph>
    <TTGlyph name="Abreve" xMin="-3" yMin="0" xMax="722" yMax="974">
      <component glyphName="A" x="0" y="0" flags="0x204"/>
      <component glyphName="breve" x="192" y="168" flags="0x4"/>
    </TTGlyph>
    <TTGlyph name="Abreve.sc" xMin="2" yMin="0" xMax="660" yMax="857">
      <component glyphName="abreve.sc" x="0" y="0" flags="0x204"/>
    </TTGlyph>
    <TTGlyph name="Acircumflex" xMin="-3" yMin="0" xMax="726" yMax="972">
      <component glyphName="A" x="0" y="0" flags="0x204"/>
      <component glyphName="circumflex" x="192" y="168" flags="0x4"/>
    </TTGlyph>
    <TTGlyph name="Acircumflex.sc" xMin="2" yMin="0" xMax="664" yMax="855">
      <component glyphName="acircumflex.sc" x="0" y="0" flags="0x204"/>
    </TTGlyph>
    <TTGlyph name="Adieresis" xMin="-3" yMin="0" xMax="721" yMax="912">
      <component glyphName="A" x="0" y="0" flags="0x204"/>
      <component glyphName="dieresis" x="191" y="168" flags="0x4"/>
    </TTGlyph>
    <TTGlyph name="Adieresis.sc" xMin="2" yMin="0" xMax="660" yMax="795">
      <component glyphName="adieresis.sc" x="0" y="0" flags="0x204"/>
    </TTGlyph>
    <TTGlyph name="Agrave" xMin="-3" yMin="0" xMax="702" yMax="962">
      <component glyphName="A" x="0" y="0" flags="0x204"/>
      <component glyphName="grave" x="132" y="168" flags="0x4"/>
    </TTGlyph>
    <TTGlyph name="Agrave.sc" xMin="2" yMin="0" xMax="626" yMax="845">
      <component glyphName="agrave.sc" x="0" y="0" flags="0x204"/>
    </TTGlyph>
    <TTGlyph name="Amacron" xMin="-3" yMin="0" xMax="720" yMax="891">
      <component glyphName="A" x="0" y="0" flags="0x204"/>
      <component glyphName="macron" x="191" y="168" flags="0x4"/>
    </TTGlyph>
    <TTGlyph name="Amacron.sc" xMin="2" yMin="0" xMax="659" yMax="774">
      <component glyphName="amacron.sc" x="0" y="0" flags="0x204"/>
    </TTGlyph>
    <TTGlyph name="Aogonek" xMin="-3" yMin="-289" xMax="702" yMax="700">
      <contour>
        <pt x="-3" y="0" on="1"/>
        <pt x="409" y="700" on="1"/>
        <pt x="591" y="700" on="1"/>
        <pt x="702" y="0" on="1"/>
        <pt x="634" y="-56" on="1"/>
        <pt x="583" y="-98" on="0"/>
        <pt x="540" y="-150" on="0"/>
        <pt x="540" y="-173" on="1"/>
        <pt x="540" y="-192" on="0"/>
        <pt x="569" y="-214" on="0"/>
        <pt x="599" y="-214" on="1"/>
        <pt x="621" y="-214" on="0"/>
        <pt x="668" y="-202" on="0"/>
        <pt x="693" y="-189" on="1"/>
        <pt x="677" y="-264" on="1"/>
        <pt x="653" y="-277" on="0"/>
        <pt x="601" y="-289" on="0"/>
        <pt x="573" y="-289" on="1"/>
        <pt x="513" y="-289" on="0"/>
        <pt x="448" y="-235" on="0"/>
        <pt x="448" y="-193" on="1"/>
        <pt x="448" y="-147" on="0"/>
        <pt x="517" y="-64" on="0"/>
        <pt x="580" y="-15" on="1"/>
        <pt x="599" y="0" on="1"/>
        <pt x="570" y="189" on="1"/>
        <pt x="221" y="189" on="1"/>
        <pt x="111" y="0" on="1"/>
      </contour>
      <contour>
        <pt x="463" y="604" on="1"/>
        <pt x="275" y="281" on="1"/>
        <pt x="556" y="281" on="1"/>
        <pt x="506" y="604" on="1"/>
      </contour>
    </TTGlyph>
    <TTGlyph name="Aogonek.sc" xMin="2" yMin="-289" xMax="626" yMax="583">
      <component glyphName="aogonek.sc" x="0" y="0" flags="0x204"/>
    </TTGlyph>
    <TTGlyph name="Aring" xMin="-3" yMin="0" xMax="705" yMax="1067">
      <component glyphName="A" x="0" y="0" flags="0x204"/>
      <component glyphName="ring" x="136" y="168" flags="0x4"/>
    </TTGlyph>
    <TTGlyph name="Aring.sc" xMin="2" yMin="0" xMax="643" yMax="950">
      <component glyphName="aring.sc" x="0" y="0" flags="0x204"/>
    </TTGlyph>
    <TTGlyph name="Aringacute" xMin="-3" yMin="0" xMax="830" yMax="1300">
      <component glyphName="A" x="0" y="0" flags="0x204"/>
      <component glyphName="ring" x="136" y="168" flags="0x4"/>
      <component glyphName="acute" x="317" y="506" flags="0x4"/>
    </TTGlyph>
    <TTGlyph name="Aringacute.sc" xMin="2" yMin="0" xMax="768" yMax="1183">
      <component glyphName="aringacute.sc" x="0" y="0" flags="0x204"/>
    </TTGlyph>
    <TTGlyph name="Atilde" xMin="-3" yMin="0" xMax="727" yMax="935">
      <component glyphName="A" x="0" y="0" flags="0x204"/>
      <component glyphName="tilde" x="191" y="168" flags="0x4"/>
    </TTGlyph>
    <TTGlyph name="Atilde.sc" xMin="2" yMin="0" xMax="666" yMax="818">
      <component glyphName="atilde.sc" x="0" y="0" flags="0x204"/>
    </TTGlyph>
    <TTGlyph name="B" xMin="58" yMin="0" xMax="738" yMax="700">
      <contour>
        <pt x="58" y="0" on="1"/>
        <pt x="207" y="700" on="1"/>
        <pt x="531" y="700" on="1"/>
        <pt x="634" y="700" on="0"/>
        <pt x="738" y="612" on="0"/>
        <pt x="738" y="540" on="1"/>
        <pt x="738" y="476" on="0"/>
        <pt x="658" y="379" on="0"/>
        <pt x="578" y="358" on="1"/>
        <pt x="632" y="343" on="0"/>
        <pt x="696" y="268" on="0"/>
        <pt x="696" y="213" on="1"/>
        <pt x="696" y="164" on="0"/>
        <pt x="654" y="85" on="0"/>
        <pt x="578" y="30" on="0"/>
        <pt x="471" y="0" on="0"/>
        <pt x="406" y="0" on="1"/>
      </contour>
      <contour>
        <pt x="245" y="399" on="1"/>
        <pt x="483" y="399" on="1"/>
        <pt x="555" y="399" on="0"/>
        <pt x="638" y="470" on="0"/>
        <pt x="638" y="522" on="1"/>
        <pt x="638" y="565" on="0"/>
        <pt x="578" y="610" on="0"/>
        <pt x="522" y="610" on="1"/>
        <pt x="290" y="610" on="1"/>
      </contour>
      <contour>
        <pt x="227" y="317" on="1"/>
        <pt x="179" y="90" on="1"/>
        <pt x="418" y="90" on="1"/>
        <pt x="505" y="90" on="0"/>
        <pt x="594" y="163" on="0"/>
        <pt x="594" y="220" on="1"/>
        <pt x="594" y="263" on="0"/>
        <pt x="532" y="317" on="0"/>
        <pt x="464" y="317" on="1"/>
      </contour>
    </TTGlyph>
    <TTGlyph name="B.sc" xMin="59" yMin="0" xMax="657" yMax="582">
      <component glyphName="b.sc" x="0" y="0" flags="0x204"/>
    </TTGlyph>
    <TTGlyph name="C" xMin="83" yMin="-14" xMax="738" yMax="713">
      <contour>
        <pt x="483" y="713" on="1"/>
        <pt x="561" y="713" on="0"/>
        <pt x="692" y="666" on="0"/>
        <pt x="738" y="624" on="1"/>
        <pt x="717" y="526" on="1"/>
        <pt x="716" y="526" on="1"/>
        <pt x="671" y="569" on="0"/>
        <pt x="550" y="621" on="0"/>
        <pt x="481" y="621" on="1"/>
        <pt x="412" y="621" on="0"/>
        <pt x="302" y="569" on="0"/>
        <pt x="227" y="483" on="0"/>
        <pt x="187" y="368" on="0"/>
        <pt x="187" y="305" on="1"/>
        <pt x="187" y="195" on="0"/>
        <pt x="317" y="79" on="0"/>
        <pt x="424" y="79" on="1"/>
        <pt x="486" y="79" on="0"/>
        <pt x="602" y="115" on="0"/>
        <pt x="647" y="141" on="1"/>
        <pt x="648" y="141" on="1"/>
        <pt x="626" y="38" on="1"/>
        <pt x="585" y="13" on="0"/>
        <pt x="469" y="-14" on="0"/>
        <pt x="409" y="-14" on="1"/>
        <pt x="259" y="-14" on="0"/>
        <pt x="83" y="153" on="0"/>
        <pt x="83" y="300" on="1"/>
        <pt x="83" y="382" on="0"/>
        <pt x="139" y="533" on="0"/>
        <pt x="242" y="646" on="0"/>
        <pt x="391" y="713" on="0"/>
      </contour>
    </TTGlyph>
    <TTGlyph name="C.sc" xMin="74" yMin="-14" xMax="644" yMax="596">
      <component glyphName="c.sc" x="0" y="0" flags="0x204"/>
    </TTGlyph>
    <TTGlyph name="Cacute" xMin="83" yMin="-14" xMax="770" yMax="975">
      <component glyphName="C" x="0" y="0" flags="0x204"/>
      <component glyphName="acute" x="257" y="181" flags="0x4"/>
    </TTGlyph>
    <TTGlyph name="Cacute.sc" xMin="74" yMin="-14" xMax="692" yMax="857">
      <component glyphName="cacute.sc" x="0" y="0" flags="0x204"/>
    </TTGlyph>
    <TTGlyph name="Ccaron" xMin="83" yMin="-14" xMax="775" yMax="985">
      <component glyphName="C" x="0" y="0" flags="0x204"/>
      <component glyphName="caron" x="205" y="181" flags="0x4"/>
    </TTGlyph>
    <TTGlyph name="Ccaron.sc" xMin="74" yMin="-14" xMax="696" yMax="867">
      <component glyphName="ccaron.sc" x="0" y="0" flags="0x204"/>
    </TTGlyph>
    <TTGlyph name="Ccedilla" xMin="83" yMin="-187" xMax="738" yMax="713">
      <contour>
        <pt x="483" y="713" on="1"/>
        <pt x="561" y="713" on="0"/>
        <pt x="692" y="666" on="0"/>
        <pt x="738" y="624" on="1"/>
        <pt x="717" y="526" on="1"/>
        <pt x="716" y="526" on="1"/>
        <pt x="671" y="569" on="0"/>
        <pt x="550" y="621" on="0"/>
        <pt x="481" y="621" on="1"/>
        <pt x="412" y="621" on="0"/>
        <pt x="302" y="569" on="0"/>
        <pt x="227" y="483" on="0"/>
        <pt x="187" y="368" on="0"/>
        <pt x="187" y="305" on="1"/>
        <pt x="187" y="195" on="0"/>
        <pt x="317" y="79" on="0"/>
        <pt x="424" y="79" on="1"/>
        <pt x="486" y="79" on="0"/>
        <pt x="602" y="115" on="0"/>
        <pt x="647" y="141" on="1"/>
        <pt x="648" y="141" on="1"/>
        <pt x="626" y="38" on="1"/>
        <pt x="586" y="14" on="0"/>
        <pt x="473" y="-13" on="0"/>
        <pt x="415" y="-14" on="1"/>
        <pt x="280" y="-187" on="1"/>
        <pt x="154" y="-187" on="1"/>
        <pt x="156" y="-182" on="1"/>
        <pt x="335" y="-8" on="1"/>
        <pt x="218" y="11" on="0"/>
        <pt x="83" y="172" on="0"/>
        <pt x="83" y="300" on="1"/>
        <pt x="83" y="382" on="0"/>
        <pt x="139" y="533" on="0"/>
        <pt x="242" y="646" on="0"/>
        <pt x="391" y="713" on="0"/>
      </contour>
    </TTGlyph>
    <TTGlyph name="Ccedilla.sc" xMin="74" yMin="-187" xMax="644" yMax="596">
      <component glyphName="ccedilla.sc" x="0" y="0" flags="0x204"/>
    </TTGlyph>
    <TTGlyph name="Cdotaccent" xMin="83" yMin="-14" xMax="738" yMax="929">
      <component glyphName="C" x="0" y="0" flags="0x204"/>
      <component glyphName="dotaccent" x="204" y="181" flags="0x4"/>
    </TTGlyph>
    <TTGlyph name="Cdotaccent.sc" xMin="74" yMin="-14" xMax="644" yMax="811">
      <component glyphName="cdotaccent.sc" x="0" y="0" flags="0x204"/>
    </TTGlyph>
    <TTGlyph name="D" xMin="58" yMin="0" xMax="774" yMax="700">
      <contour>
        <pt x="58" y="0" on="1"/>
        <pt x="207" y="700" on="1"/>
        <pt x="444" y="700" on="1"/>
        <pt x="533" y="700" on="0"/>
        <pt x="659" y="657" on="0"/>
        <pt x="738" y="581" on="0"/>
        <pt x="774" y="476" on="0"/>
        <pt x="774" y="416" on="1"/>
        <pt x="774" y="335" on="0"/>
        <pt x="721" y="184" on="0"/>
        <pt x="612" y="69" on="0"/>
        <pt x="442" y="0" on="0"/>
        <pt x="325" y="0" on="1"/>
      </contour>
      <contour>
        <pt x="669" y="411" on="1"/>
        <pt x="669" y="451" on="0"/>
        <pt x="646" y="523" on="0"/>
        <pt x="592" y="577" on="0"/>
        <pt x="499" y="608" on="0"/>
        <pt x="430" y="608" on="1"/>
        <pt x="290" y="608" on="1"/>
        <pt x="180" y="92" on="1"/>
        <pt x="337" y="92" on="1"/>
        <pt x="425" y="92" on="0"/>
        <pt x="552" y="146" on="0"/>
        <pt x="632" y="234" on="0"/>
        <pt x="669" y="349" on="0"/>
      </contour>
    </TTGlyph>
    <TTGlyph name="D.sc" xMin="59" yMin="0" xMax="681" yMax="582">
      <component glyphName="d.sc" x="0" y="0" flags="0x204"/>
    </TTGlyph>
    <TTGlyph name="Dcaron" xMin="58" yMin="0" xMax="774" yMax="972">
      <component glyphName="D" x="0" y="0" flags="0x204"/>
      <component glyphName="caron" x="162" y="168" flags="0x4"/>
    </TTGlyph>
    <TTGlyph name="Dcaron.sc" xMin="59" yMin="0" xMax="681" yMax="854">
      <component glyphName="dcaron.sc" x="0" y="0" flags="0x204"/>
    </TTGlyph>
    <TTGlyph name="Dcroat" xMin="50" yMin="0" xMax="805" yMax="700">
      <component glyphName="Eth" x="0" y="0" flags="0x204"/>
    </TTGlyph>
    <TTGlyph name="Dcroat.sc" xMin="48" yMin="0" xMax="714" yMax="582">
      <component glyphName="dcroat.sc" x="0" y="0" flags="0x204"/>
    </TTGlyph>
    <TTGlyph name="E" xMin="58" yMin="0" xMax="723" yMax="700">
      <contour>
        <pt x="290" y="608" on="1"/>
        <pt x="247" y="408" on="1"/>
        <pt x="592" y="408" on="1"/>
        <pt x="572" y="318" on="1"/>
        <pt x="228" y="318" on="1"/>
        <pt x="180" y="92" on="1"/>
        <pt x="627" y="92" on="1"/>
        <pt x="599" y="0" on="1"/>
        <pt x="58" y="0" on="1"/>
        <pt x="207" y="700" on="1"/>
        <pt x="723" y="700" on="1"/>
        <pt x="717" y="608" on="1"/>
      </contour>
    </TTGlyph>
    <TTGlyph name="E.sc" xMin="59" yMin="0" xMax="634" yMax="582">
      <component glyphName="e.sc" x="0" y="0" flags="0x204"/>
    </TTGlyph>
    <TTGlyph name="Eacute" xMin="58" yMin="0" xMax="736" yMax="962">
      <component glyphName="E" x="0" y="0" flags="0x204"/>
      <component glyphName="acute" x="223" y="168" flags="0x4"/>
    </TTGlyph>
    <TTGlyph name="Eacute.sc" xMin="59" yMin="0" xMax="659" yMax="844">
      <component glyphName="eacute.sc" x="0" y="0" flags="0x204"/>
    </TTGlyph>
    <TTGlyph name="Ebreve" xMin="58" yMin="0" xMax="723" yMax="974">
      <component glyphName="E" x="0" y="0" flags="0x204"/>
      <component glyphName="breve" x="170" y="168" flags="0x4"/>
    </TTGlyph>
    <TTGlyph name="Ebreve.sc" xMin="59" yMin="0" xMax="634" yMax="856">
      <component glyphName="ebreve.sc" x="0" y="0" flags="0x204"/>
    </TTGlyph>
    <TTGlyph name="Ecaron" xMin="58" yMin="0" xMax="740" yMax="972">
      <component glyphName="E" x="0" y="0" flags="0x204"/>
      <component glyphName="caron" x="170" y="168" flags="0x4"/>
    </TTGlyph>
    <TTGlyph name="Ecaron.sc" xMin="59" yMin="0" xMax="663" yMax="854">
      <component glyphName="ecaron.sc" x="0" y="0" flags="0x204"/>
    </TTGlyph>
    <TTGlyph name="Ecircumflex" xMin="58" yMin="0" xMax="723" yMax="972">
      <component glyphName="E" x="0" y="0" flags="0x204"/>
      <component glyphName="circumflex" x="170" y="168" flags="0x4"/>
    </TTGlyph>
    <TTGlyph name="Ecircumflex.sc" xMin="59" yMin="0" xMax="634" yMax="854">
      <component glyphName="ecircumflex.sc" x="0" y="0" flags="0x204"/>
    </TTGlyph>
    <TTGlyph name="Edieresis" xMin="58" yMin="0" xMax="723" yMax="912">
      <component glyphName="E" x="0" y="0" flags="0x204"/>
      <component glyphName="dieresis" x="169" y="168" flags="0x4"/>
    </TTGlyph>
    <TTGlyph name="Edieresis.sc" xMin="59" yMin="0" xMax="634" yMax="794">
      <component glyphName="edieresis.sc" x="0" y="0" flags="0x204"/>
    </TTGlyph>
    <TTGlyph name="Edotaccent" xMin="58" yMin="0" xMax="723" yMax="916">
      <component glyphName="E" x="0" y="0" flags="0x204"/>
      <component glyphName="dotaccent" x="169" y="168" flags="0x4"/>
    </TTGlyph>
    <TTGlyph name="Edotaccent.sc" xMin="59" yMin="0" xMax="634" yMax="798">
      <component glyphName="edotaccent.sc" x="0" y="0" flags="0x204"/>
    </TTGlyph>
    <TTGlyph name="Egrave" xMin="58" yMin="0" xMax="723" yMax="962">
      <component glyphName="E" x="0" y="0" flags="0x204"/>
      <component glyphName="grave" x="115" y="168" flags="0x4"/>
    </TTGlyph>
    <TTGlyph name="Egrave.sc" xMin="59" yMin="0" xMax="634" yMax="844">
      <component glyphName="egrave.sc" x="0" y="0" flags="0x204"/>
    </TTGlyph>
    <TTGlyph name="Emacron" xMin="58" yMin="0" xMax="723" yMax="891">
      <component glyphName="E" x="0" y="0" flags="0x204"/>
      <component glyphName="macron" x="169" y="168" flags="0x4"/>
    </TTGlyph>
    <TTGlyph name="Emacron.sc" xMin="59" yMin="0" xMax="634" yMax="773">
      <component glyphName="emacron.sc" x="0" y="0" flags="0x204"/>
    </TTGlyph>
    <TTGlyph name="Eogonek" xMin="58" yMin="-289" xMax="723" yMax="700">
      <contour>
        <pt x="290" y="608" on="1"/>
        <pt x="247" y="408" on="1"/>
        <pt x="592" y="408" on="1"/>
        <pt x="572" y="318" on="1"/>
        <pt x="228" y="318" on="1"/>
        <pt x="180" y="92" on="1"/>
        <pt x="627" y="92" on="1"/>
        <pt x="599" y="0" on="1"/>
        <pt x="531" y="-56" on="1"/>
        <pt x="480" y="-98" on="0"/>
        <pt x="437" y="-150" on="0"/>
        <pt x="437" y="-173" on="1"/>
        <pt x="437" y="-192" on="0"/>
        <pt x="466" y="-214" on="0"/>
        <pt x="496" y="-214" on="1"/>
        <pt x="518" y="-214" on="0"/>
        <pt x="565" y="-202" on="0"/>
        <pt x="590" y="-189" on="1"/>
        <pt x="574" y="-264" on="1"/>
        <pt x="550" y="-277" on="0"/>
        <pt x="498" y="-289" on="0"/>
        <pt x="470" y="-289" on="1"/>
        <pt x="410" y="-289" on="0"/>
        <pt x="345" y="-235" on="0"/>
        <pt x="345" y="-193" on="1"/>
        <pt x="345" y="-147" on="0"/>
        <pt x="414" y="-64" on="0"/>
        <pt x="477" y="-15" on="1"/>
        <pt x="496" y="0" on="1"/>
        <pt x="58" y="0" on="1"/>
        <pt x="207" y="700" on="1"/>
        <pt x="723" y="700" on="1"/>
        <pt x="717" y="608" on="1"/>
      </contour>
    </TTGlyph>
    <TTGlyph name="Eogonek.sc" xMin="59" yMin="-289" xMax="634" yMax="582">
      <component glyphName="eogonek.sc" x="0" y="0" flags="0x204"/>
    </TTGlyph>
    <TTGlyph name="Eth" xMin="50" yMin="0" xMax="805" yMax="700">
      <contour>
        <pt x="89" y="0" on="1"/>
        <pt x="155" y="312" on="1"/>
        <pt x="50" y="312" on="1"/>
        <pt x="74" y="389" on="1"/>
        <pt x="172" y="389" on="1"/>
        <pt x="238" y="700" on="1"/>
        <pt x="475" y="700" on="1"/>
        <pt x="564" y="700" on="0"/>
        <pt x="690" y="657" on="0"/>
        <pt x="769" y="581" on="0"/>
        <pt x="805" y="476" on="0"/>
        <pt x="805" y="416" on="1"/>
        <pt x="805" y="335" on="0"/>
        <pt x="752" y="184" on="0"/>
        <pt x="644" y="69" on="0"/>
        <pt x="473" y="0" on="0"/>
        <pt x="357" y="0" on="1"/>
      </contour>
      <contour>
        <pt x="701" y="411" on="1"/>
        <pt x="701" y="452" on="0"/>
        <pt x="678" y="524" on="0"/>
        <pt x="623" y="577" on="0"/>
        <pt x="530" y="608" on="0"/>
        <pt x="461" y="608" on="1"/>
        <pt x="321" y="608" on="1"/>
        <pt x="274" y="389" on="1"/>
        <pt x="490" y="389" on="1"/>
        <pt x="473" y="312" on="1"/>
        <pt x="258" y="312" on="1"/>
        <pt x="211" y="92" on="1"/>
        <pt x="368" y="92" on="1"/>
        <pt x="456" y="92" on="0"/>
        <pt x="583" y="146" on="0"/>
        <pt x="663" y="234" on="0"/>
        <pt x="701" y="349" on="0"/>
      </contour>
    </TTGlyph>
    <TTGlyph name="Eth.sc" xMin="48" yMin="0" xMax="714" yMax="582">
      <component glyphName="eth.sc" x="0" y="0" flags="0x204"/>
    </TTGlyph>
    <TTGlyph name="Euro" xMin="35" yMin="-12" xMax="746" yMax="710">
      <contour>
        <pt x="35" y="229" on="1"/>
        <pt x="54" y="297" on="1"/>
        <pt x="160" y="297" on="1"/>
        <pt x="160" y="322" on="0"/>
        <pt x="166" y="373" on="0"/>
        <pt x="172" y="398" on="1"/>
        <pt x="84" y="398" on="1"/>
        <pt x="104" y="466" on="1"/>
        <pt x="192" y="466" on="1"/>
        <pt x="213" y="518" on="0"/>
        <pt x="279" y="608" on="0"/>
        <pt x="366" y="673" on="0"/>
        <pt x="476" y="710" on="0"/>
        <pt x="540" y="710" on="1"/>
        <pt x="611" y="710" on="0"/>
        <pt x="714" y="671" on="0"/>
        <pt x="746" y="644" on="1"/>
        <pt x="727" y="558" on="1"/>
        <pt x="726" y="558" on="1"/>
        <pt x="690" y="586" on="0"/>
        <pt x="597" y="624" on="0"/>
        <pt x="540" y="624" on="1"/>
        <pt x="451" y="624" on="0"/>
        <pt x="326" y="535" on="0"/>
        <pt x="293" y="466" on="1"/>
        <pt x="584" y="466" on="1"/>
        <pt x="570" y="398" on="1"/>
        <pt x="268" y="398" on="1"/>
        <pt x="261" y="373" on="0"/>
        <pt x="255" y="321" on="0"/>
        <pt x="255" y="297" on="1"/>
        <pt x="549" y="297" on="1"/>
        <pt x="534" y="230" on="1"/>
        <pt x="261" y="230" on="1"/>
        <pt x="277" y="152" on="0"/>
        <pt x="388" y="74" on="0"/>
        <pt x="475" y="74" on="1"/>
        <pt x="524" y="74" on="0"/>
        <pt x="620" y="100" on="0"/>
        <pt x="654" y="116" on="1"/>
        <pt x="655" y="116" on="1"/>
        <pt x="636" y="23" on="1"/>
        <pt x="602" y="7" on="0"/>
        <pt x="511" y="-12" on="0"/>
        <pt x="464" y="-12" on="1"/>
        <pt x="337" y="-12" on="0"/>
        <pt x="181" y="116" on="0"/>
        <pt x="164" y="229" on="1"/>
      </contour>
    </TTGlyph>
    <TTGlyph name="Euro.tab" xMin="33" yMin="-12" xMax="719" yMax="710">
      <contour>
        <pt x="33" y="229" on="1"/>
        <pt x="53" y="297" on="1"/>
        <pt x="154" y="297" on="1"/>
        <pt x="154" y="323" on="0"/>
        <pt x="160" y="373" on="0"/>
        <pt x="165" y="398" on="1"/>
        <pt x="83" y="398" on="1"/>
        <pt x="102" y="466" on="1"/>
        <pt x="185" y="466" on="1"/>
        <pt x="204" y="518" on="0"/>
        <pt x="268" y="608" on="0"/>
        <pt x="352" y="673" on="0"/>
        <pt x="457" y="710" on="0"/>
        <pt x="519" y="710" on="1"/>
        <pt x="587" y="710" on="0"/>
        <pt x="687" y="670" on="0"/>
        <pt x="719" y="643" on="1"/>
        <pt x="700" y="557" on="1"/>
        <pt x="699" y="557" on="1"/>
        <pt x="665" y="585" on="0"/>
        <pt x="573" y="624" on="0"/>
        <pt x="519" y="624" on="1"/>
        <pt x="435" y="624" on="0"/>
        <pt x="317" y="535" on="0"/>
        <pt x="285" y="466" on="1"/>
        <pt x="563" y="466" on="1"/>
        <pt x="549" y="398" on="1"/>
        <pt x="262" y="398" on="1"/>
        <pt x="256" y="373" on="0"/>
        <pt x="250" y="322" on="0"/>
        <pt x="250" y="297" on="1"/>
        <pt x="528" y="297" on="1"/>
        <pt x="513" y="230" on="1"/>
        <pt x="256" y="230" on="1"/>
        <pt x="270" y="152" on="0"/>
        <pt x="373" y="74" on="0"/>
        <pt x="454" y="74" on="1"/>
        <pt x="500" y="74" on="0"/>
        <pt x="593" y="99" on="0"/>
        <pt x="627" y="115" on="1"/>
        <pt x="628" y="115" on="1"/>
        <pt x="608" y="22" on="1"/>
        <pt x="576" y="6" on="0"/>
        <pt x="488" y="-12" on="0"/>
        <pt x="443" y="-12" on="1"/>
        <pt x="322" y="-12" on="0"/>
        <pt x="174" y="115" on="0"/>
        <pt x="158" y="229" on="1"/>
      </contour>
    </TTGlyph>
    <TTGlyph name="F" xMin="58" yMin="0" xMax="716" yMax="700">
      <contour>
        <pt x="290" y="608" on="1"/>
        <pt x="243" y="388" on="1"/>
        <pt x="590" y="388" on="1"/>
        <pt x="571" y="298" on="1"/>
        <pt x="224" y="298" on="1"/>
        <pt x="160" y="0" on="1"/>
        <pt x="58" y="0" on="1"/>
        <pt x="207" y="700" on="1"/>
        <pt x="716" y="700" on="1"/>
        <pt x="708" y="608" on="1"/>
      </contour>
    </TTGlyph>
    <TTGlyph name="F.sc" xMin="59" yMin="0" xMax="619" yMax="582">
      <component glyphName="f.sc" x="0" y="0" flags="0x204"/>
    </TTGlyph>
    <TTGlyph name="G" xMin="83" yMin="-18" xMax="784" yMax="713">
      <contour>
        <pt x="488" y="621" on="1"/>
        <pt x="417" y="621" on="0"/>
        <pt x="305" y="569" on="0"/>
        <pt x="229" y="481" on="0"/>
        <pt x="188" y="366" on="0"/>
        <pt x="188" y="303" on="1"/>
        <pt x="188" y="200" on="0"/>
        <pt x="307" y="74" on="0"/>
        <pt x="417" y="74" on="1"/>
        <pt x="524" y="74" on="0"/>
        <pt x="653" y="197" on="0"/>
        <pt x="670" y="298" on="1"/>
        <pt x="400" y="298" on="1"/>
        <pt x="419" y="384" on="1"/>
        <pt x="784" y="384" on="1"/>
        <pt x="775" y="282" on="0"/>
        <pt x="714" y="127" on="0"/>
        <pt x="664" y="77" on="1"/>
        <pt x="616" y="30" on="0"/>
        <pt x="488" y="-18" on="0"/>
        <pt x="410" y="-18" on="1"/>
        <pt x="334" y="-18" on="0"/>
        <pt x="212" y="27" on="0"/>
        <pt x="128" y="108" on="0"/>
        <pt x="83" y="225" on="0"/>
        <pt x="83" y="296" on="1"/>
        <pt x="83" y="378" on="0"/>
        <pt x="138" y="529" on="0"/>
        <pt x="242" y="644" on="0"/>
        <pt x="395" y="713" on="0"/>
        <pt x="491" y="713" on="1"/>
        <pt x="575" y="713" on="0"/>
        <pt x="714" y="656" on="0"/>
        <pt x="758" y="612" on="1"/>
        <pt x="737" y="515" on="1"/>
        <pt x="736" y="515" on="1"/>
        <pt x="693" y="559" on="0"/>
        <pt x="568" y="621" on="0"/>
      </contour>
    </TTGlyph>
    <TTGlyph name="G.sc" xMin="74" yMin="-16" xMax="687" yMax="595">
      <component glyphName="g.sc" x="0" y="0" flags="0x204"/>
    </TTGlyph>
    <TTGlyph name="Gbreve" xMin="83" yMin="-18" xMax="784" yMax="987">
      <component glyphName="G" x="0" y="0" flags="0x204"/>
      <component glyphName="breve" x="189" y="181" flags="0x4"/>
    </TTGlyph>
    <TTGlyph name="Gbreve.sc" xMin="74" yMin="-16" xMax="687" yMax="868">
      <component glyphName="gbreve.sc" x="0" y="0" flags="0x204"/>
    </TTGlyph>
    <TTGlyph name="Gdotaccent" xMin="83" yMin="-18" xMax="784" yMax="929">
      <component glyphName="G" x="0" y="0" flags="0x204"/>
      <component glyphName="dotaccent" x="189" y="181" flags="0x4"/>
    </TTGlyph>
    <TTGlyph name="Gdotaccent.sc" xMin="74" yMin="-16" xMax="687" yMax="810">
      <component glyphName="gdotaccent.sc" x="0" y="0" flags="0x204"/>
    </TTGlyph>
    <TTGlyph name="H" xMin="58" yMin="0" xMax="813" yMax="700">
      <contour>
        <pt x="561" y="0" on="1"/>
        <pt x="628" y="316" on="1"/>
        <pt x="227" y="316" on="1"/>
        <pt x="160" y="0" on="1"/>
        <pt x="58" y="0" on="1"/>
        <pt x="207" y="700" on="1"/>
        <pt x="309" y="700" on="1"/>
        <pt x="247" y="408" on="1"/>
        <pt x="648" y="408" on="1"/>
        <pt x="710" y="700" on="1"/>
        <pt x="813" y="700" on="1"/>
        <pt x="664" y="0" on="1"/>
      </contour>
    </TTGlyph>
    <TTGlyph name="H.sc" xMin="59" yMin="0" xMax="725" yMax="582">
      <component glyphName="h.sc" x="0" y="0" flags="0x204"/>
    </TTGlyph>
    <TTGlyph name="Hbar" xMin="90" yMin="0" xMax="914" yMax="700">
      <contour>
        <pt x="90" y="508" on="1"/>
        <pt x="114" y="585" on="1"/>
        <pt x="215" y="585" on="1"/>
        <pt x="239" y="700" on="1"/>
        <pt x="341" y="700" on="1"/>
        <pt x="316" y="582" on="1"/>
        <pt x="717" y="582" on="1"/>
        <pt x="742" y="700" on="1"/>
        <pt x="844" y="700" on="1"/>
        <pt x="820" y="585" on="1"/>
        <pt x="914" y="585" on="1"/>
        <pt x="911" y="508" on="1"/>
        <pt x="803" y="508" on="1"/>
        <pt x="695" y="0" on="1"/>
        <pt x="593" y="0" on="1"/>
        <pt x="653" y="283" on="1"/>
        <pt x="252" y="283" on="1"/>
        <pt x="192" y="0" on="1"/>
        <pt x="90" y="0" on="1"/>
        <pt x="198" y="508" on="1"/>
      </contour>
      <contour>
        <pt x="272" y="376" on="1"/>
        <pt x="673" y="376" on="1"/>
        <pt x="702" y="512" on="1"/>
        <pt x="301" y="512" on="1"/>
      </contour>
    </TTGlyph>
    <TTGlyph name="Hbar.sc" xMin="77" yMin="0" xMax="830" yMax="582">
      <component glyphName="hbar.sc" x="0" y="0" flags="0x204"/>
    </TTGlyph>
    <TTGlyph name="I" xMin="62" yMin="0" xMax="314" yMax="700">
      <contour>
        <pt x="165" y="0" on="1"/>
        <pt x="62" y="0" on="1"/>
        <pt x="211" y="700" on="1"/>
        <pt x="314" y="700" on="1"/>
      </contour>
    </TTGlyph>
    <TTGlyph name="I.sc" xMin="60" yMin="0" xMax="282" yMax="582">
      <component glyphName="i.sc" x="0" y="0" flags="0x204"/>
    </TTGlyph>
    <TTGlyph name="Iacute" xMin="62" yMin="0" xMax="534" yMax="962">
      <component glyphName="I" x="0" y="0" flags="0x204"/>
      <component glyphName="acute" x="21" y="168" flags="0x4"/>
    </TTGlyph>
    <TTGlyph name="Iacute.sc" xMin="60" yMin="0" xMax="502" yMax="844">
      <component glyphName="iacute.sc" x="0" y="0" flags="0x204"/>
    </TTGlyph>
    <TTGlyph name="Ibreve" xMin="62" yMin="0" xMax="484" yMax="974">
      <component glyphName="I" x="0" y="0" flags="0x204"/>
      <component glyphName="breve" x="-46" y="168" flags="0x4"/>
    </TTGlyph>
    <TTGlyph name="Ibreve.sc" xMin="60" yMin="0" xMax="455" yMax="856">
      <component glyphName="ibreve.sc" x="0" y="0" flags="0x204"/>
    </TTGlyph>
    <TTGlyph name="Icircumflex" xMin="62" yMin="0" xMax="488" yMax="972">
      <component glyphName="I" x="0" y="0" flags="0x204"/>
      <component glyphName="circumflex" x="-46" y="168" flags="0x4"/>
    </TTGlyph>
    <TTGlyph name="Icircumflex.sc" xMin="50" yMin="0" xMax="458" yMax="854">
      <component glyphName="icircumflex.sc" x="0" y="0" flags="0x204"/>
    </TTGlyph>
    <TTGlyph name="Idieresis" xMin="62" yMin="0" xMax="484" yMax="912">
      <component glyphName="I" x="0" y="0" flags="0x204"/>
      <component glyphName="dieresis" x="-46" y="168" flags="0x4"/>
    </TTGlyph>
    <TTGlyph name="Idieresis.sc" xMin="60" yMin="0" xMax="454" yMax="794">
      <component glyphName="idieresis.sc" x="0" y="0" flags="0x204"/>
    </TTGlyph>
    <TTGlyph name="Idotaccent" xMin="62" yMin="0" xMax="362" yMax="916">
      <component glyphName="I" x="0" y="0" flags="0x204"/>
      <component glyphName="dotaccent" x="-46" y="168" flags="0x4"/>
    </TTGlyph>
    <TTGlyph name="Idotaccent.sc" xMin="60" yMin="0" xMax="332" yMax="798">
      <component glyphName="idotaccent.sc" x="0" y="0" flags="0x204"/>
    </TTGlyph>
    <TTGlyph name="Igrave" xMin="62" yMin="0" xMax="326" yMax="962">
      <component glyphName="I" x="0" y="0" flags="0x204"/>
      <component glyphName="grave" x="-114" y="168" flags="0x4"/>
    </TTGlyph>
    <TTGlyph name="Igrave.sc" xMin="60" yMin="0" xMax="294" yMax="844">
      <component glyphName="igrave.sc" x="0" y="0" flags="0x204"/>
    </TTGlyph>
    <TTGlyph name="Imacron" xMin="62" yMin="0" xMax="483" yMax="891">
      <component glyphName="I" x="0" y="0" flags="0x204"/>
      <component glyphName="macron" x="-46" y="168" flags="0x4"/>
    </TTGlyph>
    <TTGlyph name="Imacron.sc" xMin="60" yMin="0" xMax="453" yMax="773">
      <component glyphName="imacron.sc" x="0" y="0" flags="0x204"/>
    </TTGlyph>
    <TTGlyph name="Iogonek" xMin="-90" yMin="-289" xMax="314" yMax="700">
      <contour>
        <pt x="165" y="0" on="1"/>
        <pt x="96" y="-56" on="1"/>
        <pt x="41" y="-102" on="0"/>
        <pt x="3" y="-152" on="0"/>
        <pt x="3" y="-173" on="1"/>
        <pt x="3" y="-192" on="0"/>
        <pt x="33" y="-214" on="0"/>
        <pt x="64" y="-214" on="1"/>
        <pt x="86" y="-214" on="0"/>
        <pt x="131" y="-202" on="0"/>
        <pt x="156" y="-189" on="1"/>
        <pt x="140" y="-263" on="1"/>
        <pt x="117" y="-276" on="0"/>
        <pt x="66" y="-289" on="0"/>
        <pt x="38" y="-289" on="1"/>
        <pt x="-22" y="-289" on="0"/>
        <pt x="-90" y="-235" on="0"/>
        <pt x="-90" y="-192" on="1"/>
        <pt x="-90" y="-149" on="0"/>
        <pt x="-23" y="-66" on="0"/>
        <pt x="42" y="-15" on="1"/>
        <pt x="63" y="1" on="1"/>
        <pt x="211" y="700" on="1"/>
        <pt x="314" y="700" on="1"/>
      </contour>
    </TTGlyph>
    <TTGlyph name="Iogonek.sc" xMin="-97" yMin="-289" xMax="282" yMax="582">
      <component glyphName="iogonek.sc" x="0" y="0" flags="0x204"/>
    </TTGlyph>
    <TTGlyph name="J" xMin="38" yMin="-14" xMax="660" yMax="700">
      <contour>
        <pt x="287" y="-14" on="1"/>
        <pt x="219" y="-14" on="0"/>
        <pt x="87" y="28" on="0"/>
        <pt x="38" y="68" on="1"/>
        <pt x="59" y="168" on="1"/>
        <pt x="60" y="168" on="1"/>
        <pt x="110" y="124" on="0"/>
        <pt x="229" y="80" on="0"/>
        <pt x="284" y="80" on="1"/>
        <pt x="357" y="80" on="0"/>
        <pt x="444" y="162" on="0"/>
        <pt x="464" y="255" on="1"/>
        <pt x="538" y="608" on="1"/>
        <pt x="260" y="608" on="1"/>
        <pt x="288" y="700" on="1"/>
        <pt x="660" y="700" on="1"/>
        <pt x="563" y="239" on="1"/>
        <pt x="535" y="107" on="0"/>
        <pt x="398" y="-14" on="0"/>
      </contour>
    </TTGlyph>
    <TTGlyph name="J.sc" xMin="34" yMin="-13" xMax="578" yMax="582">
      <component glyphName="j.sc" x="0" y="0" flags="0x204"/>
    </TTGlyph>
    <TTGlyph name="K" xMin="58" yMin="0" xMax="807" yMax="700">
      <contour>
        <pt x="58" y="0" on="1"/>
        <pt x="207" y="700" on="1"/>
        <pt x="309" y="700" on="1"/>
        <pt x="246" y="405" on="1"/>
        <pt x="377" y="405" on="1"/>
        <pt x="677" y="700" on="1"/>
        <pt x="807" y="700" on="1"/>
        <pt x="807" y="699" on="1"/>
        <pt x="453" y="353" on="1"/>
        <pt x="678" y="1" on="1"/>
        <pt x="678" y="0" on="1"/>
        <pt x="564" y="0" on="1"/>
        <pt x="363" y="311" on="1"/>
        <pt x="226" y="311" on="1"/>
        <pt x="160" y="0" on="1"/>
      </contour>
    </TTGlyph>
    <TTGlyph name="K.sc" xMin="59" yMin="0" xMax="718" yMax="582">
      <component glyphName="k.sc" x="0" y="0" flags="0x204"/>
    </TTGlyph>
    <TTGlyph name="L" xMin="58" yMin="0" xMax="586" yMax="700">
      <contour>
        <pt x="58" y="0" on="1"/>
        <pt x="207" y="700" on="1"/>
        <pt x="309" y="700" on="1"/>
        <pt x="180" y="94" on="1"/>
        <pt x="586" y="94" on="1"/>
        <pt x="558" y="0" on="1"/>
      </contour>
    </TTGlyph>
    <TTGlyph name="L.sc" xMin="59" yMin="0" xMax="516" yMax="582">
      <component glyphName="l.sc" x="0" y="0" flags="0x204"/>
    </TTGlyph>
    <TTGlyph name="Lacute" xMin="58" yMin="0" xMax="586" yMax="962">
      <component glyphName="L" x="0" y="0" flags="0x204"/>
      <component glyphName="acute" x="15" y="168" flags="0x4"/>
    </TTGlyph>
    <TTGlyph name="Lacute.sc" xMin="59" yMin="0" xMax="516" yMax="844">
      <component glyphName="lacute.sc" x="0" y="0" flags="0x204"/>
    </TTGlyph>
    <TTGlyph name="Lcaron" xMin="58" yMin="0" xMax="586" yMax="737">
      <component glyphName="L" x="0" y="0" flags="0x204"/>
      <component glyphName="caron.alt" x="119" y="-36" flags="0x4"/>
    </TTGlyph>
    <TTGlyph name="Lcaron.sc" xMin="59" yMin="0" xMax="516" yMax="582">
      <component glyphName="lcaron.sc" x="0" y="0" flags="0x204"/>
    </TTGlyph>
    <TTGlyph name="Ldot" xMin="58" yMin="0" xMax="593" yMax="700">
      <contour>
        <pt x="58" y="0" on="1"/>
        <pt x="207" y="700" on="1"/>
        <pt x="309" y="700" on="1"/>
        <pt x="180" y="94" on="1"/>
        <pt x="586" y="94" on="1"/>
        <pt x="558" y="0" on="1"/>
      </contour>
      <contour>
        <pt x="458" y="417" on="1"/>
        <pt x="458" y="442" on="0"/>
        <pt x="496" y="481" on="0"/>
        <pt x="530" y="481" on="1"/>
        <pt x="561" y="481" on="0"/>
        <pt x="593" y="448" on="0"/>
        <pt x="593" y="426" on="1"/>
        <pt x="593" y="401" on="0"/>
        <pt x="555" y="361" on="0"/>
        <pt x="521" y="361" on="1"/>
        <pt x="490" y="361" on="0"/>
        <pt x="458" y="394" on="0"/>
      </contour>
    </TTGlyph>
    <TTGlyph name="Ldot.sc" xMin="59" yMin="0" xMax="556" yMax="582">
      <component glyphName="ldot.sc" x="0" y="0" flags="0x204"/>
    </TTGlyph>
    <TTGlyph name="Lslash" xMin="9" yMin="0" xMax="615" yMax="700">
      <contour>
        <pt x="87" y="0" on="1"/>
        <pt x="141" y="253" on="1"/>
        <pt x="9" y="189" on="1"/>
        <pt x="31" y="287" on="1"/>
        <pt x="162" y="351" on="1"/>
        <pt x="236" y="700" on="1"/>
        <pt x="338" y="700" on="1"/>
        <pt x="276" y="407" on="1"/>
        <pt x="524" y="528" on="1"/>
        <pt x="503" y="429" on="1"/>
        <pt x="254" y="308" on="1"/>
        <pt x="209" y="94" on="1"/>
        <pt x="615" y="94" on="1"/>
        <pt x="587" y="0" on="1"/>
      </contour>
    </TTGlyph>
    <TTGlyph name="Lslash.sc" xMin="29" yMin="0" xMax="552" yMax="582">
      <component glyphName="lslash.sc" x="0" y="0" flags="0x204"/>
    </TTGlyph>
    <TTGlyph name="M" xMin="58" yMin="0" xMax="953" yMax="700">
      <contour>
        <pt x="58" y="0" on="1"/>
        <pt x="207" y="700" on="1"/>
        <pt x="331" y="700" on="1"/>
        <pt x="479" y="237" on="1"/>
        <pt x="814" y="700" on="1"/>
        <pt x="953" y="700" on="1"/>
        <pt x="805" y="0" on="1"/>
        <pt x="704" y="0" on="1"/>
        <pt x="822" y="556" on="1"/>
        <pt x="815" y="556" on="1"/>
        <pt x="452" y="58" on="1"/>
        <pt x="443" y="58" on="1"/>
        <pt x="282" y="551" on="1"/>
        <pt x="276" y="551" on="1"/>
        <pt x="159" y="0" on="1"/>
      </contour>
    </TTGlyph>
    <TTGlyph name="M.sc" xMin="59" yMin="0" xMax="833" yMax="582">
      <component glyphName="m.sc" x="0" y="0" flags="0x204"/>
    </TTGlyph>
    <TTGlyph name="N" xMin="58" yMin="0" xMax="816" yMax="700">
      <contour>
        <pt x="58" y="0" on="1"/>
        <pt x="207" y="700" on="1"/>
        <pt x="332" y="700" on="1"/>
        <pt x="586" y="146" on="1"/>
        <pt x="598" y="146" on="1"/>
        <pt x="716" y="700" on="1"/>
        <pt x="816" y="700" on="1"/>
        <pt x="668" y="0" on="1"/>
        <pt x="549" y="0" on="1"/>
        <pt x="291" y="563" on="1"/>
        <pt x="279" y="563" on="1"/>
        <pt x="159" y="0" on="1"/>
      </contour>
    </TTGlyph>
    <TTGlyph name="N.sc" xMin="59" yMin="0" xMax="725" yMax="582">
      <component glyphName="n.sc" x="0" y="0" flags="0x204"/>
    </TTGlyph>
    <TTGlyph name="Nacute" xMin="58" yMin="0" xMax="816" yMax="937">
      <component glyphName="N" x="0" y="0" flags="0x204"/>
      <component glyphName="acute" x="260" y="143" flags="0x4"/>
    </TTGlyph>
    <TTGlyph name="Nacute.sc" xMin="59" yMin="0" xMax="725" yMax="820">
      <component glyphName="nacute.sc" x="0" y="0" flags="0x204"/>
    </TTGlyph>
    <TTGlyph name="Ncaron" xMin="58" yMin="0" xMax="816" yMax="947">
      <component glyphName="N" x="0" y="0" flags="0x204"/>
      <component glyphName="caron" x="208" y="143" flags="0x4"/>
    </TTGlyph>
    <TTGlyph name="Ncaron.sc" xMin="59" yMin="0" xMax="725" yMax="830">
      <component glyphName="ncaron.sc" x="0" y="0" flags="0x204"/>
    </TTGlyph>
    <TTGlyph name="Ntilde" xMin="58" yMin="0" xMax="816" yMax="935">
      <component glyphName="N" x="0" y="0" flags="0x204"/>
      <component glyphName="tilde" x="213" y="168" flags="0x4"/>
    </TTGlyph>
    <TTGlyph name="Ntilde.sc" xMin="59" yMin="0" xMax="725" yMax="817">
      <component glyphName="ntilde.sc" x="0" y="0" flags="0x204"/>
    </TTGlyph>
    <TTGlyph name="O" xMin="83" yMin="-18" xMax="805" yMax="717">
      <contour>
        <pt x="402" y="-18" on="1"/>
        <pt x="330" y="-18" on="0"/>
        <pt x="212" y="26" on="0"/>
        <pt x="129" y="108" on="0"/>
        <pt x="83" y="224" on="0"/>
        <pt x="83" y="296" on="1"/>
        <pt x="83" y="375" on="0"/>
        <pt x="136" y="527" on="0"/>
        <pt x="238" y="645" on="0"/>
        <pt x="388" y="717" on="0"/>
        <pt x="485" y="717" on="1"/>
        <pt x="557" y="717" on="0"/>
        <pt x="676" y="673" on="0"/>
        <pt x="759" y="591" on="0"/>
        <pt x="805" y="475" on="0"/>
        <pt x="805" y="403" on="1"/>
        <pt x="805" y="324" on="0"/>
        <pt x="752" y="172" on="0"/>
        <pt x="650" y="55" on="0"/>
        <pt x="499" y="-18" on="0"/>
      </contour>
      <contour>
        <pt x="410" y="75" on="1"/>
        <pt x="480" y="75" on="0"/>
        <pt x="589" y="129" on="0"/>
        <pt x="662" y="219" on="0"/>
        <pt x="701" y="335" on="0"/>
        <pt x="701" y="397" on="1"/>
        <pt x="701" y="501" on="0"/>
        <pt x="583" y="624" on="0"/>
        <pt x="478" y="624" on="1"/>
        <pt x="408" y="624" on="0"/>
        <pt x="299" y="570" on="0"/>
        <pt x="226" y="481" on="0"/>
        <pt x="187" y="364" on="0"/>
        <pt x="187" y="302" on="1"/>
        <pt x="187" y="198" on="0"/>
        <pt x="305" y="75" on="0"/>
      </contour>
    </TTGlyph>
    <TTGlyph name="O.sc" xMin="75" yMin="-17" xMax="707" yMax="600">
      <component glyphName="o.sc" x="0" y="0" flags="0x204"/>
    </TTGlyph>
    <TTGlyph name="OE" xMin="82" yMin="0" xMax="1212" yMax="700">
      <contour>
        <pt x="778" y="608" on="1"/>
        <pt x="735" y="408" on="1"/>
        <pt x="1078" y="408" on="1"/>
        <pt x="1058" y="318" on="1"/>
        <pt x="716" y="318" on="1"/>
        <pt x="668" y="92" on="1"/>
        <pt x="1115" y="92" on="1"/>
        <pt x="1087" y="0" on="1"/>
        <pt x="412" y="0" on="1"/>
        <pt x="323" y="0" on="0"/>
        <pt x="197" y="43" on="0"/>
        <pt x="118" y="119" on="0"/>
        <pt x="82" y="224" on="0"/>
        <pt x="82" y="284" on="1"/>
        <pt x="82" y="365" on="0"/>
        <pt x="135" y="516" on="0"/>
        <pt x="243" y="631" on="0"/>
        <pt x="414" y="700" on="0"/>
        <pt x="530" y="700" on="1"/>
        <pt x="1212" y="700" on="1"/>
        <pt x="1205" y="608" on="1"/>
      </contour>
      <contour>
        <pt x="186" y="289" on="1"/>
        <pt x="186" y="248" on="0"/>
        <pt x="209" y="176" on="0"/>
        <pt x="264" y="123" on="0"/>
        <pt x="357" y="92" on="0"/>
        <pt x="426" y="92" on="1"/>
        <pt x="566" y="92" on="1"/>
        <pt x="676" y="608" on="1"/>
        <pt x="519" y="608" on="1"/>
        <pt x="431" y="608" on="0"/>
        <pt x="304" y="554" on="0"/>
        <pt x="224" y="466" on="0"/>
        <pt x="186" y="351" on="0"/>
      </contour>
    </TTGlyph>
    <TTGlyph name="OE.sc" xMin="74" yMin="0" xMax="1049" yMax="582">
      <component glyphName="oe.sc" x="0" y="0" flags="0x204"/>
    </TTGlyph>
    <TTGlyph name="Oacute" xMin="83" yMin="-18" xMax="805" yMax="978">
      <component glyphName="O" x="0" y="0" flags="0x204"/>
      <component glyphName="acute" x="257" y="184" flags="0x4"/>
    </TTGlyph>
    <TTGlyph name="Oacute.sc" xMin="75" yMin="-17" xMax="707" yMax="862">
      <component glyphName="oacute.sc" x="0" y="0" flags="0x204"/>
    </TTGlyph>
    <TTGlyph name="Obreve" xMin="83" yMin="-18" xMax="805" yMax="990">
      <component glyphName="O" x="0" y="0" flags="0x204"/>
      <component glyphName="breve" x="204" y="184" flags="0x4"/>
    </TTGlyph>
    <TTGlyph name="Obreve.sc" xMin="75" yMin="-17" xMax="707" yMax="874">
      <component glyphName="obreve.sc" x="0" y="0" flags="0x204"/>
    </TTGlyph>
    <TTGlyph name="Ocircumflex" xMin="83" yMin="-18" xMax="805" yMax="988">
      <component glyphName="O" x="0" y="0" flags="0x204"/>
      <component glyphName="circumflex" x="204" y="184" flags="0x4"/>
    </TTGlyph>
    <TTGlyph name="Ocircumflex.sc" xMin="75" yMin="-17" xMax="707" yMax="872">
      <component glyphName="ocircumflex.sc" x="0" y="0" flags="0x204"/>
    </TTGlyph>
    <TTGlyph name="Odieresis" xMin="83" yMin="-18" xMax="805" yMax="928">
      <component glyphName="O" x="0" y="0" flags="0x204"/>
      <component glyphName="dieresis" x="203" y="184" flags="0x4"/>
    </TTGlyph>
    <TTGlyph name="Odieresis.sc" xMin="75" yMin="-17" xMax="707" yMax="812">
      <component glyphName="odieresis.sc" x="0" y="0" flags="0x204"/>
    </TTGlyph>
    <TTGlyph name="Ograve" xMin="83" yMin="-18" xMax="805" yMax="978">
      <component glyphName="O" x="0" y="0" flags="0x204"/>
      <component glyphName="grave" x="149" y="184" flags="0x4"/>
    </TTGlyph>
    <TTGlyph name="Ograve.sc" xMin="75" yMin="-17" xMax="707" yMax="862">
      <component glyphName="ograve.sc" x="0" y="0" flags="0x204"/>
    </TTGlyph>
    <TTGlyph name="Ohungarumlaut" xMin="83" yMin="-18" xMax="874" yMax="978">
      <component glyphName="O" x="0" y="0" flags="0x204"/>
      <component glyphName="hungarumlaut" x="269" y="184" flags="0x4"/>
    </TTGlyph>
    <TTGlyph name="Ohungarumlaut.sc" xMin="75" yMin="-17" xMax="797" yMax="862">
      <component glyphName="ohungarumlaut.sc" x="0" y="0" flags="0x204"/>
    </TTGlyph>
    <TTGlyph name="Omacron" xMin="83" yMin="-18" xMax="805" yMax="907">
      <component glyphName="O" x="0" y="0" flags="0x204"/>
      <component glyphName="macron" x="203" y="184" flags="0x4"/>
    </TTGlyph>
    <TTGlyph name="Omacron.sc" xMin="75" yMin="-17" xMax="707" yMax="791">
      <component glyphName="omacron.sc" x="0" y="0" flags="0x204"/>
    </TTGlyph>
    <TTGlyph name="Oslash" xMin="-7" yMin="-60" xMax="894" yMax="760">
      <contour>
        <pt x="-7" y="-60" on="1"/>
        <pt x="144" y="98" on="1"/>
        <pt x="115" y="137" on="0"/>
        <pt x="83" y="238" on="0"/>
        <pt x="83" y="297" on="1"/>
        <pt x="83" y="376" on="0"/>
        <pt x="136" y="527" on="0"/>
        <pt x="237" y="645" on="0"/>
        <pt x="388" y="717" on="0"/>
        <pt x="484" y="717" on="1"/>
        <pt x="543" y="717" on="0"/>
        <pt x="643" y="688" on="0"/>
        <pt x="683" y="660" on="1"/>
        <pt x="779" y="760" on="1"/>
        <pt x="894" y="760" on="1"/>
        <pt x="743" y="602" on="1"/>
        <pt x="773" y="563" on="0"/>
        <pt x="805" y="463" on="0"/>
        <pt x="805" y="403" on="1"/>
        <pt x="805" y="324" on="0"/>
        <pt x="752" y="173" on="0"/>
        <pt x="651" y="55" on="0"/>
        <pt x="500" y="-17" on="0"/>
        <pt x="404" y="-17" on="1"/>
        <pt x="345" y="-17" on="0"/>
        <pt x="245" y="12" on="0"/>
        <pt x="205" y="40" on="1"/>
        <pt x="109" y="-60" on="1"/>
      </contour>
      <contour>
        <pt x="184" y="300" on="1"/>
        <pt x="184" y="261" on="0"/>
        <pt x="202" y="194" on="0"/>
        <pt x="218" y="167" on="1"/>
        <pt x="619" y="587" on="1"/>
        <pt x="591" y="606" on="0"/>
        <pt x="521" y="628" on="0"/>
        <pt x="478" y="628" on="1"/>
        <pt x="407" y="628" on="0"/>
        <pt x="297" y="573" on="0"/>
        <pt x="223" y="482" on="0"/>
        <pt x="184" y="363" on="0"/>
      </contour>
      <contour>
        <pt x="410" y="72" on="1"/>
        <pt x="481" y="72" on="0"/>
        <pt x="591" y="127" on="0"/>
        <pt x="665" y="218" on="0"/>
        <pt x="704" y="337" on="0"/>
        <pt x="704" y="400" on="1"/>
        <pt x="704" y="439" on="0"/>
        <pt x="686" y="506" on="0"/>
        <pt x="670" y="533" on="1"/>
        <pt x="268" y="113" on="1"/>
        <pt x="296" y="94" on="0"/>
        <pt x="367" y="72" on="0"/>
      </contour>
    </TTGlyph>
    <TTGlyph name="Oslash.sc" xMin="1" yMin="-56" xMax="780" yMax="637">
      <component glyphName="oslash.sc" x="0" y="0" flags="0x204"/>
    </TTGlyph>
    <TTGlyph name="Oslashacute" xMin="-7" yMin="-60" xMax="894" yMax="978">
      <component glyphName="Oslash" x="0" y="0" flags="0x204"/>
      <component glyphName="acute" x="257" y="184" flags="0x4"/>
    </TTGlyph>
    <TTGlyph name="Oslashacute.sc" xMin="1" yMin="-56" xMax="780" yMax="860">
      <component glyphName="oslashacute.sc" x="0" y="0" flags="0x204"/>
    </TTGlyph>
    <TTGlyph name="Otilde" xMin="83" yMin="-18" xMax="805" yMax="951">
      <component glyphName="O" x="0" y="0" flags="0x204"/>
      <component glyphName="tilde" x="203" y="184" flags="0x4"/>
    </TTGlyph>
    <TTGlyph name="Otilde.sc" xMin="75" yMin="-17" xMax="707" yMax="835">
      <component glyphName="otilde.sc" x="0" y="0" flags="0x204"/>
    </TTGlyph>
    <TTGlyph name="P" xMin="58" yMin="0" xMax="735" yMax="700">
      <contour>
        <pt x="437" y="212" on="1"/>
        <pt x="205" y="212" on="1"/>
        <pt x="160" y="0" on="1"/>
        <pt x="58" y="0" on="1"/>
        <pt x="207" y="700" on="1"/>
        <pt x="497" y="700" on="1"/>
        <pt x="621" y="700" on="0"/>
        <pt x="735" y="582" on="0"/>
        <pt x="735" y="491" on="1"/>
        <pt x="735" y="433" on="0"/>
        <pt x="697" y="331" on="0"/>
        <pt x="622" y="256" on="0"/>
        <pt x="510" y="212" on="0"/>
      </contour>
      <contour>
        <pt x="434" y="306" on="1"/>
        <pt x="533" y="306" on="0"/>
        <pt x="631" y="410" on="0"/>
        <pt x="631" y="485" on="1"/>
        <pt x="631" y="540" on="0"/>
        <pt x="565" y="608" on="0"/>
        <pt x="493" y="608" on="1"/>
        <pt x="290" y="608" on="1"/>
        <pt x="226" y="306" on="1"/>
      </contour>
    </TTGlyph>
    <TTGlyph name="P.sc" xMin="59" yMin="0" xMax="641" yMax="582">
      <component glyphName="p.sc" x="0" y="0" flags="0x204"/>
    </TTGlyph>
    <TTGlyph name="Q" xMin="83" yMin="-35" xMax="805" yMax="717">
      <contour>
        <pt x="404" y="-18" on="1"/>
        <pt x="332" y="-18" on="0"/>
        <pt x="213" y="27" on="0"/>
        <pt x="129" y="108" on="0"/>
        <pt x="83" y="225" on="0"/>
        <pt x="83" y="296" on="1"/>
        <pt x="83" y="375" on="0"/>
        <pt x="136" y="527" on="0"/>
        <pt x="238" y="645" on="0"/>
        <pt x="388" y="717" on="0"/>
        <pt x="485" y="717" on="1"/>
        <pt x="557" y="717" on="0"/>
        <pt x="676" y="673" on="0"/>
        <pt x="759" y="591" on="0"/>
        <pt x="805" y="475" on="0"/>
        <pt x="805" y="403" on="1"/>
        <pt x="805" y="328" on="0"/>
        <pt x="756" y="182" on="0"/>
        <pt x="709" y="124" on="1"/>
        <pt x="768" y="66" on="1"/>
        <pt x="745" y="-35" on="1"/>
        <pt x="644" y="60" on="1"/>
        <pt x="597" y="24" on="0"/>
        <pt x="476" y="-18" on="0"/>
      </contour>
      <contour>
        <pt x="411" y="74" on="1"/>
        <pt x="462" y="74" on="0"/>
        <pt x="546" y="101" on="0"/>
        <pt x="580" y="125" on="1"/>
        <pt x="418" y="281" on="1"/>
        <pt x="474" y="348" on="1"/>
        <pt x="640" y="186" on="1"/>
        <pt x="671" y="229" on="0"/>
        <pt x="702" y="338" on="0"/>
        <pt x="702" y="397" on="1"/>
        <pt x="702" y="501" on="0"/>
        <pt x="583" y="624" on="0"/>
        <pt x="478" y="624" on="1"/>
        <pt x="408" y="624" on="0"/>
        <pt x="299" y="570" on="0"/>
        <pt x="226" y="481" on="0"/>
        <pt x="187" y="364" on="0"/>
        <pt x="187" y="302" on="1"/>
        <pt x="187" y="198" on="0"/>
        <pt x="306" y="74" on="0"/>
      </contour>
    </TTGlyph>
    <TTGlyph name="Q.sc" xMin="75" yMin="-35" xMax="707" yMax="600">
      <component glyphName="q.sc" x="0" y="0" flags="0x204"/>
    </TTGlyph>
    <TTGlyph name="R" xMin="58" yMin="0" xMax="735" yMax="700">
      <contour>
        <pt x="651" y="0" on="1"/>
        <pt x="536" y="0" on="1"/>
        <pt x="413" y="238" on="1"/>
        <pt x="211" y="238" on="1"/>
        <pt x="160" y="0" on="1"/>
        <pt x="58" y="0" on="1"/>
        <pt x="207" y="700" on="1"/>
        <pt x="502" y="700" on="1"/>
        <pt x="622" y="700" on="0"/>
        <pt x="735" y="587" on="0"/>
        <pt x="735" y="499" on="1"/>
        <pt x="735" y="408" on="0"/>
        <pt x="624" y="269" on="0"/>
        <pt x="517" y="247" on="1"/>
      </contour>
      <contour>
        <pt x="441" y="329" on="1"/>
        <pt x="535" y="329" on="0"/>
        <pt x="631" y="425" on="0"/>
        <pt x="631" y="493" on="1"/>
        <pt x="631" y="545" on="0"/>
        <pt x="566" y="608" on="0"/>
        <pt x="494" y="608" on="1"/>
        <pt x="290" y="608" on="1"/>
        <pt x="230" y="329" on="1"/>
      </contour>
    </TTGlyph>
    <TTGlyph name="R.sc" xMin="59" yMin="0" xMax="653" yMax="582">
      <component glyphName="r.sc" x="0" y="0" flags="0x204"/>
    </TTGlyph>
    <TTGlyph name="R_p" xMin="87" yMin="-190" xMax="1344" yMax="700">
      <contour>
        <pt x="236" y="234" on="1"/>
        <pt x="186" y="0" on="1"/>
        <pt x="87" y="0" on="1"/>
        <pt x="236" y="700" on="1"/>
        <pt x="511" y="700" on="1"/>
        <pt x="631" y="700" on="0"/>
        <pt x="748" y="587" on="0"/>
        <pt x="748" y="497" on="1"/>
        <pt x="748" y="404" on="0"/>
        <pt x="638" y="266" on="0"/>
        <pt x="531" y="244" on="1"/>
        <pt x="663" y="0" on="1"/>
        <pt x="548" y="0" on="1"/>
        <pt x="427" y="234" on="1"/>
      </contour>
      <contour>
        <pt x="455" y="322" on="1"/>
        <pt x="549" y="322" on="0"/>
        <pt x="646" y="420" on="0"/>
        <pt x="646" y="491" on="1"/>
        <pt x="646" y="545" on="0"/>
        <pt x="579" y="611" on="0"/>
        <pt x="507" y="611" on="1"/>
        <pt x="316" y="611" on="1"/>
        <pt x="254" y="322" on="1"/>
      </contour>
      <contour>
        <pt x="1158" y="544" on="1"/>
        <pt x="1196" y="544" on="0"/>
        <pt x="1265" y="518" on="0"/>
        <pt x="1315" y="467" on="0"/>
        <pt x="1344" y="388" on="0"/>
        <pt x="1344" y="335" on="1"/>
        <pt x="1344" y="264" on="0"/>
        <pt x="1299" y="137" on="0"/>
        <pt x="1220" y="41" on="0"/>
        <pt x="1110" y="-15" on="0"/>
        <pt x="1046" y="-15" on="1"/>
        <pt x="996" y="-15" on="0"/>
        <pt x="919" y="15" on="0"/>
        <pt x="893" y="40" on="1"/>
        <pt x="844" y="-190" on="1"/>
        <pt x="745" y="-190" on="1"/>
        <pt x="899" y="532" on="1"/>
        <pt x="996" y="532" on="1"/>
        <pt x="980" y="457" on="1"/>
        <pt x="1014" y="494" on="0"/>
        <pt x="1102" y="544" on="0"/>
      </contour>
      <contour>
        <pt x="1123" y="462" on="1"/>
        <pt x="1080" y="462" on="0"/>
        <pt x="1000" y="421" on="0"/>
        <pt x="967" y="386" on="1"/>
        <pt x="912" y="128" on="1"/>
        <pt x="932" y="103" on="0"/>
        <pt x="1000" y="68" on="0"/>
        <pt x="1043" y="68" on="1"/>
        <pt x="1090" y="68" on="0"/>
        <pt x="1166" y="111" on="0"/>
        <pt x="1218" y="183" on="0"/>
        <pt x="1246" y="276" on="0"/>
        <pt x="1246" y="325" on="1"/>
        <pt x="1246" y="396" on="0"/>
        <pt x="1177" y="462" on="0"/>
      </contour>
    </TTGlyph>
    <TTGlyph name="Racute" xMin="58" yMin="0" xMax="735" yMax="962">
      <component glyphName="R" x="0" y="0" flags="0x204"/>
      <component glyphName="acute" x="211" y="168" flags="0x4"/>
    </TTGlyph>
    <TTGlyph name="Racute.sc" xMin="59" yMin="0" xMax="653" yMax="844">
      <component glyphName="racute.sc" x="0" y="0" flags="0x204"/>
    </TTGlyph>
    <TTGlyph name="Rcaron" xMin="58" yMin="0" xMax="735" yMax="972">
      <component glyphName="R" x="0" y="0" flags="0x204"/>
      <component glyphName="caron" x="158" y="168" flags="0x4"/>
    </TTGlyph>
    <TTGlyph name="Rcaron.sc" xMin="59" yMin="0" xMax="657" yMax="854">
      <component glyphName="rcaron.sc" x="0" y="0" flags="0x204"/>
    </TTGlyph>
    <TTGlyph name="S" xMin="44" yMin="-15" xMax="696" yMax="715">
      <contour>
        <pt x="66" y="178" on="1"/>
        <pt x="121" y="135" on="0"/>
        <pt x="284" y="76" on="0"/>
        <pt x="368" y="76" on="1"/>
        <pt x="455" y="76" on="0"/>
        <pt x="539" y="140" on="0"/>
        <pt x="539" y="189" on="1"/>
        <pt x="539" y="214" on="0"/>
        <pt x="518" y="248" on="0"/>
        <pt x="474" y="274" on="0"/>
        <pt x="405" y="299" on="0"/>
        <pt x="356" y="314" on="1"/>
        <pt x="313" y="327" on="0"/>
        <pt x="233" y="356" on="0"/>
        <pt x="173" y="398" on="0"/>
        <pt x="136" y="458" on="0"/>
        <pt x="136" y="502" on="1"/>
        <pt x="136" y="548" on="0"/>
        <pt x="172" y="626" on="0"/>
        <pt x="241" y="683" on="0"/>
        <pt x="346" y="715" on="0"/>
        <pt x="415" y="715" on="1"/>
        <pt x="502" y="715" on="0"/>
        <pt x="645" y="667" on="0"/>
        <pt x="696" y="636" on="1"/>
        <pt x="676" y="539" on="1"/>
        <pt x="675" y="539" on="1"/>
        <pt x="621" y="576" on="0"/>
        <pt x="481" y="624" on="0"/>
        <pt x="409" y="624" on="1"/>
        <pt x="320" y="624" on="0"/>
        <pt x="237" y="560" on="0"/>
        <pt x="237" y="514" on="1"/>
        <pt x="237" y="466" on="0"/>
        <pt x="323" y="424" on="0"/>
        <pt x="408" y="398" on="1"/>
        <pt x="458" y="382" on="0"/>
        <pt x="544" y="350" on="0"/>
        <pt x="606" y="306" on="0"/>
        <pt x="641" y="243" on="0"/>
        <pt x="641" y="197" on="1"/>
        <pt x="641" y="154" on="0"/>
        <pt x="607" y="76" on="0"/>
        <pt x="539" y="19" on="0"/>
        <pt x="435" y="-15" on="0"/>
        <pt x="365" y="-15" on="1"/>
        <pt x="265" y="-15" on="0"/>
        <pt x="101" y="39" on="0"/>
        <pt x="44" y="78" on="1"/>
        <pt x="65" y="178" on="1"/>
      </contour>
    </TTGlyph>
    <TTGlyph name="S.sc" xMin="41" yMin="-16" xMax="607" yMax="598">
      <component glyphName="s.sc" x="0" y="0" flags="0x204"/>
    </TTGlyph>
    <TTGlyph name="Sacute" xMin="44" yMin="-15" xMax="713" yMax="977">
      <component glyphName="S" x="0" y="0" flags="0x204"/>
      <component glyphName="acute" x="200" y="183" flags="0x4"/>
    </TTGlyph>
    <TTGlyph name="Sacute.sc" xMin="41" yMin="-16" xMax="644" yMax="860">
      <component glyphName="sacute.sc" x="0" y="0" flags="0x204"/>
    </TTGlyph>
    <TTGlyph name="Scaron" xMin="44" yMin="-15" xMax="717" yMax="987">
      <component glyphName="S" x="0" y="0" flags="0x204"/>
      <component glyphName="caron" x="147" y="183" flags="0x4"/>
    </TTGlyph>
    <TTGlyph name="Scaron.sc" xMin="41" yMin="-16" xMax="648" yMax="870">
      <component glyphName="scaron.sc" x="0" y="0" flags="0x204"/>
    </TTGlyph>
    <TTGlyph name="Scedilla" xMin="44" yMin="-188" xMax="696" yMax="715">
      <contour>
        <pt x="66" y="178" on="1"/>
        <pt x="121" y="135" on="0"/>
        <pt x="284" y="76" on="0"/>
        <pt x="368" y="76" on="1"/>
        <pt x="455" y="76" on="0"/>
        <pt x="539" y="140" on="0"/>
        <pt x="539" y="189" on="1"/>
        <pt x="539" y="214" on="0"/>
        <pt x="518" y="248" on="0"/>
        <pt x="474" y="274" on="0"/>
        <pt x="405" y="299" on="0"/>
        <pt x="356" y="314" on="1"/>
        <pt x="313" y="327" on="0"/>
        <pt x="233" y="356" on="0"/>
        <pt x="173" y="398" on="0"/>
        <pt x="136" y="458" on="0"/>
        <pt x="136" y="502" on="1"/>
        <pt x="136" y="548" on="0"/>
        <pt x="172" y="626" on="0"/>
        <pt x="241" y="683" on="0"/>
        <pt x="346" y="715" on="0"/>
        <pt x="415" y="715" on="1"/>
        <pt x="502" y="715" on="0"/>
        <pt x="645" y="667" on="0"/>
        <pt x="696" y="636" on="1"/>
        <pt x="676" y="539" on="1"/>
        <pt x="675" y="539" on="1"/>
        <pt x="621" y="576" on="0"/>
        <pt x="481" y="624" on="0"/>
        <pt x="409" y="624" on="1"/>
        <pt x="320" y="624" on="0"/>
        <pt x="237" y="560" on="0"/>
        <pt x="237" y="514" on="1"/>
        <pt x="237" y="466" on="0"/>
        <pt x="323" y="424" on="0"/>
        <pt x="408" y="398" on="1"/>
        <pt x="458" y="382" on="0"/>
        <pt x="544" y="350" on="0"/>
        <pt x="606" y="306" on="0"/>
        <pt x="641" y="243" on="0"/>
        <pt x="641" y="197" on="1"/>
        <pt x="641" y="156" on="0"/>
        <pt x="610" y="81" on="0"/>
        <pt x="548" y="25" on="0"/>
        <pt x="454" y="-11" on="0"/>
        <pt x="391" y="-14" on="1"/>
        <pt x="255" y="-188" on="1"/>
        <pt x="129" y="-188" on="1"/>
        <pt x="131" y="-183" on="1"/>
        <pt x="306" y="-12" on="1"/>
        <pt x="226" y="-5" on="0"/>
        <pt x="93" y="45" on="0"/>
        <pt x="44" y="78" on="1"/>
        <pt x="65" y="178" on="1"/>
      </contour>
    </TTGlyph>
    <TTGlyph name="Scedilla.sc" xMin="41" yMin="-188" xMax="607" yMax="598">
      <component glyphName="scedilla.sc" x="0" y="0" flags="0x204"/>
    </TTGlyph>
    <TTGlyph name="T" xMin="111" yMin="0" xMax="747" yMax="700">
      <contour>
        <pt x="740" y="606" on="1"/>
        <pt x="480" y="606" on="1"/>
        <pt x="352" y="0" on="1"/>
        <pt x="249" y="0" on="1"/>
        <pt x="378" y="606" on="1"/>
        <pt x="111" y="606" on="1"/>
        <pt x="140" y="700" on="1"/>
        <pt x="747" y="700" on="1"/>
      </contour>
    </TTGlyph>
    <TTGlyph name="T.sc" xMin="94" yMin="0" xMax="667" yMax="582">
      <component glyphName="t.sc" x="0" y="0" flags="0x204"/>
    </TTGlyph>
    <TTGlyph name="Tcaron" xMin="111" yMin="0" xMax="747" yMax="972">
      <component glyphName="T" x="0" y="0" flags="0x204"/>
      <component glyphName="caron" x="141" y="168" flags="0x4"/>
    </TTGlyph>
    <TTGlyph name="Tcaron.sc" xMin="94" yMin="0" xMax="681" yMax="854">
      <component glyphName="tcaron.sc" x="0" y="0" flags="0x204"/>
    </TTGlyph>
    <TTGlyph name="Thorn" xMin="58" yMin="0" xMax="721" yMax="700">
      <contour>
        <pt x="207" y="700" on="1"/>
        <pt x="309" y="700" on="1"/>
        <pt x="286" y="591" on="1"/>
        <pt x="479" y="591" on="1"/>
        <pt x="606" y="591" on="0"/>
        <pt x="721" y="476" on="0"/>
        <pt x="721" y="386" on="1"/>
        <pt x="721" y="329" on="0"/>
        <pt x="683" y="228" on="0"/>
        <pt x="608" y="155" on="0"/>
        <pt x="496" y="113" on="0"/>
        <pt x="423" y="113" on="1"/>
        <pt x="185" y="113" on="1"/>
        <pt x="160" y="0" on="1"/>
        <pt x="58" y="0" on="1"/>
      </contour>
      <contour>
        <pt x="267" y="497" on="1"/>
        <pt x="204" y="208" on="1"/>
        <pt x="420" y="208" on="1"/>
        <pt x="519" y="208" on="0"/>
        <pt x="617" y="307" on="0"/>
        <pt x="617" y="380" on="1"/>
        <pt x="617" y="434" on="0"/>
        <pt x="550" y="497" on="0"/>
        <pt x="475" y="497" on="1"/>
      </contour>
    </TTGlyph>
    <TTGlyph name="Thorn.sc" xMin="59" yMin="0" xMax="631" yMax="582">
      <component glyphName="thorn.sc" x="0" y="0" flags="0x204"/>
    </TTGlyph>
    <TTGlyph name="U" xMin="99" yMin="-16" xMax="800" yMax="700">
      <contour>
        <pt x="373" y="-16" on="1"/>
        <pt x="313" y="-16" on="0"/>
        <pt x="211" y="10" on="0"/>
        <pt x="139" y="63" on="0"/>
        <pt x="99" y="145" on="0"/>
        <pt x="99" y="200" on="1"/>
        <pt x="99" y="224" on="0"/>
        <pt x="106" y="272" on="0"/>
        <pt x="112" y="301" on="1"/>
        <pt x="197" y="700" on="1"/>
        <pt x="299" y="700" on="1"/>
        <pt x="213" y="293" on="1"/>
        <pt x="208" y="270" on="0"/>
        <pt x="203" y="232" on="0"/>
        <pt x="203" y="213" on="1"/>
        <pt x="203" y="143" on="0"/>
        <pt x="300" y="78" on="0"/>
        <pt x="376" y="78" on="1"/>
        <pt x="469" y="78" on="0"/>
        <pt x="584" y="167" on="0"/>
        <pt x="606" y="268" on="1"/>
        <pt x="697" y="700" on="1"/>
        <pt x="800" y="700" on="1"/>
        <pt x="705" y="254" on="1"/>
        <pt x="675" y="113" on="0"/>
        <pt x="505" y="-16" on="0"/>
      </contour>
    </TTGlyph>
    <TTGlyph name="U.sc" xMin="91" yMin="-16" xMax="702" yMax="582">
      <component glyphName="u.sc" x="0" y="0" flags="0x204"/>
    </TTGlyph>
    <TTGlyph name="Uacute" xMin="99" yMin="-16" xMax="800" yMax="938">
      <component glyphName="U" x="0" y="0" flags="0x204"/>
      <component glyphName="acute" x="235" y="144" flags="0x4"/>
    </TTGlyph>
    <TTGlyph name="Uacute.sc" xMin="91" yMin="-16" xMax="702" yMax="820">
      <component glyphName="uacute.sc" x="0" y="0" flags="0x204"/>
    </TTGlyph>
    <TTGlyph name="Ubreve" xMin="99" yMin="-16" xMax="800" yMax="950">
      <component glyphName="U" x="0" y="0" flags="0x204"/>
      <component glyphName="breve" x="182" y="144" flags="0x4"/>
    </TTGlyph>
    <TTGlyph name="Ubreve.sc" xMin="91" yMin="-16" xMax="702" yMax="832">
      <component glyphName="ubreve.sc" x="0" y="0" flags="0x204"/>
    </TTGlyph>
    <TTGlyph name="Ucircumflex" xMin="99" yMin="-16" xMax="800" yMax="972">
      <component glyphName="U" x="0" y="0" flags="0x204"/>
      <component glyphName="circumflex" x="187" y="168" flags="0x4"/>
    </TTGlyph>
    <TTGlyph name="Ucircumflex.sc" xMin="91" yMin="-16" xMax="702" yMax="854">
      <component glyphName="ucircumflex.sc" x="0" y="0" flags="0x204"/>
    </TTGlyph>
    <TTGlyph name="Udieresis" xMin="99" yMin="-16" xMax="800" yMax="912">
      <component glyphName="U" x="0" y="0" flags="0x204"/>
      <component glyphName="dieresis" x="187" y="168" flags="0x4"/>
    </TTGlyph>
    <TTGlyph name="Udieresis.sc" xMin="91" yMin="-16" xMax="702" yMax="794">
      <component glyphName="udieresis.sc" x="0" y="0" flags="0x204"/>
    </TTGlyph>
    <TTGlyph name="Ugrave" xMin="99" yMin="-16" xMax="800" yMax="938">
      <component glyphName="U" x="0" y="0" flags="0x204"/>
      <component glyphName="grave" x="128" y="144" flags="0x4"/>
    </TTGlyph>
    <TTGlyph name="Ugrave.sc" xMin="91" yMin="-16" xMax="702" yMax="820">
      <component glyphName="ugrave.sc" x="0" y="0" flags="0x204"/>
    </TTGlyph>
    <TTGlyph name="Uhungarumlaut" xMin="99" yMin="-16" xMax="848" yMax="962">
      <component glyphName="U" x="0" y="0" flags="0x204"/>
      <component glyphName="hungarumlaut" x="243" y="168" flags="0x4"/>
    </TTGlyph>
    <TTGlyph name="Uhungarumlaut.sc" xMin="91" yMin="-16" xMax="754" yMax="844">
      <component glyphName="uhungarumlaut.sc" x="0" y="0" flags="0x204"/>
    </TTGlyph>
    <TTGlyph name="Umacron" xMin="99" yMin="-16" xMax="800" yMax="891">
      <component glyphName="U" x="0" y="0" flags="0x204"/>
      <component glyphName="macron" x="187" y="168" flags="0x4"/>
    </TTGlyph>
    <TTGlyph name="Umacron.sc" xMin="91" yMin="-16" xMax="702" yMax="773">
      <component glyphName="umacron.sc" x="0" y="0" flags="0x204"/>
    </TTGlyph>
    <TTGlyph name="Uogonek" xMin="99" yMin="-295" xMax="800" yMax="700">
      <contour>
        <pt x="424" y="-270" on="1"/>
        <pt x="400" y="-283" on="0"/>
        <pt x="348" y="-295" on="0"/>
        <pt x="320" y="-295" on="1"/>
        <pt x="260" y="-295" on="0"/>
        <pt x="195" y="-241" on="0"/>
        <pt x="195" y="-199" on="1"/>
        <pt x="195" y="-153" on="0"/>
        <pt x="264" y="-70" on="0"/>
        <pt x="327" y="-21" on="1"/>
        <pt x="335" y="-15" on="1"/>
        <pt x="230" y="-8" on="0"/>
        <pt x="99" y="99" on="0"/>
        <pt x="99" y="200" on="1"/>
        <pt x="99" y="224" on="0"/>
        <pt x="106" y="272" on="0"/>
        <pt x="112" y="301" on="1"/>
        <pt x="197" y="700" on="1"/>
        <pt x="299" y="700" on="1"/>
        <pt x="213" y="293" on="1"/>
        <pt x="208" y="270" on="0"/>
        <pt x="203" y="232" on="0"/>
        <pt x="203" y="213" on="1"/>
        <pt x="203" y="143" on="0"/>
        <pt x="300" y="78" on="0"/>
        <pt x="376" y="78" on="1"/>
        <pt x="469" y="78" on="0"/>
        <pt x="584" y="167" on="0"/>
        <pt x="606" y="268" on="1"/>
        <pt x="697" y="700" on="1"/>
        <pt x="800" y="700" on="1"/>
        <pt x="705" y="254" on="1"/>
        <pt x="680" y="132" on="0"/>
        <pt x="545" y="3" on="0"/>
        <pt x="443" y="-11" on="1"/>
        <pt x="381" y="-62" on="1"/>
        <pt x="330" y="-104" on="0"/>
        <pt x="287" y="-156" on="0"/>
        <pt x="287" y="-179" on="1"/>
        <pt x="287" y="-198" on="0"/>
        <pt x="316" y="-220" on="0"/>
        <pt x="346" y="-220" on="1"/>
        <pt x="368" y="-220" on="0"/>
        <pt x="415" y="-208" on="0"/>
        <pt x="440" y="-195" on="1"/>
      </contour>
    </TTGlyph>
    <TTGlyph name="Uogonek.sc" xMin="91" yMin="-288" xMax="702" yMax="582">
      <component glyphName="uogonek.sc" x="0" y="0" flags="0x204"/>
    </TTGlyph>
    <TTGlyph name="Uring" xMin="99" yMin="-16" xMax="800" yMax="1043">
      <component glyphName="U" x="0" y="0" flags="0x204"/>
      <component glyphName="ring" x="126" y="144" flags="0x4"/>
    </TTGlyph>
    <TTGlyph name="Uring.sc" xMin="91" yMin="-16" xMax="702" yMax="925">
      <component glyphName="uring.sc" x="0" y="0" flags="0x204"/>
    </TTGlyph>
    <TTGlyph name="V" xMin="136" yMin="0" xMax="819" yMax="700">
      <contour>
        <pt x="235" y="0" on="1"/>
        <pt x="136" y="700" on="1"/>
        <pt x="243" y="700" on="1"/>
        <pt x="326" y="98" on="1"/>
        <pt x="365" y="98" on="1"/>
        <pt x="703" y="700" on="1"/>
        <pt x="819" y="700" on="1"/>
        <pt x="423" y="0" on="1"/>
      </contour>
    </TTGlyph>
    <TTGlyph name="V.sc" xMin="117" yMin="0" xMax="712" yMax="582">
      <component glyphName="v.sc" x="0" y="0" flags="0x204"/>
    </TTGlyph>
    <TTGlyph name="W" xMin="151" yMin="0" xMax="1197" yMax="700">
      <contour>
        <pt x="194" y="0" on="1"/>
        <pt x="151" y="700" on="1"/>
        <pt x="254" y="700" on="1"/>
        <pt x="288" y="106" on="1"/>
        <pt x="314" y="106" on="1"/>
        <pt x="615" y="700" on="1"/>
        <pt x="725" y="700" on="1"/>
        <pt x="783" y="106" on="1"/>
        <pt x="809" y="106" on="1"/>
        <pt x="1087" y="700" on="1"/>
        <pt x="1197" y="700" on="1"/>
        <pt x="859" y="0" on="1"/>
        <pt x="699" y="0" on="1"/>
        <pt x="699" y="0" on="0"/>
        <pt x="683" y="174" on="0"/>
        <pt x="664" y="382" on="0"/>
        <pt x="648" y="556" on="0"/>
        <pt x="648" y="556" on="1"/>
        <pt x="638" y="556" on="1"/>
        <pt x="356" y="0" on="1"/>
      </contour>
    </TTGlyph>
    <TTGlyph name="W.sc" xMin="120" yMin="0" xMax="1043" yMax="582">
      <component glyphName="w.sc" x="0" y="0" flags="0x204"/>
    </TTGlyph>
    <TTGlyph name="Wacute" xMin="151" yMin="0" xMax="1197" yMax="962">
      <component glyphName="W" x="0" y="0" flags="0x204"/>
      <component glyphName="acute" x="422" y="168" flags="0x4"/>
    </TTGlyph>
    <TTGlyph name="Wacute.sc" xMin="120" yMin="0" xMax="1043" yMax="844">
      <component glyphName="wacute.sc" x="0" y="0" flags="0x204"/>
    </TTGlyph>
    <TTGlyph name="Wcircumflex" xMin="151" yMin="0" xMax="1197" yMax="972">
      <component glyphName="W" x="0" y="0" flags="0x204"/>
      <component glyphName="circumflex" x="353" y="168" flags="0x4"/>
    </TTGlyph>
    <TTGlyph name="Wcircumflex.sc" xMin="120" yMin="0" xMax="1043" yMax="854">
      <component glyphName="wcircumflex.sc" x="0" y="0" flags="0x204"/>
    </TTGlyph>
    <TTGlyph name="Wdieresis" xMin="151" yMin="0" xMax="1197" yMax="912">
      <component glyphName="W" x="0" y="0" flags="0x204"/>
      <component glyphName="dieresis" x="353" y="168" flags="0x4"/>
    </TTGlyph>
    <TTGlyph name="Wdieresis.sc" xMin="120" yMin="0" xMax="1043" yMax="794">
      <component glyphName="wdieresis.sc" x="0" y="0" flags="0x204"/>
    </TTGlyph>
    <TTGlyph name="Wgrave" xMin="151" yMin="0" xMax="1197" yMax="962">
      <component glyphName="W" x="0" y="0" flags="0x204"/>
      <component glyphName="grave" x="287" y="168" flags="0x4"/>
    </TTGlyph>
    <TTGlyph name="Wgrave.sc" xMin="120" yMin="0" xMax="1043" yMax="844">
      <component glyphName="wgrave.sc" x="0" y="0" flags="0x204"/>
    </TTGlyph>
    <TTGlyph name="X" xMin="-4" yMin="0" xMax="803" yMax="700">
      <contour>
        <pt x="-4" y="1" on="1"/>
        <pt x="349" y="373" on="1"/>
        <pt x="164" y="699" on="1"/>
        <pt x="164" y="700" on="1"/>
        <pt x="275" y="700" on="1"/>
        <pt x="425" y="432" on="1"/>
        <pt x="677" y="700" on="1"/>
        <pt x="803" y="700" on="1"/>
        <pt x="803" y="699" on="1"/>
        <pt x="475" y="353" on="1"/>
        <pt x="675" y="1" on="1"/>
        <pt x="675" y="0" on="1"/>
        <pt x="563" y="0" on="1"/>
        <pt x="398" y="294" on="1"/>
        <pt x="122" y="0" on="1"/>
        <pt x="-4" y="0" on="1"/>
      </contour>
    </TTGlyph>
    <TTGlyph name="X.sc" xMin="-5" yMin="0" xMax="694" yMax="582">
      <component glyphName="x.sc" x="0" y="0" flags="0x204"/>
    </TTGlyph>
    <TTGlyph name="Y" xMin="118" yMin="0" xMax="818" yMax="700">
      <contour>
        <pt x="693" y="700" on="1"/>
        <pt x="818" y="700" on="1"/>
        <pt x="421" y="229" on="1"/>
        <pt x="372" y="0" on="1"/>
        <pt x="269" y="0" on="1"/>
        <pt x="318" y="230" on="1"/>
        <pt x="118" y="700" on="1"/>
        <pt x="225" y="700" on="1"/>
        <pt x="381" y="332" on="1"/>
        <pt x="386" y="332" on="1"/>
      </contour>
    </TTGlyph>
    <TTGlyph name="Y.sc" xMin="95" yMin="0" xMax="714" yMax="582">
      <component glyphName="y.sc" x="0" y="0" flags="0x204"/>
    </TTGlyph>
    <TTGlyph name="Yacute" xMin="118" yMin="0" xMax="818" yMax="938">
      <component glyphName="Y" x="0" y="0" flags="0x204"/>
      <component glyphName="acute" x="200" y="144" flags="0x4"/>
    </TTGlyph>
    <TTGlyph name="Yacute.sc" xMin="95" yMin="0" xMax="714" yMax="820">
      <component glyphName="yacute.sc" x="0" y="0" flags="0x204"/>
    </TTGlyph>
    <TTGlyph name="Ycircumflex" xMin="118" yMin="0" xMax="818" yMax="972">
      <component glyphName="Y" x="0" y="0" flags="0x204"/>
      <component glyphName="circumflex" x="152" y="168" flags="0x4"/>
    </TTGlyph>
    <TTGlyph name="Ycircumflex.sc" xMin="95" yMin="0" xMax="714" yMax="854">
      <component glyphName="ycircumflex.sc" x="0" y="0" flags="0x204"/>
    </TTGlyph>
    <TTGlyph name="Ydieresis" xMin="118" yMin="0" xMax="818" yMax="912">
      <component glyphName="Y" x="0" y="0" flags="0x204"/>
      <component glyphName="dieresis" x="152" y="168" flags="0x4"/>
    </TTGlyph>
    <TTGlyph name="Ydieresis.sc" xMin="95" yMin="0" xMax="714" yMax="794">
      <component glyphName="ydieresis.sc" x="0" y="0" flags="0x204"/>
    </TTGlyph>
    <TTGlyph name="Ygrave" xMin="118" yMin="0" xMax="818" yMax="938">
      <component glyphName="Y" x="0" y="0" flags="0x204"/>
      <component glyphName="grave" x="93" y="144" flags="0x4"/>
    </TTGlyph>
    <TTGlyph name="Ygrave.sc" xMin="95" yMin="0" xMax="714" yMax="820">
      <component glyphName="ygrave.sc" x="0" y="0" flags="0x204"/>
    </TTGlyph>
    <TTGlyph name="Z" xMin="18" yMin="0" xMax="761" yMax="700">
      <contour>
        <pt x="18" y="0" on="1"/>
        <pt x="39" y="99" on="1"/>
        <pt x="602" y="608" on="1"/>
        <pt x="158" y="608" on="1"/>
        <pt x="185" y="700" on="1"/>
        <pt x="761" y="700" on="1"/>
        <pt x="742" y="610" on="1"/>
        <pt x="168" y="92" on="1"/>
        <pt x="634" y="92" on="1"/>
        <pt x="614" y="0" on="1"/>
      </contour>
    </TTGlyph>
    <TTGlyph name="Z.sc" xMin="28" yMin="0" xMax="667" yMax="582">
      <component glyphName="z.sc" x="0" y="0" flags="0x204"/>
    </TTGlyph>
    <TTGlyph name="Zacute" xMin="18" yMin="0" xMax="761" yMax="962">
      <component glyphName="Z" x="0" y="0" flags="0x204"/>
      <component glyphName="acute" x="205" y="168" flags="0x4"/>
    </TTGlyph>
    <TTGlyph name="Zacute.sc" xMin="28" yMin="0" xMax="667" yMax="844">
      <component glyphName="zacute.sc" x="0" y="0" flags="0x204"/>
    </TTGlyph>
    <TTGlyph name="Zcaron" xMin="18" yMin="0" xMax="761" yMax="972">
      <component glyphName="Z" x="0" y="0" flags="0x204"/>
      <component glyphName="caron" x="153" y="168" flags="0x4"/>
    </TTGlyph>
    <TTGlyph name="Zcaron.sc" xMin="28" yMin="0" xMax="667" yMax="854">
      <component glyphName="zcaron.sc" x="0" y="0" flags="0x204"/>
    </TTGlyph>
    <TTGlyph name="Zdotaccent" xMin="18" yMin="0" xMax="761" yMax="916">
      <component glyphName="Z" x="0" y="0" flags="0x204"/>
      <component glyphName="dotaccent" x="152" y="168" flags="0x4"/>
    </TTGlyph>
    <TTGlyph name="Zdotaccent.sc" xMin="28" yMin="0" xMax="667" yMax="798">
      <component glyphName="zdotaccent.sc" x="0" y="0" flags="0x204"/>
    </TTGlyph>
    <TTGlyph name="a" xMin="37" yMin="-14" xMax="533" yMax="547">
      <contour>
        <pt x="316" y="463" on="1"/>
        <pt x="272" y="463" on="0"/>
        <pt x="169" y="435" on="0"/>
        <pt x="124" y="407" on="1"/>
        <pt x="123" y="407" on="1"/>
        <pt x="141" y="501" on="1"/>
        <pt x="185" y="523" on="0"/>
        <pt x="284" y="547" on="0"/>
        <pt x="337" y="547" on="1"/>
        <pt x="436" y="547" on="0"/>
        <pt x="533" y="462" on="0"/>
        <pt x="533" y="387" on="1"/>
        <pt x="533" y="370" on="0"/>
        <pt x="528" y="331" on="0"/>
        <pt x="523" y="307" on="1"/>
        <pt x="458" y="0" on="1"/>
        <pt x="370" y="0" on="1"/>
        <pt x="383" y="74" on="1"/>
        <pt x="345" y="34" on="0"/>
        <pt x="248" y="-14" on="0"/>
        <pt x="191" y="-14" on="1"/>
        <pt x="119" y="-14" on="0"/>
        <pt x="37" y="61" on="0"/>
        <pt x="37" y="121" on="1"/>
        <pt x="37" y="148" on="0"/>
        <pt x="57" y="209" on="0"/>
        <pt x="83" y="236" on="1"/>
        <pt x="123" y="276" on="0"/>
        <pt x="273" y="317" on="0"/>
        <pt x="395" y="317" on="1"/>
        <pt x="403" y="317" on="0"/>
        <pt x="420" y="317" on="0"/>
        <pt x="428" y="317" on="1"/>
        <pt x="429" y="321" on="1"/>
        <pt x="433" y="340" on="0"/>
        <pt x="436" y="364" on="0"/>
        <pt x="436" y="377" on="1"/>
        <pt x="436" y="414" on="0"/>
        <pt x="378" y="463" on="0"/>
      </contour>
      <contour>
        <pt x="134" y="133" on="1"/>
        <pt x="134" y="102" on="0"/>
        <pt x="177" y="62" on="0"/>
        <pt x="221" y="62" on="1"/>
        <pt x="268" y="62" on="0"/>
        <pt x="356" y="109" on="0"/>
        <pt x="390" y="139" on="1"/>
        <pt x="414" y="252" on="1"/>
        <pt x="313" y="253" on="0"/>
        <pt x="189" y="226" on="0"/>
        <pt x="161" y="198" on="1"/>
        <pt x="145" y="182" on="0"/>
        <pt x="134" y="149" on="0"/>
      </contour>
    </TTGlyph>
    <TTGlyph name="a.sc" xMin="2" yMin="0" xMax="626" yMax="583">
      <contour>
        <pt x="528" y="0" on="1"/>
        <pt x="507" y="140" on="1"/>
        <pt x="192" y="140" on="1"/>
        <pt x="110" y="0" on="1"/>
        <pt x="2" y="0" on="1"/>
        <pt x="348" y="583" on="1"/>
        <pt x="529" y="583" on="1"/>
        <pt x="626" y="0" on="1"/>
      </contour>
      <contour>
        <pt x="402" y="496" on="1"/>
        <pt x="242" y="223" on="1"/>
        <pt x="494" y="223" on="1"/>
        <pt x="452" y="496" on="1"/>
      </contour>
    </TTGlyph>
    <TTGlyph name="aacute" xMin="37" yMin="-14" xMax="603" yMax="809">
      <component glyphName="a" x="0" y="0" flags="0x204"/>
      <component glyphName="acute" x="90" y="15" flags="0x4"/>
    </TTGlyph>
    <TTGlyph name="aacute.sc" xMin="2" yMin="0" xMax="696" yMax="845">
      <component glyphName="a.sc" x="0" y="0" flags="0x204"/>
      <component glyphName="acute" x="183" y="51" flags="0x4"/>
    </TTGlyph>
    <TTGlyph name="abreve" xMin="37" yMin="-14" xMax="567" yMax="821">
      <component glyphName="a" x="0" y="0" flags="0x204"/>
      <component glyphName="breve" x="37" y="15" flags="0x4"/>
    </TTGlyph>
    <TTGlyph name="abreve.sc" xMin="2" yMin="0" xMax="660" yMax="857">
      <component glyphName="a.sc" x="0" y="0" flags="0x204"/>
      <component glyphName="breve" x="130" y="51" flags="0x4"/>
    </TTGlyph>
    <TTGlyph name="acircumflex" xMin="37" yMin="-14" xMax="571" yMax="819">
      <component glyphName="a" x="0" y="0" flags="0x204"/>
      <component glyphName="circumflex" x="37" y="15" flags="0x4"/>
    </TTGlyph>
    <TTGlyph name="acircumflex.sc" xMin="2" yMin="0" xMax="664" yMax="855">
      <component glyphName="a.sc" x="0" y="0" flags="0x204"/>
      <component glyphName="circumflex" x="130" y="51" flags="0x4"/>
    </TTGlyph>
    <TTGlyph name="acute" xMin="216" yMin="630" xMax="513" yMax="794">
      <contour>
        <pt x="311" y="630" on="1"/>
        <pt x="216" y="630" on="1"/>
        <pt x="379" y="794" on="1"/>
        <pt x="513" y="794" on="1"/>
        <pt x="511" y="789" on="1"/>
      </contour>
    </TTGlyph>
    <TTGlyph name="adieresis" xMin="37" yMin="-14" xMax="566" yMax="759">
      <component glyphName="a" x="0" y="0" flags="0x204"/>
      <component glyphName="dieresis" x="36" y="15" flags="0x4"/>
    </TTGlyph>
    <TTGlyph name="adieresis.sc" xMin="2" yMin="0" xMax="660" yMax="795">
      <component glyphName="a.sc" x="0" y="0" flags="0x204"/>
      <component glyphName="dieresis" x="130" y="51" flags="0x4"/>
    </TTGlyph>
    <TTGlyph name="ae" xMin="35" yMin="-14" xMax="908" yMax="547">
      <contour>
        <pt x="709" y="547" on="1"/>
        <pt x="800" y="547" on="0"/>
        <pt x="908" y="439" on="0"/>
        <pt x="908" y="346" on="1"/>
        <pt x="908" y="322" on="0"/>
        <pt x="900" y="273" on="0"/>
        <pt x="893" y="247" on="1"/>
        <pt x="510" y="247" on="1"/>
        <pt x="510" y="245" on="0"/>
        <pt x="510" y="240" on="0"/>
        <pt x="510" y="238" on="1"/>
        <pt x="508" y="221" on="1"/>
        <pt x="509" y="140" on="0"/>
        <pt x="600" y="68" on="0"/>
        <pt x="672" y="68" on="1"/>
        <pt x="726" y="68" on="0"/>
        <pt x="821" y="101" on="0"/>
        <pt x="861" y="127" on="1"/>
        <pt x="862" y="127" on="1"/>
        <pt x="843" y="36" on="1"/>
        <pt x="809" y="15" on="0"/>
        <pt x="718" y="-14" on="0"/>
        <pt x="660" y="-14" on="1"/>
        <pt x="582" y="-14" on="0"/>
        <pt x="468" y="45" on="0"/>
        <pt x="440" y="100" on="1"/>
        <pt x="389" y="51" on="0"/>
        <pt x="268" y="-13" on="0"/>
        <pt x="195" y="-13" on="1"/>
        <pt x="119" y="-13" on="0"/>
        <pt x="35" y="61" on="0"/>
        <pt x="35" y="121" on="1"/>
        <pt x="35" y="148" on="0"/>
        <pt x="55" y="208" on="0"/>
        <pt x="81" y="234" on="1"/>
        <pt x="121" y="274" on="0"/>
        <pt x="275" y="316" on="0"/>
        <pt x="401" y="316" on="1"/>
        <pt x="407" y="316" on="0"/>
        <pt x="419" y="316" on="0"/>
        <pt x="426" y="315" on="1"/>
        <pt x="431" y="337" on="0"/>
        <pt x="435" y="362" on="0"/>
        <pt x="435" y="377" on="1"/>
        <pt x="435" y="414" on="0"/>
        <pt x="377" y="463" on="0"/>
        <pt x="315" y="463" on="1"/>
        <pt x="270" y="463" on="0"/>
        <pt x="168" y="435" on="0"/>
        <pt x="123" y="407" on="1"/>
        <pt x="122" y="407" on="1"/>
        <pt x="140" y="501" on="1"/>
        <pt x="184" y="523" on="0"/>
        <pt x="283" y="547" on="0"/>
        <pt x="336" y="547" on="1"/>
        <pt x="411" y="547" on="0"/>
        <pt x="492" y="494" on="0"/>
        <pt x="509" y="457" on="1"/>
        <pt x="547" y="500" on="0"/>
        <pt x="651" y="547" on="0"/>
      </contour>
      <contour>
        <pt x="700" y="467" on="1"/>
        <pt x="637" y="466" on="0"/>
        <pt x="539" y="381" on="0"/>
        <pt x="520" y="312" on="1"/>
        <pt x="815" y="312" on="1"/>
        <pt x="816" y="321" on="0"/>
        <pt x="818" y="340" on="0"/>
        <pt x="818" y="350" on="1"/>
        <pt x="818" y="403" on="0"/>
        <pt x="760" y="468" on="0"/>
      </contour>
      <contour>
        <pt x="133" y="133" on="1"/>
        <pt x="133" y="101" on="0"/>
        <pt x="178" y="63" on="0"/>
        <pt x="221" y="63" on="1"/>
        <pt x="278" y="63" on="0"/>
        <pt x="376" y="120" on="0"/>
        <pt x="419" y="159" on="1"/>
        <pt x="416" y="172" on="0"/>
        <pt x="413" y="203" on="0"/>
        <pt x="413" y="219" on="1"/>
        <pt x="413" y="227" on="0"/>
        <pt x="414" y="243" on="0"/>
        <pt x="415" y="250" on="1"/>
        <pt x="311" y="250" on="0"/>
        <pt x="187" y="223" on="0"/>
        <pt x="159" y="196" on="1"/>
        <pt x="144" y="181" on="0"/>
        <pt x="133" y="149" on="0"/>
      </contour>
    </TTGlyph>
    <TTGlyph name="ae.sc" xMin="-24" yMin="0" xMax="1047" yMax="582">
      <contour>
        <pt x="971" y="84" on="1"/>
        <pt x="945" y="0" on="1"/>
        <pt x="471" y="0" on="1"/>
        <pt x="502" y="146" on="1"/>
        <pt x="214" y="146" on="1"/>
        <pt x="94" y="0" on="1"/>
        <pt x="-24" y="0" on="1"/>
        <pt x="459" y="582" on="1"/>
        <pt x="1047" y="582" on="1"/>
        <pt x="1042" y="499" on="1"/>
        <pt x="674" y="499" on="1"/>
        <pt x="640" y="337" on="1"/>
        <pt x="936" y="337" on="1"/>
        <pt x="919" y="256" on="1"/>
        <pt x="623" y="256" on="1"/>
        <pt x="586" y="84" on="1"/>
      </contour>
      <contour>
        <pt x="503" y="497" on="1"/>
        <pt x="282" y="228" on="1"/>
        <pt x="520" y="228" on="1"/>
        <pt x="577" y="497" on="1"/>
      </contour>
    </TTGlyph>
    <TTGlyph name="aeacute" xMin="35" yMin="-14" xMax="908" yMax="793">
      <component glyphName="ae" x="0" y="0" flags="0x204"/>
      <component glyphName="acute" x="279" y="-1" flags="0x4"/>
    </TTGlyph>
    <TTGlyph name="aeacute.sc" xMin="-24" yMin="0" xMax="1047" yMax="844">
      <component glyphName="ae.sc" x="0" y="0" flags="0x204"/>
      <component glyphName="acute" x="411" y="50" flags="0x4"/>
    </TTGlyph>
    <TTGlyph name="agrave" xMin="37" yMin="-14" xMax="533" yMax="809">
      <component glyphName="a" x="0" y="0" flags="0x204"/>
      <component glyphName="grave" x="-18" y="15" flags="0x4"/>
    </TTGlyph>
    <TTGlyph name="agrave.sc" xMin="2" yMin="0" xMax="626" yMax="845">
      <component glyphName="a.sc" x="0" y="0" flags="0x204"/>
      <component glyphName="grave" x="76" y="51" flags="0x4"/>
    </TTGlyph>
    <TTGlyph name="amacron" xMin="37" yMin="-14" xMax="565" yMax="738">
      <component glyphName="a" x="0" y="0" flags="0x204"/>
      <component glyphName="macron" x="36" y="15" flags="0x4"/>
    </TTGlyph>
    <TTGlyph name="amacron.sc" xMin="2" yMin="0" xMax="659" yMax="774">
      <component glyphName="a.sc" x="0" y="0" flags="0x204"/>
      <component glyphName="macron" x="130" y="51" flags="0x4"/>
    </TTGlyph>
    <TTGlyph name="ampersand" xMin="42" yMin="-16" xMax="794" yMax="700">
      <contour>
        <pt x="239" y="-16" on="1"/>
        <pt x="150" y="-16" on="0"/>
        <pt x="42" y="72" on="0"/>
        <pt x="42" y="150" on="1"/>
        <pt x="42" y="239" on="0"/>
        <pt x="187" y="368" on="0"/>
        <pt x="309" y="436" on="1"/>
        <pt x="324" y="444" on="1"/>
        <pt x="206" y="608" on="1"/>
        <pt x="225" y="700" on="1"/>
        <pt x="715" y="700" on="1"/>
        <pt x="711" y="615" on="1"/>
        <pt x="315" y="615" on="1"/>
        <pt x="578" y="247" on="1"/>
        <pt x="601" y="264" on="0"/>
        <pt x="659" y="310" on="0"/>
        <pt x="718" y="357" on="0"/>
        <pt x="774" y="402" on="0"/>
        <pt x="793" y="418" on="1"/>
        <pt x="794" y="418" on="1"/>
        <pt x="767" y="292" on="1"/>
        <pt x="758" y="284" on="0"/>
        <pt x="724" y="257" on="0"/>
        <pt x="684" y="225" on="0"/>
        <pt x="642" y="192" on="0"/>
        <pt x="625" y="179" on="1"/>
        <pt x="751" y="0" on="1"/>
        <pt x="642" y="0" on="1"/>
        <pt x="554" y="122" on="1"/>
        <pt x="469" y="58" on="0"/>
        <pt x="320" y="-16" on="0"/>
      </contour>
      <contour>
        <pt x="143" y="161" on="1"/>
        <pt x="143" y="118" on="0"/>
        <pt x="202" y="71" on="0"/>
        <pt x="249" y="71" on="1"/>
        <pt x="306" y="71" on="0"/>
        <pt x="426" y="133" on="0"/>
        <pt x="506" y="191" on="1"/>
        <pt x="373" y="376" on="1"/>
        <pt x="345" y="361" on="1"/>
        <pt x="248" y="307" on="0"/>
        <pt x="143" y="213" on="0"/>
      </contour>
    </TTGlyph>
    <TTGlyph name="ampersand.sc" xMin="38" yMin="-16" xMax="714" yMax="582">
      <contour>
        <pt x="635" y="582" on="1"/>
        <pt x="631" y="505" on="1"/>
        <pt x="290" y="505" on="1"/>
        <pt x="512" y="207" on="1"/>
        <pt x="533" y="221" on="0"/>
        <pt x="589" y="259" on="0"/>
        <pt x="645" y="298" on="0"/>
        <pt x="696" y="335" on="0"/>
        <pt x="713" y="348" on="1"/>
        <pt x="714" y="348" on="1"/>
        <pt x="689" y="232" on="1"/>
        <pt x="682" y="227" on="0"/>
        <pt x="651" y="206" on="0"/>
        <pt x="615" y="180" on="0"/>
        <pt x="575" y="152" on="0"/>
        <pt x="559" y="141" on="1"/>
        <pt x="667" y="0" on="1"/>
        <pt x="561" y="0" on="1"/>
        <pt x="489" y="92" on="1"/>
        <pt x="413" y="43" on="0"/>
        <pt x="277" y="-16" on="0"/>
        <pt x="211" y="-16" on="1"/>
        <pt x="130" y="-16" on="0"/>
        <pt x="38" y="59" on="0"/>
        <pt x="38" y="122" on="1"/>
        <pt x="38" y="194" on="0"/>
        <pt x="154" y="298" on="0"/>
        <pt x="258" y="352" on="1"/>
        <pt x="285" y="366" on="1"/>
        <pt x="185" y="499" on="1"/>
        <pt x="202" y="582" on="1"/>
      </contour>
      <contour>
        <pt x="135" y="133" on="1"/>
        <pt x="135" y="100" on="0"/>
        <pt x="179" y="66" on="0"/>
        <pt x="219" y="66" on="1"/>
        <pt x="265" y="66" on="0"/>
        <pt x="375" y="113" on="0"/>
        <pt x="442" y="158" on="1"/>
        <pt x="332" y="304" on="1"/>
        <pt x="311" y="293" on="1"/>
        <pt x="226" y="248" on="0"/>
        <pt x="135" y="175" on="0"/>
      </contour>
    </TTGlyph>
    <TTGlyph name="aogonek" xMin="37" yMin="-289" xMax="533" yMax="547">
      <contour>
        <pt x="316" y="463" on="1"/>
        <pt x="272" y="463" on="0"/>
        <pt x="169" y="435" on="0"/>
        <pt x="124" y="407" on="1"/>
        <pt x="123" y="407" on="1"/>
        <pt x="141" y="501" on="1"/>
        <pt x="185" y="523" on="0"/>
        <pt x="284" y="547" on="0"/>
        <pt x="337" y="547" on="1"/>
        <pt x="436" y="547" on="0"/>
        <pt x="533" y="462" on="0"/>
        <pt x="533" y="387" on="1"/>
        <pt x="533" y="370" on="0"/>
        <pt x="528" y="331" on="0"/>
        <pt x="523" y="307" on="1"/>
        <pt x="458" y="0" on="1"/>
        <pt x="390" y="-56" on="1"/>
        <pt x="339" y="-98" on="0"/>
        <pt x="296" y="-150" on="0"/>
        <pt x="296" y="-173" on="1"/>
        <pt x="296" y="-192" on="0"/>
        <pt x="325" y="-214" on="0"/>
        <pt x="355" y="-214" on="1"/>
        <pt x="377" y="-214" on="0"/>
        <pt x="424" y="-202" on="0"/>
        <pt x="449" y="-189" on="1"/>
        <pt x="433" y="-264" on="1"/>
        <pt x="409" y="-277" on="0"/>
        <pt x="357" y="-289" on="0"/>
        <pt x="329" y="-289" on="1"/>
        <pt x="269" y="-289" on="0"/>
        <pt x="204" y="-235" on="0"/>
        <pt x="204" y="-193" on="1"/>
        <pt x="204" y="-147" on="0"/>
        <pt x="273" y="-64" on="0"/>
        <pt x="336" y="-15" on="1"/>
        <pt x="373" y="14" on="1"/>
        <pt x="383" y="74" on="1"/>
        <pt x="346" y="34" on="0"/>
        <pt x="248" y="-14" on="0"/>
        <pt x="191" y="-14" on="1"/>
        <pt x="119" y="-14" on="0"/>
        <pt x="37" y="61" on="0"/>
        <pt x="37" y="121" on="1"/>
        <pt x="37" y="148" on="0"/>
        <pt x="57" y="209" on="0"/>
        <pt x="83" y="236" on="1"/>
        <pt x="123" y="276" on="0"/>
        <pt x="273" y="317" on="0"/>
        <pt x="395" y="317" on="1"/>
        <pt x="403" y="317" on="0"/>
        <pt x="420" y="317" on="0"/>
        <pt x="428" y="317" on="1"/>
        <pt x="429" y="321" on="1"/>
        <pt x="433" y="340" on="0"/>
        <pt x="436" y="364" on="0"/>
        <pt x="436" y="377" on="1"/>
        <pt x="436" y="414" on="0"/>
        <pt x="378" y="463" on="0"/>
      </contour>
      <contour>
        <pt x="134" y="133" on="1"/>
        <pt x="134" y="102" on="0"/>
        <pt x="177" y="62" on="0"/>
        <pt x="221" y="62" on="1"/>
        <pt x="268" y="62" on="0"/>
        <pt x="356" y="109" on="0"/>
        <pt x="390" y="139" on="1"/>
        <pt x="414" y="252" on="1"/>
        <pt x="313" y="253" on="0"/>
        <pt x="189" y="226" on="0"/>
        <pt x="161" y="198" on="1"/>
        <pt x="145" y="182" on="0"/>
        <pt x="134" y="149" on="0"/>
      </contour>
    </TTGlyph>
    <TTGlyph name="aogonek.sc" xMin="2" yMin="-289" xMax="626" yMax="583">
      <contour>
        <pt x="602" y="-263" on="1"/>
        <pt x="579" y="-276" on="0"/>
        <pt x="528" y="-289" on="0"/>
        <pt x="500" y="-289" on="1"/>
        <pt x="440" y="-289" on="0"/>
        <pt x="372" y="-235" on="0"/>
        <pt x="372" y="-192" on="1"/>
        <pt x="372" y="-149" on="0"/>
        <pt x="438" y="-66" on="0"/>
        <pt x="504" y="-15" on="1"/>
        <pt x="527" y="3" on="1"/>
        <pt x="507" y="140" on="1"/>
        <pt x="192" y="140" on="1"/>
        <pt x="110" y="0" on="1"/>
        <pt x="2" y="0" on="1"/>
        <pt x="348" y="583" on="1"/>
        <pt x="529" y="583" on="1"/>
        <pt x="626" y="0" on="1"/>
        <pt x="558" y="-56" on="1"/>
        <pt x="502" y="-102" on="0"/>
        <pt x="465" y="-152" on="0"/>
        <pt x="465" y="-173" on="1"/>
        <pt x="465" y="-192" on="0"/>
        <pt x="494" y="-214" on="0"/>
        <pt x="526" y="-214" on="1"/>
        <pt x="548" y="-214" on="0"/>
        <pt x="593" y="-202" on="0"/>
        <pt x="617" y="-189" on="1"/>
      </contour>
      <contour>
        <pt x="402" y="496" on="1"/>
        <pt x="242" y="223" on="1"/>
        <pt x="494" y="223" on="1"/>
        <pt x="452" y="496" on="1"/>
      </contour>
    </TTGlyph>
    <TTGlyph name="aring" xMin="37" yMin="-14" xMax="550" yMax="914">
      <component glyphName="a" x="0" y="0" flags="0x204"/>
      <component glyphName="ring" x="-19" y="15" flags="0x4"/>
    </TTGlyph>
    <TTGlyph name="aring.sc" xMin="2" yMin="0" xMax="643" yMax="950">
      <component glyphName="a.sc" x="0" y="0" flags="0x204"/>
      <component glyphName="ring" x="74" y="51" flags="0x4"/>
    </TTGlyph>
    <TTGlyph name="aringacute" xMin="37" yMin="-14" xMax="675" yMax="1147">
      <component glyphName="a" x="0" y="0" flags="0x204"/>
      <component glyphName="ring" x="-19" y="15" flags="0x4"/>
      <component glyphName="acute" x="162" y="353" flags="0x4"/>
    </TTGlyph>
    <TTGlyph name="aringacute.sc" xMin="2" yMin="0" xMax="768" yMax="1183">
      <component glyphName="a.sc" x="0" y="0" flags="0x204"/>
      <component glyphName="ring" x="74" y="51" flags="0x4"/>
      <component glyphName="acute" x="255" y="389" flags="0x4"/>
    </TTGlyph>
    <TTGlyph name="asciicircum" xMin="103" yMin="370" xMax="625" yMax="700">
      <contour>
        <pt x="509" y="700" on="1"/>
        <pt x="625" y="370" on="1"/>
        <pt x="527" y="370" on="1"/>
        <pt x="448" y="607" on="1"/>
        <pt x="397" y="607" on="1"/>
        <pt x="218" y="370" on="1"/>
        <pt x="103" y="370" on="1"/>
        <pt x="356" y="700" on="1"/>
      </contour>
    </TTGlyph>
    <TTGlyph name="asciicircum.tab" xMin="124" yMin="370" xMax="646" yMax="700">
      <component glyphName="asciicircum" x="21" y="0" flags="0x4"/>
    </TTGlyph>
    <TTGlyph name="asciitilde" xMin="90" yMin="246" xMax="677" yMax="454">
      <contour>
        <pt x="502" y="252" on="1"/>
        <pt x="468" y="252" on="0"/>
        <pt x="407" y="279" on="0"/>
        <pt x="366" y="305" on="1"/>
        <pt x="326" y="331" on="0"/>
        <pt x="281" y="353" on="0"/>
        <pt x="255" y="353" on="1"/>
        <pt x="214" y="353" on="0"/>
        <pt x="134" y="297" on="0"/>
        <pt x="91" y="246" on="1"/>
        <pt x="90" y="246" on="1"/>
        <pt x="115" y="370" on="1"/>
        <pt x="149" y="408" on="0"/>
        <pt x="222" y="449" on="0"/>
        <pt x="265" y="449" on="1"/>
        <pt x="298" y="449" on="0"/>
        <pt x="359" y="422" on="0"/>
        <pt x="400" y="396" on="1"/>
        <pt x="440" y="370" on="0"/>
        <pt x="486" y="348" on="0"/>
        <pt x="512" y="348" on="1"/>
        <pt x="552" y="348" on="0"/>
        <pt x="632" y="404" on="0"/>
        <pt x="676" y="454" on="1"/>
        <pt x="677" y="454" on="1"/>
        <pt x="651" y="330" on="1"/>
        <pt x="617" y="293" on="0"/>
        <pt x="545" y="252" on="0"/>
      </contour>
    </TTGlyph>
    <TTGlyph name="asciitilde.tab" xMin="89" yMin="246" xMax="676" yMax="454">
      <component glyphName="asciitilde" x="-1" y="0" flags="0x4"/>
    </TTGlyph>
    <TTGlyph name="asterisk" xMin="127" yMin="339" xMax="493" yMax="711">
      <contour>
        <pt x="360" y="343" on="1"/>
        <pt x="336" y="339" on="1"/>
        <pt x="291" y="448" on="1"/>
        <pt x="201" y="378" on="1"/>
        <pt x="181" y="393" on="1"/>
        <pt x="238" y="496" on="1"/>
        <pt x="127" y="522" on="1"/>
        <pt x="128" y="547" on="1"/>
        <pt x="245" y="568" on="1"/>
        <pt x="196" y="671" on="1"/>
        <pt x="215" y="685" on="1"/>
        <pt x="303" y="608" on="1"/>
        <pt x="353" y="711" on="1"/>
        <pt x="378" y="703" on="1"/>
        <pt x="373" y="586" on="1"/>
        <pt x="484" y="609" on="1"/>
        <pt x="493" y="587" on="1"/>
        <pt x="397" y="519" on="1"/>
        <pt x="486" y="447" on="1"/>
        <pt x="473" y="426" on="1"/>
        <pt x="361" y="457" on="1"/>
      </contour>
    </TTGlyph>
    <TTGlyph name="at" xMin="105" yMin="-111" xMax="994" yMax="765">
      <contour>
        <pt x="774" y="121" on="1"/>
        <pt x="718" y="121" on="0"/>
        <pt x="654" y="163" on="0"/>
        <pt x="644" y="197" on="1"/>
        <pt x="613" y="163" on="0"/>
        <pt x="533" y="123" on="0"/>
        <pt x="485" y="123" on="1"/>
        <pt x="428" y="123" on="0"/>
        <pt x="365" y="180" on="0"/>
        <pt x="365" y="226" on="1"/>
        <pt x="365" y="247" on="0"/>
        <pt x="380" y="293" on="0"/>
        <pt x="401" y="314" on="1"/>
        <pt x="430" y="343" on="0"/>
        <pt x="547" y="377" on="0"/>
        <pt x="661" y="378" on="1"/>
        <pt x="662" y="383" on="1"/>
        <pt x="664" y="392" on="0"/>
        <pt x="667" y="409" on="0"/>
        <pt x="667" y="416" on="1"/>
        <pt x="667" y="448" on="0"/>
        <pt x="622" y="480" on="0"/>
        <pt x="580" y="480" on="1"/>
        <pt x="546" y="480" on="0"/>
        <pt x="467" y="459" on="0"/>
        <pt x="431" y="439" on="1"/>
        <pt x="430" y="439" on="1"/>
        <pt x="446" y="516" on="1"/>
        <pt x="480" y="532" on="0"/>
        <pt x="553" y="550" on="0"/>
        <pt x="593" y="550" on="1"/>
        <pt x="667" y="550" on="0"/>
        <pt x="746" y="483" on="0"/>
        <pt x="746" y="423" on="1"/>
        <pt x="746" y="412" on="0"/>
        <pt x="742" y="384" on="0"/>
        <pt x="739" y="371" on="1"/>
        <pt x="719" y="275" on="1"/>
        <pt x="718" y="267" on="0"/>
        <pt x="715" y="249" on="0"/>
        <pt x="715" y="242" on="1"/>
        <pt x="716" y="213" on="0"/>
        <pt x="750" y="186" on="0"/>
        <pt x="779" y="186" on="1"/>
        <pt x="811" y="186" on="0"/>
        <pt x="862" y="222" on="0"/>
        <pt x="898" y="287" on="0"/>
        <pt x="918" y="376" on="0"/>
        <pt x="918" y="428" on="1"/>
        <pt x="918" y="551" on="0"/>
        <pt x="749" y="693" on="0"/>
        <pt x="606" y="693" on="1"/>
        <pt x="500" y="693" on="0"/>
        <pt x="341" y="618" on="0"/>
        <pt x="237" y="495" on="0"/>
        <pt x="186" y="336" on="0"/>
        <pt x="186" y="253" on="1"/>
        <pt x="186" y="179" on="0"/>
        <pt x="233" y="69" on="0"/>
        <pt x="321" y="-3" on="0"/>
        <pt x="446" y="-39" on="0"/>
        <pt x="524" y="-39" on="1"/>
        <pt x="600" y="-39" on="0"/>
        <pt x="728" y="-8" on="0"/>
        <pt x="791" y="19" on="1"/>
        <pt x="774" y="-61" on="1"/>
        <pt x="717" y="-83" on="0"/>
        <pt x="584" y="-111" on="0"/>
        <pt x="521" y="-111" on="1"/>
        <pt x="426" y="-111" on="0"/>
        <pt x="271" y="-64" on="0"/>
        <pt x="164" y="26" on="0"/>
        <pt x="105" y="161" on="0"/>
        <pt x="105" y="248" on="1"/>
        <pt x="105" y="344" on="0"/>
        <pt x="167" y="531" on="0"/>
        <pt x="292" y="676" on="0"/>
        <pt x="483" y="765" on="0"/>
        <pt x="610" y="765" on="1"/>
        <pt x="698" y="765" on="0"/>
        <pt x="841" y="717" on="0"/>
        <pt x="940" y="629" on="0"/>
        <pt x="994" y="503" on="0"/>
        <pt x="994" y="425" on="1"/>
        <pt x="994" y="367" on="0"/>
        <pt x="967" y="257" on="0"/>
        <pt x="913" y="172" on="0"/>
        <pt x="830" y="121" on="0"/>
      </contour>
      <contour>
        <pt x="511" y="187" on="1"/>
        <pt x="546" y="187" on="0"/>
        <pt x="605" y="218" on="0"/>
        <pt x="633" y="243" on="1"/>
        <pt x="649" y="324" on="1"/>
        <pt x="571" y="323" on="0"/>
        <pt x="485" y="301" on="0"/>
        <pt x="466" y="282" on="1"/>
        <pt x="455" y="271" on="0"/>
        <pt x="446" y="246" on="0"/>
        <pt x="446" y="235" on="1"/>
        <pt x="446" y="213" on="0"/>
        <pt x="477" y="187" on="0"/>
      </contour>
    </TTGlyph>
    <TTGlyph name="at.cap" xMin="110" yMin="-88" xMax="999" yMax="788">
      <component glyphName="at" x="5" y="23" flags="0x4"/>
    </TTGlyph>
    <TTGlyph name="atilde" xMin="37" yMin="-14" xMax="573" yMax="782">
      <component glyphName="a" x="0" y="0" flags="0x204"/>
      <component glyphName="tilde" x="37" y="15" flags="0x4"/>
    </TTGlyph>
    <TTGlyph name="atilde.sc" xMin="2" yMin="0" xMax="666" yMax="818">
      <component glyphName="a.sc" x="0" y="0" flags="0x204"/>
      <component glyphName="tilde" x="130" y="51" flags="0x4"/>
    </TTGlyph>
    <TTGlyph name="b" xMin="47" yMin="-14" xMax="597" yMax="750">
      <contour>
        <pt x="297" y="750" on="1"/>
        <pt x="238" y="468" on="1"/>
        <pt x="271" y="501" on="0"/>
        <pt x="357" y="545" on="0"/>
        <pt x="409" y="545" on="1"/>
        <pt x="447" y="545" on="0"/>
        <pt x="516" y="519" on="0"/>
        <pt x="567" y="467" on="0"/>
        <pt x="597" y="388" on="0"/>
        <pt x="597" y="336" on="1"/>
        <pt x="597" y="265" on="0"/>
        <pt x="552" y="138" on="0"/>
        <pt x="471" y="42" on="0"/>
        <pt x="355" y="-14" on="0"/>
        <pt x="286" y="-14" on="1"/>
        <pt x="245" y="-14" on="0"/>
        <pt x="164" y="8" on="0"/>
        <pt x="127" y="28" on="1"/>
        <pt x="47" y="28" on="1"/>
        <pt x="200" y="750" on="1"/>
      </contour>
      <contour>
        <pt x="288" y="69" on="1"/>
        <pt x="337" y="69" on="0"/>
        <pt x="415" y="113" on="0"/>
        <pt x="470" y="184" on="0"/>
        <pt x="499" y="277" on="0"/>
        <pt x="499" y="326" on="1"/>
        <pt x="499" y="396" on="0"/>
        <pt x="430" y="463" on="0"/>
        <pt x="376" y="463" on="1"/>
        <pt x="333" y="463" on="0"/>
        <pt x="252" y="423" on="0"/>
        <pt x="222" y="392" on="1"/>
        <pt x="162" y="110" on="1"/>
        <pt x="190" y="89" on="0"/>
        <pt x="257" y="69" on="0"/>
      </contour>
    </TTGlyph>
    <TTGlyph name="b.sc" xMin="59" yMin="0" xMax="657" yMax="582">
      <contour>
        <pt x="59" y="0" on="1"/>
        <pt x="183" y="582" on="1"/>
        <pt x="466" y="582" on="1"/>
        <pt x="562" y="582" on="0"/>
        <pt x="657" y="510" on="0"/>
        <pt x="657" y="446" on="1"/>
        <pt x="657" y="390" on="0"/>
        <pt x="587" y="312" on="0"/>
        <pt x="521" y="296" on="1"/>
        <pt x="565" y="283" on="0"/>
        <pt x="619" y="221" on="0"/>
        <pt x="619" y="175" on="1"/>
        <pt x="619" y="93" on="0"/>
        <pt x="493" y="0" on="0"/>
        <pt x="377" y="0" on="1"/>
      </contour>
      <contour>
        <pt x="228" y="336" on="1"/>
        <pt x="436" y="336" on="1"/>
        <pt x="495" y="336" on="0"/>
        <pt x="562" y="386" on="0"/>
        <pt x="562" y="427" on="1"/>
        <pt x="562" y="464" on="0"/>
        <pt x="509" y="499" on="0"/>
        <pt x="458" y="499" on="1"/>
        <pt x="262" y="499" on="1"/>
      </contour>
      <contour>
        <pt x="212" y="260" on="1"/>
        <pt x="174" y="84" on="1"/>
        <pt x="381" y="84" on="1"/>
        <pt x="454" y="84" on="0"/>
        <pt x="522" y="139" on="0"/>
        <pt x="522" y="183" on="1"/>
        <pt x="522" y="218" on="0"/>
        <pt x="469" y="260" on="0"/>
        <pt x="412" y="260" on="1"/>
      </contour>
    </TTGlyph>
    <TTGlyph name="backslash" xMin="156" yMin="-190" xMax="361" yMax="750">
      <contour>
        <pt x="361" y="-190" on="1"/>
        <pt x="273" y="-190" on="1"/>
        <pt x="156" y="750" on="1"/>
        <pt x="244" y="750" on="1"/>
      </contour>
    </TTGlyph>
    <TTGlyph name="backslash.cap" xMin="176" yMin="-120" xMax="381" yMax="820">
      <component glyphName="backslash" x="20" y="70" flags="0x4"/>
    </TTGlyph>
    <TTGlyph name="bar" xMin="108" yMin="-190" xMax="399" yMax="750">
      <contour>
        <pt x="199" y="-190" on="1"/>
        <pt x="108" y="-190" on="1"/>
        <pt x="308" y="750" on="1"/>
        <pt x="399" y="750" on="1"/>
      </contour>
    </TTGlyph>
    <TTGlyph name="bar.cap" xMin="123" yMin="-120" xMax="414" yMax="820">
      <component glyphName="bar" x="15" y="70" flags="0x4"/>
    </TTGlyph>
    <TTGlyph name="bar.tab" xMin="55" yMin="-120" xMax="346" yMax="820">
      <component glyphName="bar.cap" x="-68" y="0" flags="0x4"/>
    </TTGlyph>
    <TTGlyph name="braceleft" xMin="34" yMin="-202" xMax="552" yMax="762">
      <contour>
        <pt x="34" y="290" on="1"/>
        <pt x="39" y="309" on="1"/>
        <pt x="205" y="424" on="1"/>
        <pt x="215" y="535" on="1"/>
        <pt x="225" y="659" on="0"/>
        <pt x="345" y="762" on="0"/>
        <pt x="426" y="762" on="1"/>
        <pt x="463" y="762" on="0"/>
        <pt x="519" y="751" on="0"/>
        <pt x="552" y="738" on="1"/>
        <pt x="534" y="653" on="1"/>
        <pt x="533" y="653" on="1"/>
        <pt x="511" y="664" on="0"/>
        <pt x="459" y="678" on="0"/>
        <pt x="433" y="678" on="1"/>
        <pt x="383" y="678" on="0"/>
        <pt x="314" y="609" on="0"/>
        <pt x="307" y="520" on="1"/>
        <pt x="295" y="381" on="1"/>
        <pt x="150" y="285" on="1"/>
        <pt x="251" y="174" on="1"/>
        <pt x="206" y="55" on="1"/>
        <pt x="196" y="30" on="0"/>
        <pt x="186" y="-16" on="0"/>
        <pt x="186" y="-35" on="1"/>
        <pt x="185" y="-83" on="0"/>
        <pt x="249" y="-118" on="0"/>
        <pt x="291" y="-118" on="1"/>
        <pt x="309" y="-118" on="0"/>
        <pt x="348" y="-112" on="0"/>
        <pt x="375" y="-107" on="1"/>
        <pt x="376" y="-107" on="1"/>
        <pt x="358" y="-191" on="1"/>
        <pt x="334" y="-197" on="0"/>
        <pt x="283" y="-202" on="0"/>
        <pt x="262" y="-202" on="1"/>
        <pt x="228" y="-202" on="0"/>
        <pt x="165" y="-185" on="0"/>
        <pt x="118" y="-149" on="0"/>
        <pt x="90" y="-92" on="0"/>
        <pt x="90" y="-54" on="1"/>
        <pt x="90" y="-20" on="0"/>
        <pt x="110" y="49" on="0"/>
        <pt x="124" y="85" on="1"/>
        <pt x="151" y="158" on="1"/>
      </contour>
    </TTGlyph>
    <TTGlyph name="braceleft.cap" xMin="49" yMin="-132" xMax="567" yMax="832">
      <component glyphName="braceleft" x="15" y="70" flags="0x4"/>
    </TTGlyph>
    <TTGlyph name="braceright" xMin="-33" yMin="-202" xMax="485" yMax="762">
      <contour>
        <pt x="485" y="270" on="1"/>
        <pt x="480" y="251" on="1"/>
        <pt x="314" y="136" on="1"/>
        <pt x="304" y="25" on="1"/>
        <pt x="294" y="-99" on="0"/>
        <pt x="174" y="-202" on="0"/>
        <pt x="93" y="-202" on="1"/>
        <pt x="56" y="-202" on="0"/>
        <pt x="0" y="-191" on="0"/>
        <pt x="-33" y="-178" on="1"/>
        <pt x="-15" y="-93" on="1"/>
        <pt x="-14" y="-93" on="1"/>
        <pt x="8" y="-104" on="0"/>
        <pt x="60" y="-118" on="0"/>
        <pt x="86" y="-118" on="1"/>
        <pt x="136" y="-118" on="0"/>
        <pt x="205" y="-49" on="0"/>
        <pt x="212" y="40" on="1"/>
        <pt x="224" y="179" on="1"/>
        <pt x="369" y="275" on="1"/>
        <pt x="268" y="386" on="1"/>
        <pt x="313" y="505" on="1"/>
        <pt x="323" y="530" on="0"/>
        <pt x="333" y="576" on="0"/>
        <pt x="333" y="595" on="1"/>
        <pt x="334" y="643" on="0"/>
        <pt x="270" y="678" on="0"/>
        <pt x="228" y="678" on="1"/>
        <pt x="210" y="678" on="0"/>
        <pt x="171" y="672" on="0"/>
        <pt x="144" y="667" on="1"/>
        <pt x="143" y="667" on="1"/>
        <pt x="161" y="751" on="1"/>
        <pt x="185" y="757" on="0"/>
        <pt x="236" y="762" on="0"/>
        <pt x="257" y="762" on="1"/>
        <pt x="291" y="762" on="0"/>
        <pt x="354" y="745" on="0"/>
        <pt x="401" y="709" on="0"/>
        <pt x="429" y="652" on="0"/>
        <pt x="429" y="614" on="1"/>
        <pt x="429" y="580" on="0"/>
        <pt x="409" y="511" on="0"/>
        <pt x="395" y="475" on="1"/>
        <pt x="368" y="402" on="1"/>
      </contour>
    </TTGlyph>
    <TTGlyph name="braceright.cap" xMin="-18" yMin="-132" xMax="500" yMax="832">
      <component glyphName="braceright" x="15" y="70" flags="0x4"/>
    </TTGlyph>
    <TTGlyph name="bracketleft" xMin="1" yMin="-190" xMax="478" yMax="750">
      <contour>
        <pt x="1" y="-190" on="1"/>
        <pt x="202" y="750" on="1"/>
        <pt x="478" y="750" on="1"/>
        <pt x="461" y="672" on="1"/>
        <pt x="279" y="672" on="1"/>
        <pt x="112" y="-112" on="1"/>
        <pt x="294" y="-112" on="1"/>
        <pt x="277" y="-190" on="1"/>
      </contour>
    </TTGlyph>
    <TTGlyph name="bracketleft.cap" xMin="16" yMin="-120" xMax="493" yMax="820">
      <component glyphName="bracketleft" x="15" y="70" flags="0x4"/>
    </TTGlyph>
    <TTGlyph name="bracketright" xMin="-39" yMin="-190" xMax="438" yMax="750">
      <contour>
        <pt x="438" y="750" on="1"/>
        <pt x="237" y="-190" on="1"/>
        <pt x="-39" y="-190" on="1"/>
        <pt x="-22" y="-112" on="1"/>
        <pt x="160" y="-112" on="1"/>
        <pt x="327" y="672" on="1"/>
        <pt x="145" y="672" on="1"/>
        <pt x="162" y="750" on="1"/>
      </contour>
    </TTGlyph>
    <TTGlyph name="bracketright.cap" xMin="-24" yMin="-120" xMax="453" yMax="820">
      <component glyphName="bracketright" x="15" y="70" flags="0x4"/>
    </TTGlyph>
    <TTGlyph name="breve" xMin="170" yMin="617" xMax="530" yMax="806">
      <contour>
        <pt x="187" y="806" on="1"/>
        <pt x="262" y="806" on="1"/>
        <pt x="254" y="788" on="0"/>
        <pt x="249" y="761" on="0"/>
        <pt x="249" y="751" on="1"/>
        <pt x="249" y="717" on="0"/>
        <pt x="298" y="689" on="0"/>
        <pt x="333" y="689" on="1"/>
        <pt x="380" y="689" on="0"/>
        <pt x="447" y="740" on="0"/>
        <pt x="448" y="804" on="1"/>
        <pt x="448" y="806" on="1"/>
        <pt x="530" y="806" on="1"/>
        <pt x="530" y="798" on="1"/>
        <pt x="530" y="712" on="0"/>
        <pt x="419" y="617" on="0"/>
        <pt x="329" y="617" on="1"/>
        <pt x="257" y="617" on="0"/>
        <pt x="170" y="678" on="0"/>
        <pt x="170" y="733" on="1"/>
        <pt x="170" y="749" on="0"/>
        <pt x="179" y="786" on="0"/>
      </contour>
    </TTGlyph>
    <TTGlyph name="bullet" xMin="94" yMin="204" xMax="333" yMax="432">
      <contour>
        <pt x="94" y="307" on="1"/>
        <pt x="94" y="357" on="0"/>
        <pt x="163" y="432" on="0"/>
        <pt x="225" y="432" on="1"/>
        <pt x="277" y="432" on="0"/>
        <pt x="333" y="372" on="0"/>
        <pt x="333" y="329" on="1"/>
        <pt x="333" y="278" on="0"/>
        <pt x="265" y="204" on="0"/>
        <pt x="203" y="204" on="1"/>
        <pt x="150" y="204" on="0"/>
        <pt x="94" y="264" on="0"/>
      </contour>
    </TTGlyph>
    <TTGlyph name="bullet.cap" xMin="101" yMin="236" xMax="340" yMax="464">
      <component glyphName="bullet" x="7" y="32" flags="0x4"/>
    </TTGlyph>
    <TTGlyph name="c" xMin="54" yMin="-14" xMax="532" yMax="547">
      <contour>
        <pt x="152" y="224" on="1"/>
        <pt x="152" y="149" on="0"/>
        <pt x="239" y="69" on="0"/>
        <pt x="310" y="69" on="1"/>
        <pt x="347" y="69" on="0"/>
        <pt x="425" y="92" on="0"/>
        <pt x="466" y="117" on="1"/>
        <pt x="467" y="117" on="1"/>
        <pt x="448" y="26" on="1"/>
        <pt x="407" y="4" on="0"/>
        <pt x="330" y="-14" on="0"/>
        <pt x="293" y="-14" on="1"/>
        <pt x="186" y="-14" on="0"/>
        <pt x="54" y="107" on="0"/>
        <pt x="54" y="216" on="1"/>
        <pt x="54" y="282" on="0"/>
        <pt x="97" y="403" on="0"/>
        <pt x="176" y="493" on="0"/>
        <pt x="287" y="547" on="0"/>
        <pt x="355" y="547" on="1"/>
        <pt x="416" y="547" on="0"/>
        <pt x="507" y="508" on="0"/>
        <pt x="532" y="484" on="1"/>
        <pt x="513" y="396" on="1"/>
        <pt x="512" y="396" on="1"/>
        <pt x="485" y="422" on="0"/>
        <pt x="410" y="462" on="0"/>
        <pt x="359" y="462" on="1"/>
        <pt x="313" y="462" on="0"/>
        <pt x="236" y="425" on="0"/>
        <pt x="182" y="361" on="0"/>
        <pt x="152" y="274" on="0"/>
      </contour>
    </TTGlyph>
    <TTGlyph name="c.sc" xMin="74" yMin="-14" xMax="644" yMax="596">
      <contour>
        <pt x="418" y="596" on="1"/>
        <pt x="493" y="596" on="0"/>
        <pt x="608" y="550" on="0"/>
        <pt x="644" y="520" on="1"/>
        <pt x="624" y="429" on="1"/>
        <pt x="623" y="429" on="1"/>
        <pt x="589" y="461" on="0"/>
        <pt x="486" y="509" on="0"/>
        <pt x="421" y="509" on="1"/>
        <pt x="365" y="509" on="0"/>
        <pt x="273" y="469" on="0"/>
        <pt x="209" y="401" on="0"/>
        <pt x="174" y="310" on="0"/>
        <pt x="174" y="259" on="1"/>
        <pt x="174" y="175" on="0"/>
        <pt x="278" y="73" on="0"/>
        <pt x="371" y="73" on="1"/>
        <pt x="430" y="73" on="0"/>
        <pt x="530" y="107" on="0"/>
        <pt x="570" y="128" on="1"/>
        <pt x="571" y="128" on="1"/>
        <pt x="550" y="31" on="1"/>
        <pt x="517" y="15" on="0"/>
        <pt x="418" y="-14" on="0"/>
        <pt x="355" y="-14" on="1"/>
        <pt x="289" y="-14" on="0"/>
        <pt x="185" y="25" on="0"/>
        <pt x="112" y="96" on="0"/>
        <pt x="74" y="194" on="0"/>
        <pt x="74" y="252" on="1"/>
        <pt x="74" y="320" on="0"/>
        <pt x="122" y="446" on="0"/>
        <pt x="210" y="540" on="0"/>
        <pt x="339" y="596" on="0"/>
      </contour>
    </TTGlyph>
    <TTGlyph name="cacute" xMin="54" yMin="-14" xMax="629" yMax="808">
      <component glyphName="c" x="0" y="0" flags="0x204"/>
      <component glyphName="acute" x="116" y="14" flags="0x4"/>
    </TTGlyph>
    <TTGlyph name="cacute.sc" xMin="74" yMin="-14" xMax="692" yMax="857">
      <component glyphName="c.sc" x="0" y="0" flags="0x204"/>
      <component glyphName="acute" x="179" y="63" flags="0x4"/>
    </TTGlyph>
    <TTGlyph name="caron" xMin="162" yMin="630" xMax="570" yMax="804">
      <contour>
        <pt x="570" y="804" on="1"/>
        <pt x="396" y="630" on="1"/>
        <pt x="262" y="630" on="1"/>
        <pt x="162" y="804" on="1"/>
        <pt x="256" y="804" on="1"/>
        <pt x="318" y="696" on="1"/>
        <pt x="354" y="696" on="1"/>
        <pt x="462" y="804" on="1"/>
      </contour>
    </TTGlyph>
    <TTGlyph name="caron.alt" xMin="263" yMin="599" xMax="402" yMax="773">
      <contour>
        <pt x="263" y="599" on="1"/>
        <pt x="300" y="773" on="1"/>
        <pt x="402" y="773" on="1"/>
        <pt x="400" y="763" on="1"/>
        <pt x="317" y="599" on="1"/>
      </contour>
    </TTGlyph>
    <TTGlyph name="ccaron" xMin="54" yMin="-14" xMax="633" yMax="818">
      <component glyphName="c" x="0" y="0" flags="0x204"/>
      <component glyphName="caron" x="63" y="14" flags="0x4"/>
    </TTGlyph>
    <TTGlyph name="ccaron.sc" xMin="74" yMin="-14" xMax="696" yMax="867">
      <component glyphName="c.sc" x="0" y="0" flags="0x204"/>
      <component glyphName="caron" x="126" y="63" flags="0x4"/>
    </TTGlyph>
    <TTGlyph name="ccedilla" xMin="54" yMin="-187" xMax="532" yMax="547">
      <contour>
        <pt x="152" y="224" on="1"/>
        <pt x="152" y="149" on="0"/>
        <pt x="239" y="69" on="0"/>
        <pt x="310" y="69" on="1"/>
        <pt x="347" y="69" on="0"/>
        <pt x="425" y="92" on="0"/>
        <pt x="466" y="117" on="1"/>
        <pt x="467" y="117" on="1"/>
        <pt x="448" y="26" on="1"/>
        <pt x="414" y="7" on="0"/>
        <pt x="349" y="-11" on="0"/>
        <pt x="318" y="-13" on="1"/>
        <pt x="182" y="-187" on="1"/>
        <pt x="56" y="-187" on="1"/>
        <pt x="58" y="-182" on="1"/>
        <pt x="236" y="-9" on="1"/>
        <pt x="153" y="6" on="0"/>
        <pt x="54" y="122" on="0"/>
        <pt x="54" y="216" on="1"/>
        <pt x="54" y="282" on="0"/>
        <pt x="97" y="403" on="0"/>
        <pt x="176" y="493" on="0"/>
        <pt x="287" y="547" on="0"/>
        <pt x="355" y="547" on="1"/>
        <pt x="416" y="547" on="0"/>
        <pt x="507" y="508" on="0"/>
        <pt x="532" y="484" on="1"/>
        <pt x="513" y="396" on="1"/>
        <pt x="512" y="396" on="1"/>
        <pt x="485" y="422" on="0"/>
        <pt x="410" y="462" on="0"/>
        <pt x="359" y="462" on="1"/>
        <pt x="313" y="462" on="0"/>
        <pt x="236" y="425" on="0"/>
        <pt x="182" y="361" on="0"/>
        <pt x="152" y="274" on="0"/>
      </contour>
    </TTGlyph>
    <TTGlyph name="ccedilla.sc" xMin="74" yMin="-187" xMax="644" yMax="596">
      <contour>
        <pt x="418" y="596" on="1"/>
        <pt x="493" y="596" on="0"/>
        <pt x="608" y="550" on="0"/>
        <pt x="644" y="520" on="1"/>
        <pt x="624" y="429" on="1"/>
        <pt x="623" y="429" on="1"/>
        <pt x="589" y="461" on="0"/>
        <pt x="486" y="509" on="0"/>
        <pt x="421" y="509" on="1"/>
        <pt x="365" y="509" on="0"/>
        <pt x="273" y="469" on="0"/>
        <pt x="209" y="401" on="0"/>
        <pt x="174" y="310" on="0"/>
        <pt x="174" y="259" on="1"/>
        <pt x="174" y="175" on="0"/>
        <pt x="278" y="73" on="0"/>
        <pt x="371" y="73" on="1"/>
        <pt x="430" y="73" on="0"/>
        <pt x="530" y="107" on="0"/>
        <pt x="570" y="128" on="1"/>
        <pt x="571" y="128" on="1"/>
        <pt x="550" y="31" on="1"/>
        <pt x="520" y="16" on="0"/>
        <pt x="434" y="-10" on="0"/>
        <pt x="380" y="-13" on="1"/>
        <pt x="244" y="-187" on="1"/>
        <pt x="118" y="-187" on="1"/>
        <pt x="120" y="-182" on="1"/>
        <pt x="297" y="-10" on="1"/>
        <pt x="192" y="6" on="0"/>
        <pt x="74" y="149" on="0"/>
        <pt x="74" y="252" on="1"/>
        <pt x="74" y="320" on="0"/>
        <pt x="122" y="446" on="0"/>
        <pt x="210" y="540" on="0"/>
        <pt x="339" y="596" on="0"/>
      </contour>
    </TTGlyph>
    <TTGlyph name="cdotaccent" xMin="54" yMin="-14" xMax="532" yMax="762">
      <component glyphName="c" x="0" y="0" flags="0x204"/>
      <component glyphName="dotaccent" x="62" y="14" flags="0x4"/>
    </TTGlyph>
    <TTGlyph name="cdotaccent.sc" xMin="74" yMin="-14" xMax="644" yMax="811">
      <component glyphName="c.sc" x="0" y="0" flags="0x204"/>
      <component glyphName="dotaccent" x="126" y="63" flags="0x4"/>
    </TTGlyph>
    <TTGlyph name="cedilla" xMin="0" yMin="-188" xMax="270" yMax="-4">
      <contour>
        <pt x="270" y="-4" on="1"/>
        <pt x="126" y="-188" on="1"/>
        <pt x="0" y="-188" on="1"/>
        <pt x="2" y="-183" on="1"/>
        <pt x="186" y="-4" on="1"/>
      </contour>
    </TTGlyph>
    <TTGlyph name="cent" xMin="75" yMin="-36" xMax="527" yMax="713">
      <contour>
        <pt x="205" y="-36" on="1"/>
        <pt x="236" y="110" on="1"/>
        <pt x="164" y="127" on="0"/>
        <pt x="77" y="234" on="0"/>
        <pt x="76" y="315" on="1"/>
        <pt x="76" y="369" on="0"/>
        <pt x="112" y="468" on="0"/>
        <pt x="179" y="545" on="0"/>
        <pt x="275" y="594" on="0"/>
        <pt x="334" y="598" on="1"/>
        <pt x="358" y="713" on="1"/>
        <pt x="447" y="713" on="1"/>
        <pt x="421" y="592" on="1"/>
        <pt x="455" y="585" on="0"/>
        <pt x="510" y="558" on="0"/>
        <pt x="527" y="543" on="1"/>
        <pt x="509" y="459" on="1"/>
        <pt x="508" y="459" on="1"/>
        <pt x="483" y="481" on="0"/>
        <pt x="404" y="516" on="0"/>
        <pt x="360" y="516" on="1"/>
        <pt x="317" y="516" on="0"/>
        <pt x="246" y="485" on="0"/>
        <pt x="197" y="433" on="0"/>
        <pt x="171" y="362" on="0"/>
        <pt x="171" y="323" on="1"/>
        <pt x="171" y="254" on="0"/>
        <pt x="258" y="185" on="0"/>
        <pt x="321" y="185" on="1"/>
        <pt x="359" y="185" on="0"/>
        <pt x="432" y="205" on="0"/>
        <pt x="469" y="227" on="1"/>
        <pt x="470" y="227" on="1"/>
        <pt x="451" y="137" on="1"/>
        <pt x="421" y="121" on="0"/>
        <pt x="357" y="103" on="0"/>
        <pt x="322" y="102" on="1"/>
        <pt x="295" y="-25" on="1"/>
      </contour>
    </TTGlyph>
    <TTGlyph name="cent.tab" xMin="157" yMin="-36" xMax="624" yMax="713">
      <contour>
        <pt x="294" y="-36" on="1"/>
        <pt x="325" y="110" on="1"/>
        <pt x="250" y="127" on="0"/>
        <pt x="158" y="235" on="0"/>
        <pt x="157" y="317" on="1"/>
        <pt x="157" y="371" on="0"/>
        <pt x="195" y="469" on="0"/>
        <pt x="264" y="545" on="0"/>
        <pt x="363" y="594" on="0"/>
        <pt x="423" y="598" on="1"/>
        <pt x="448" y="713" on="1"/>
        <pt x="536" y="713" on="1"/>
        <pt x="511" y="592" on="1"/>
        <pt x="547" y="585" on="0"/>
        <pt x="605" y="558" on="0"/>
        <pt x="624" y="542" on="1"/>
        <pt x="606" y="457" on="1"/>
        <pt x="605" y="457" on="1"/>
        <pt x="579" y="480" on="0"/>
        <pt x="496" y="516" on="0"/>
        <pt x="449" y="516" on="1"/>
        <pt x="404" y="516" on="0"/>
        <pt x="331" y="485" on="0"/>
        <pt x="280" y="433" on="0"/>
        <pt x="252" y="363" on="0"/>
        <pt x="252" y="324" on="1"/>
        <pt x="253" y="255" on="0"/>
        <pt x="344" y="185" on="0"/>
        <pt x="410" y="185" on="1"/>
        <pt x="450" y="185" on="0"/>
        <pt x="527" y="205" on="0"/>
        <pt x="567" y="225" on="1"/>
        <pt x="568" y="225" on="1"/>
        <pt x="548" y="136" on="1"/>
        <pt x="517" y="120" on="0"/>
        <pt x="449" y="103" on="0"/>
        <pt x="412" y="102" on="1"/>
        <pt x="384" y="-25" on="1"/>
      </contour>
    </TTGlyph>
    <TTGlyph name="circle.checked" xMin="126" yMin="-46" xMax="952" yMax="746">
      <contour>
        <pt x="539" y="-46" on="1"/>
        <pt x="445" y="-46" on="0"/>
        <pt x="291" y="11" on="0"/>
        <pt x="184" y="113" on="0"/>
        <pt x="126" y="260" on="0"/>
        <pt x="126" y="350" on="1"/>
        <pt x="126" y="439" on="0"/>
        <pt x="184" y="586" on="0"/>
        <pt x="291" y="689" on="0"/>
        <pt x="445" y="746" on="0"/>
        <pt x="539" y="746" on="1"/>
        <pt x="634" y="746" on="0"/>
        <pt x="787" y="689" on="0"/>
        <pt x="894" y="587" on="0"/>
        <pt x="952" y="440" on="0"/>
        <pt x="952" y="350" on="1"/>
        <pt x="952" y="261" on="0"/>
        <pt x="894" y="114" on="0"/>
        <pt x="787" y="11" on="0"/>
        <pt x="633" y="-46" on="0"/>
      </contour>
      <contour>
        <pt x="539" y="44" on="1"/>
        <pt x="684" y="44" on="0"/>
        <pt x="850" y="210" on="0"/>
        <pt x="850" y="350" on="1"/>
        <pt x="850" y="490" on="0"/>
        <pt x="684" y="656" on="0"/>
        <pt x="539" y="656" on="1"/>
        <pt x="394" y="656" on="0"/>
        <pt x="228" y="490" on="0"/>
        <pt x="228" y="350" on="1"/>
        <pt x="228" y="210" on="0"/>
        <pt x="394" y="44" on="0"/>
      </contour>
      <contour>
        <pt x="539" y="198" on="1"/>
        <pt x="468" y="198" on="0"/>
        <pt x="387" y="281" on="0"/>
        <pt x="387" y="350" on="1"/>
        <pt x="387" y="419" on="0"/>
        <pt x="468" y="502" on="0"/>
        <pt x="539" y="502" on="1"/>
        <pt x="611" y="502" on="0"/>
        <pt x="691" y="419" on="0"/>
        <pt x="691" y="350" on="1"/>
        <pt x="691" y="281" on="0"/>
        <pt x="611" y="198" on="0"/>
      </contour>
    </TTGlyph>
    <TTGlyph name="circle.half" xMin="126" yMin="-46" xMax="952" yMax="746">
      <contour>
        <pt x="539" y="-46" on="1"/>
        <pt x="444" y="-46" on="0"/>
        <pt x="291" y="11" on="0"/>
        <pt x="184" y="113" on="0"/>
        <pt x="126" y="260" on="0"/>
        <pt x="126" y="350" on="1"/>
        <pt x="126" y="439" on="0"/>
        <pt x="184" y="586" on="0"/>
        <pt x="291" y="689" on="0"/>
        <pt x="445" y="746" on="0"/>
        <pt x="539" y="746" on="1"/>
        <pt x="633" y="746" on="0"/>
        <pt x="787" y="689" on="0"/>
        <pt x="894" y="587" on="0"/>
        <pt x="952" y="440" on="0"/>
        <pt x="952" y="350" on="1"/>
        <pt x="952" y="261" on="0"/>
        <pt x="894" y="114" on="0"/>
        <pt x="787" y="11" on="0"/>
        <pt x="633" y="-46" on="0"/>
      </contour>
      <contour>
        <pt x="537" y="43" on="1"/>
        <pt x="610" y="43" on="0"/>
        <pt x="726" y="87" on="0"/>
        <pt x="807" y="166" on="0"/>
        <pt x="850" y="280" on="0"/>
        <pt x="850" y="350" on="1"/>
        <pt x="850" y="420" on="0"/>
        <pt x="807" y="534" on="0"/>
        <pt x="726" y="613" on="0"/>
        <pt x="610" y="657" on="0"/>
        <pt x="537" y="657" on="1"/>
      </contour>
    </TTGlyph>
    <TTGlyph name="circle.open" xMin="126" yMin="-46" xMax="952" yMax="746">
      <contour>
        <pt x="539" y="-46" on="1"/>
        <pt x="445" y="-46" on="0"/>
        <pt x="291" y="11" on="0"/>
        <pt x="184" y="113" on="0"/>
        <pt x="126" y="260" on="0"/>
        <pt x="126" y="350" on="1"/>
        <pt x="126" y="439" on="0"/>
        <pt x="184" y="586" on="0"/>
        <pt x="291" y="689" on="0"/>
        <pt x="445" y="746" on="0"/>
        <pt x="539" y="746" on="1"/>
        <pt x="634" y="746" on="0"/>
        <pt x="787" y="689" on="0"/>
        <pt x="894" y="587" on="0"/>
        <pt x="952" y="440" on="0"/>
        <pt x="952" y="350" on="1"/>
        <pt x="952" y="261" on="0"/>
        <pt x="894" y="114" on="0"/>
        <pt x="787" y="11" on="0"/>
        <pt x="633" y="-46" on="0"/>
      </contour>
      <contour>
        <pt x="539" y="44" on="1"/>
        <pt x="684" y="44" on="0"/>
        <pt x="850" y="210" on="0"/>
        <pt x="850" y="350" on="1"/>
        <pt x="850" y="490" on="0"/>
        <pt x="684" y="656" on="0"/>
        <pt x="539" y="656" on="1"/>
        <pt x="394" y="656" on="0"/>
        <pt x="228" y="490" on="0"/>
        <pt x="228" y="350" on="1"/>
        <pt x="228" y="210" on="0"/>
        <pt x="394" y="44" on="0"/>
      </contour>
    </TTGlyph>
    <TTGlyph name="circle.solid" xMin="126" yMin="-46" xMax="952" yMax="746">
      <contour>
        <pt x="539" y="-46" on="1"/>
        <pt x="445" y="-46" on="0"/>
        <pt x="291" y="11" on="0"/>
        <pt x="184" y="113" on="0"/>
        <pt x="126" y="260" on="0"/>
        <pt x="126" y="350" on="1"/>
        <pt x="126" y="439" on="0"/>
        <pt x="184" y="586" on="0"/>
        <pt x="291" y="689" on="0"/>
        <pt x="445" y="746" on="0"/>
        <pt x="539" y="746" on="1"/>
        <pt x="634" y="746" on="0"/>
        <pt x="787" y="689" on="0"/>
        <pt x="894" y="587" on="0"/>
        <pt x="952" y="440" on="0"/>
        <pt x="952" y="350" on="1"/>
        <pt x="952" y="261" on="0"/>
        <pt x="894" y="114" on="0"/>
        <pt x="787" y="11" on="0"/>
        <pt x="633" y="-46" on="0"/>
      </contour>
    </TTGlyph>
    <TTGlyph name="circumflex" xMin="126" yMin="630" xMax="534" yMax="804">
      <contour>
        <pt x="126" y="630" on="1"/>
        <pt x="300" y="804" on="1"/>
        <pt x="433" y="804" on="1"/>
        <pt x="534" y="630" on="1"/>
        <pt x="439" y="630" on="1"/>
        <pt x="376" y="737" on="1"/>
        <pt x="340" y="737" on="1"/>
        <pt x="233" y="630" on="1"/>
      </contour>
    </TTGlyph>
    <TTGlyph name="colon" xMin="60" yMin="-12" xMax="293" yMax="488">
      <component glyphName="period" x="1" y="0" flags="0x4"/>
      <component glyphName="period" x="76" y="358" flags="0x4"/>
    </TTGlyph>
    <TTGlyph name="colon.fig" xMin="84" yMin="100" xMax="317" yMax="600">
      <component glyphName="colon" x="24" y="112" flags="0x4"/>
    </TTGlyph>
    <TTGlyph name="colon.tab" xMin="61" yMin="-12" xMax="294" yMax="488">
      <component glyphName="colon" x="1" y="0" flags="0x4"/>
    </TTGlyph>
    <TTGlyph name="colonmonetary" xMin="87" yMin="-112" xMax="803" yMax="805">
      <contour>
        <pt x="178" y="-111" on="1"/>
        <pt x="100" y="-112" on="1"/>
        <pt x="184" y="70" on="1"/>
        <pt x="138" y="110" on="0"/>
        <pt x="87" y="229" on="0"/>
        <pt x="87" y="303" on="1"/>
        <pt x="87" y="384" on="0"/>
        <pt x="142" y="531" on="0"/>
        <pt x="242" y="640" on="0"/>
        <pt x="385" y="705" on="0"/>
        <pt x="473" y="705" on="1"/>
        <pt x="475" y="705" on="0"/>
        <pt x="480" y="705" on="0"/>
        <pt x="483" y="705" on="1"/>
        <pt x="528" y="805" on="1"/>
        <pt x="609" y="805" on="1"/>
        <pt x="558" y="696" on="1"/>
        <pt x="586" y="690" on="0"/>
        <pt x="635" y="672" on="0"/>
        <pt x="657" y="661" on="1"/>
        <pt x="723" y="805" on="1"/>
        <pt x="803" y="805" on="1"/>
        <pt x="465" y="81" on="1"/>
        <pt x="506" y="85" on="0"/>
        <pt x="579" y="109" on="0"/>
        <pt x="610" y="122" on="1"/>
        <pt x="611" y="122" on="1"/>
        <pt x="592" y="33" on="1"/>
        <pt x="558" y="18" on="0"/>
        <pt x="472" y="-2" on="0"/>
        <pt x="425" y="-4" on="1"/>
        <pt x="377" y="-107" on="1"/>
        <pt x="298" y="-108" on="1"/>
        <pt x="349" y="0" on="1"/>
        <pt x="320" y="4" on="0"/>
        <pt x="267" y="19" on="0"/>
        <pt x="244" y="30" on="1"/>
      </contour>
      <contour>
        <pt x="181" y="306" on="1"/>
        <pt x="181" y="260" on="0"/>
        <pt x="206" y="185" on="0"/>
        <pt x="228" y="157" on="1"/>
        <pt x="444" y="620" on="1"/>
        <pt x="384" y="615" on="0"/>
        <pt x="286" y="560" on="0"/>
        <pt x="218" y="476" on="0"/>
        <pt x="181" y="366" on="0"/>
      </contour>
      <contour>
        <pt x="280" y="112" on="1"/>
        <pt x="303" y="99" on="0"/>
        <pt x="359" y="81" on="0"/>
        <pt x="390" y="79" on="1"/>
        <pt x="623" y="579" on="1"/>
        <pt x="601" y="591" on="0"/>
        <pt x="546" y="609" on="0"/>
        <pt x="515" y="613" on="1"/>
      </contour>
    </TTGlyph>
    <TTGlyph name="comma" xMin="-15" yMin="-154" xMax="237" yMax="145">
      <contour>
        <pt x="96" y="145" on="1"/>
        <pt x="237" y="145" on="1"/>
        <pt x="237" y="135" on="1"/>
        <pt x="46" y="-154" on="1"/>
        <pt x="-15" y="-154" on="1"/>
      </contour>
    </TTGlyph>
    <TTGlyph name="comma.tab" xMin="0" yMin="-154" xMax="252" yMax="145">
      <component glyphName="comma" x="15" y="0" flags="0x4"/>
    </TTGlyph>
    <TTGlyph name="copyright" xMin="82" yMin="-46" xMax="932" yMax="746">
      <contour>
        <pt x="507" y="-46" on="1"/>
        <pt x="410" y="-46" on="0"/>
        <pt x="253" y="11" on="0"/>
        <pt x="142" y="114" on="0"/>
        <pt x="82" y="261" on="0"/>
        <pt x="82" y="350" on="1"/>
        <pt x="82" y="439" on="0"/>
        <pt x="142" y="586" on="0"/>
        <pt x="253" y="689" on="0"/>
        <pt x="410" y="746" on="0"/>
        <pt x="507" y="746" on="1"/>
        <pt x="603" y="746" on="0"/>
        <pt x="761" y="689" on="0"/>
        <pt x="871" y="586" on="0"/>
        <pt x="932" y="439" on="0"/>
        <pt x="932" y="350" on="1"/>
        <pt x="932" y="261" on="0"/>
        <pt x="871" y="114" on="0"/>
        <pt x="761" y="11" on="0"/>
        <pt x="603" y="-46" on="0"/>
      </contour>
      <contour>
        <pt x="507" y="23" on="1"/>
        <pt x="586" y="23" on="0"/>
        <pt x="714" y="68" on="0"/>
        <pt x="803" y="152" on="0"/>
        <pt x="852" y="274" on="0"/>
        <pt x="852" y="350" on="1"/>
        <pt x="852" y="426" on="0"/>
        <pt x="803" y="548" on="0"/>
        <pt x="714" y="632" on="0"/>
        <pt x="586" y="677" on="0"/>
        <pt x="507" y="677" on="1"/>
        <pt x="428" y="677" on="0"/>
        <pt x="299" y="632" on="0"/>
        <pt x="210" y="548" on="0"/>
        <pt x="161" y="426" on="0"/>
        <pt x="161" y="350" on="1"/>
        <pt x="161" y="274" on="0"/>
        <pt x="210" y="152" on="0"/>
        <pt x="299" y="68" on="0"/>
        <pt x="428" y="23" on="0"/>
      </contour>
      <contour>
        <pt x="521" y="165" on="1"/>
        <pt x="472" y="165" on="0"/>
        <pt x="397" y="194" on="0"/>
        <pt x="347" y="245" on="0"/>
        <pt x="321" y="314" on="0"/>
        <pt x="321" y="353" on="1"/>
        <pt x="321" y="392" on="0"/>
        <pt x="349" y="461" on="0"/>
        <pt x="401" y="512" on="0"/>
        <pt x="477" y="542" on="0"/>
        <pt x="525" y="542" on="1"/>
        <pt x="568" y="542" on="0"/>
        <pt x="640" y="517" on="0"/>
        <pt x="665" y="497" on="1"/>
        <pt x="665" y="426" on="1"/>
        <pt x="664" y="426" on="1"/>
        <pt x="634" y="448" on="0"/>
        <pt x="569" y="476" on="0"/>
        <pt x="531" y="476" on="1"/>
        <pt x="471" y="476" on="0"/>
        <pt x="399" y="404" on="0"/>
        <pt x="399" y="353" on="1"/>
        <pt x="399" y="299" on="0"/>
        <pt x="464" y="231" on="0"/>
        <pt x="530" y="231" on="1"/>
        <pt x="573" y="231" on="0"/>
        <pt x="636" y="259" on="0"/>
        <pt x="665" y="281" on="1"/>
        <pt x="666" y="281" on="1"/>
        <pt x="666" y="209" on="1"/>
        <pt x="643" y="193" on="0"/>
        <pt x="570" y="165" on="0"/>
      </contour>
    </TTGlyph>
    <TTGlyph name="d" xMin="51" yMin="-12" xMax="655" yMax="750">
      <contour>
        <pt x="238" y="-12" on="1"/>
        <pt x="200" y="-12" on="0"/>
        <pt x="131" y="14" on="0"/>
        <pt x="81" y="66" on="0"/>
        <pt x="51" y="145" on="0"/>
        <pt x="51" y="198" on="1"/>
        <pt x="51" y="269" on="0"/>
        <pt x="96" y="396" on="0"/>
        <pt x="176" y="491" on="0"/>
        <pt x="286" y="547" on="0"/>
        <pt x="350" y="547" on="1"/>
        <pt x="400" y="547" on="0"/>
        <pt x="476" y="513" on="0"/>
        <pt x="501" y="487" on="1"/>
        <pt x="557" y="750" on="1"/>
        <pt x="655" y="750" on="1"/>
        <pt x="495" y="0" on="1"/>
        <pt x="399" y="0" on="1"/>
        <pt x="415" y="75" on="1"/>
        <pt x="380" y="38" on="0"/>
        <pt x="292" y="-12" on="0"/>
      </contour>
      <contour>
        <pt x="272" y="70" on="1"/>
        <pt x="315" y="70" on="0"/>
        <pt x="396" y="111" on="0"/>
        <pt x="429" y="146" on="1"/>
        <pt x="483" y="404" on="1"/>
        <pt x="463" y="430" on="0"/>
        <pt x="396" y="464" on="0"/>
        <pt x="353" y="464" on="1"/>
        <pt x="306" y="464" on="0"/>
        <pt x="230" y="421" on="0"/>
        <pt x="177" y="349" on="0"/>
        <pt x="149" y="256" on="0"/>
        <pt x="149" y="207" on="1"/>
        <pt x="149" y="136" on="0"/>
        <pt x="218" y="70" on="0"/>
      </contour>
    </TTGlyph>
    <TTGlyph name="d.sc" xMin="59" yMin="0" xMax="681" yMax="582">
      <contour>
        <pt x="59" y="0" on="1"/>
        <pt x="183" y="582" on="1"/>
        <pt x="395" y="582" on="1"/>
        <pt x="469" y="582" on="0"/>
        <pt x="577" y="546" on="0"/>
        <pt x="647" y="481" on="0"/>
        <pt x="681" y="392" on="0"/>
        <pt x="681" y="339" on="1"/>
        <pt x="681" y="275" on="0"/>
        <pt x="638" y="153" on="0"/>
        <pt x="546" y="58" on="0"/>
        <pt x="400" y="0" on="0"/>
        <pt x="297" y="0" on="1"/>
      </contour>
      <contour>
        <pt x="582" y="332" on="1"/>
        <pt x="582" y="409" on="0"/>
        <pt x="488" y="498" on="0"/>
        <pt x="388" y="498" on="1"/>
        <pt x="263" y="498" on="1"/>
        <pt x="175" y="85" on="1"/>
        <pt x="310" y="85" on="1"/>
        <pt x="382" y="85" on="0"/>
        <pt x="486" y="126" on="0"/>
        <pt x="551" y="194" on="0"/>
        <pt x="582" y="283" on="0"/>
      </contour>
    </TTGlyph>
    <TTGlyph name="dagger" xMin="125" yMin="198" xMax="515" yMax="711">
      <contour>
        <pt x="209" y="198" on="1"/>
        <pt x="274" y="501" on="1"/>
        <pt x="125" y="501" on="1"/>
        <pt x="149" y="573" on="1"/>
        <pt x="289" y="573" on="1"/>
        <pt x="319" y="711" on="1"/>
        <pt x="403" y="711" on="1"/>
        <pt x="374" y="573" on="1"/>
        <pt x="515" y="573" on="1"/>
        <pt x="500" y="501" on="1"/>
        <pt x="358" y="501" on="1"/>
        <pt x="294" y="198" on="1"/>
      </contour>
    </TTGlyph>
    <TTGlyph name="daggerdbl" xMin="89" yMin="152" xMax="515" yMax="711">
      <contour>
        <pt x="200" y="152" on="1"/>
        <pt x="230" y="291" on="1"/>
        <pt x="89" y="291" on="1"/>
        <pt x="104" y="363" on="1"/>
        <pt x="245" y="363" on="1"/>
        <pt x="274" y="501" on="1"/>
        <pt x="125" y="501" on="1"/>
        <pt x="149" y="573" on="1"/>
        <pt x="290" y="573" on="1"/>
        <pt x="319" y="711" on="1"/>
        <pt x="404" y="711" on="1"/>
        <pt x="375" y="573" on="1"/>
        <pt x="515" y="573" on="1"/>
        <pt x="500" y="501" on="1"/>
        <pt x="359" y="501" on="1"/>
        <pt x="330" y="363" on="1"/>
        <pt x="479" y="363" on="1"/>
        <pt x="456" y="291" on="1"/>
        <pt x="315" y="291" on="1"/>
        <pt x="285" y="152" on="1"/>
      </contour>
    </TTGlyph>
    <TTGlyph name="dcaron" xMin="51" yMin="-12" xMax="848" yMax="751">
      <component glyphName="d" x="0" y="0" flags="0x204"/>
      <component glyphName="caron.alt" x="446" y="-22" flags="0x4"/>
    </TTGlyph>
    <TTGlyph name="dcaron.sc" xMin="59" yMin="0" xMax="681" yMax="854">
      <component glyphName="d.sc" x="0" y="0" flags="0x204"/>
      <component glyphName="caron" x="97" y="50" flags="0x4"/>
    </TTGlyph>
    <TTGlyph name="dcroat" xMin="49" yMin="-12" xMax="715" yMax="750">
      <contour>
        <pt x="235" y="-12" on="1"/>
        <pt x="197" y="-12" on="0"/>
        <pt x="128" y="13" on="0"/>
        <pt x="78" y="65" on="0"/>
        <pt x="49" y="143" on="0"/>
        <pt x="49" y="194" on="1"/>
        <pt x="49" y="260" on="0"/>
        <pt x="94" y="378" on="0"/>
        <pt x="173" y="465" on="0"/>
        <pt x="283" y="516" on="0"/>
        <pt x="347" y="516" on="1"/>
        <pt x="395" y="516" on="0"/>
        <pt x="468" y="489" on="0"/>
        <pt x="494" y="467" on="1"/>
        <pt x="521" y="595" on="1"/>
        <pt x="333" y="595" on="1"/>
        <pt x="347" y="661" on="1"/>
        <pt x="535" y="661" on="1"/>
        <pt x="554" y="750" on="1"/>
        <pt x="652" y="750" on="1"/>
        <pt x="633" y="661" on="1"/>
        <pt x="715" y="661" on="1"/>
        <pt x="714" y="595" on="1"/>
        <pt x="619" y="595" on="1"/>
        <pt x="493" y="0" on="1"/>
        <pt x="396" y="0" on="1"/>
        <pt x="413" y="75" on="1"/>
        <pt x="378" y="38" on="0"/>
        <pt x="289" y="-11" on="0"/>
      </contour>
      <contour>
        <pt x="269" y="70" on="1"/>
        <pt x="312" y="70" on="0"/>
        <pt x="392" y="112" on="0"/>
        <pt x="426" y="147" on="1"/>
        <pt x="476" y="381" on="1"/>
        <pt x="454" y="404" on="0"/>
        <pt x="390" y="433" on="0"/>
        <pt x="350" y="433" on="1"/>
        <pt x="303" y="433" on="0"/>
        <pt x="227" y="395" on="0"/>
        <pt x="175" y="332" on="0"/>
        <pt x="147" y="249" on="0"/>
        <pt x="147" y="205" on="1"/>
        <pt x="147" y="136" on="0"/>
        <pt x="215" y="70" on="0"/>
      </contour>
    </TTGlyph>
    <TTGlyph name="dcroat.sc" xMin="48" yMin="0" xMax="714" yMax="582">
      <component glyphName="eth.sc" x="0" y="0" flags="0x204"/>
    </TTGlyph>
    <TTGlyph name="degree" xMin="120" yMin="298" xMax="554" yMax="711">
      <contour>
        <pt x="353" y="711" on="1"/>
        <pt x="448" y="711" on="0"/>
        <pt x="554" y="604" on="0"/>
        <pt x="554" y="523" on="1"/>
        <pt x="554" y="478" on="0"/>
        <pt x="522" y="396" on="0"/>
        <pt x="463" y="334" on="0"/>
        <pt x="376" y="298" on="0"/>
        <pt x="321" y="298" on="1"/>
        <pt x="225" y="298" on="0"/>
        <pt x="120" y="405" on="0"/>
        <pt x="120" y="486" on="1"/>
        <pt x="120" y="531" on="0"/>
        <pt x="151" y="613" on="0"/>
        <pt x="211" y="675" on="0"/>
        <pt x="298" y="711" on="0"/>
      </contour>
      <contour>
        <pt x="324" y="375" on="1"/>
        <pt x="389" y="375" on="0"/>
        <pt x="466" y="459" on="0"/>
        <pt x="466" y="519" on="1"/>
        <pt x="466" y="568" on="0"/>
        <pt x="407" y="635" on="0"/>
        <pt x="350" y="635" on="1"/>
        <pt x="284" y="635" on="0"/>
        <pt x="208" y="551" on="0"/>
        <pt x="208" y="491" on="1"/>
        <pt x="208" y="442" on="0"/>
        <pt x="267" y="375" on="0"/>
      </contour>
    </TTGlyph>
    <TTGlyph name="degree.tab" xMin="152" yMin="298" xMax="586" yMax="711">
      <component glyphName="degree" x="32" y="0" flags="0x4"/>
    </TTGlyph>
    <TTGlyph name="dieresis" xMin="152" yMin="628" xMax="530" yMax="744">
      <contour>
        <pt x="280" y="692" on="1"/>
        <pt x="280" y="667" on="0"/>
        <pt x="243" y="628" on="0"/>
        <pt x="210" y="628" on="1"/>
        <pt x="182" y="628" on="0"/>
        <pt x="152" y="659" on="0"/>
        <pt x="152" y="681" on="1"/>
        <pt x="152" y="706" on="0"/>
        <pt x="190" y="744" on="0"/>
        <pt x="222" y="744" on="1"/>
        <pt x="250" y="744" on="0"/>
        <pt x="280" y="714" on="0"/>
      </contour>
      <contour>
        <pt x="530" y="692" on="1"/>
        <pt x="530" y="667" on="0"/>
        <pt x="492" y="628" on="0"/>
        <pt x="459" y="628" on="1"/>
        <pt x="432" y="628" on="0"/>
        <pt x="401" y="659" on="0"/>
        <pt x="401" y="681" on="1"/>
        <pt x="401" y="706" on="0"/>
        <pt x="439" y="744" on="0"/>
        <pt x="471" y="744" on="1"/>
        <pt x="499" y="744" on="0"/>
        <pt x="530" y="714" on="0"/>
      </contour>
    </TTGlyph>
    <TTGlyph name="divide" xMin="112" yMin="71" xMax="687" yMax="632">
      <contour>
        <pt x="449" y="632" on="1"/>
        <pt x="479" y="632" on="0"/>
        <pt x="514" y="599" on="0"/>
        <pt x="514" y="575" on="1"/>
        <pt x="514" y="547" on="0"/>
        <pt x="473" y="506" on="0"/>
        <pt x="439" y="506" on="1"/>
        <pt x="408" y="506" on="0"/>
        <pt x="374" y="538" on="0"/>
        <pt x="374" y="563" on="1"/>
        <pt x="374" y="591" on="0"/>
        <pt x="415" y="632" on="0"/>
      </contour>
      <contour>
        <pt x="687" y="394" on="1"/>
        <pt x="668" y="308" on="1"/>
        <pt x="112" y="308" on="1"/>
        <pt x="130" y="394" on="1"/>
      </contour>
      <contour>
        <pt x="285" y="128" on="1"/>
        <pt x="285" y="156" on="0"/>
        <pt x="326" y="197" on="0"/>
        <pt x="360" y="197" on="1"/>
        <pt x="390" y="197" on="0"/>
        <pt x="425" y="164" on="0"/>
        <pt x="425" y="139" on="1"/>
        <pt x="425" y="111" on="0"/>
        <pt x="384" y="71" on="0"/>
        <pt x="350" y="71" on="1"/>
        <pt x="320" y="71" on="0"/>
        <pt x="285" y="103" on="0"/>
      </contour>
    </TTGlyph>
    <TTGlyph name="divide.tab" xMin="94" yMin="71" xMax="669" yMax="632">
      <component glyphName="divide" x="-18" y="0" flags="0x4"/>
    </TTGlyph>
    <TTGlyph name="dollar" xMin="54" yMin="-116" xMax="649" yMax="805">
      <contour>
        <pt x="74" y="193" on="1"/>
        <pt x="102" y="173" on="0"/>
        <pt x="172" y="138" on="0"/>
        <pt x="247" y="112" on="0"/>
        <pt x="325" y="97" on="0"/>
        <pt x="360" y="97" on="1"/>
        <pt x="435" y="97" on="0"/>
        <pt x="506" y="154" on="0"/>
        <pt x="506" y="198" on="1"/>
        <pt x="506" y="238" on="0"/>
        <pt x="432" y="284" on="0"/>
        <pt x="342" y="313" on="1"/>
        <pt x="296" y="328" on="0"/>
        <pt x="221" y="359" on="0"/>
        <pt x="168" y="400" on="0"/>
        <pt x="139" y="455" on="0"/>
        <pt x="139" y="495" on="1"/>
        <pt x="139" y="535" on="0"/>
        <pt x="170" y="605" on="0"/>
        <pt x="232" y="657" on="0"/>
        <pt x="325" y="688" on="0"/>
        <pt x="385" y="688" on="1"/>
        <pt x="387" y="688" on="0"/>
        <pt x="393" y="688" on="0"/>
        <pt x="395" y="688" on="1"/>
        <pt x="420" y="805" on="1"/>
        <pt x="510" y="805" on="1"/>
        <pt x="482" y="677" on="1"/>
        <pt x="531" y="667" on="0"/>
        <pt x="617" y="629" on="0"/>
        <pt x="649" y="607" on="1"/>
        <pt x="630" y="518" on="1"/>
        <pt x="629" y="518" on="1"/>
        <pt x="577" y="555" on="0"/>
        <pt x="444" y="602" on="0"/>
        <pt x="382" y="602" on="1"/>
        <pt x="312" y="602" on="0"/>
        <pt x="234" y="550" on="0"/>
        <pt x="234" y="504" on="1"/>
        <pt x="234" y="465" on="0"/>
        <pt x="309" y="421" on="0"/>
        <pt x="395" y="393" on="1"/>
        <pt x="488" y="363" on="0"/>
        <pt x="602" y="286" on="0"/>
        <pt x="602" y="204" on="1"/>
        <pt x="602" y="164" on="0"/>
        <pt x="572" y="93" on="0"/>
        <pt x="510" y="42" on="0"/>
        <pt x="415" y="12" on="0"/>
        <pt x="352" y="12" on="1"/>
        <pt x="350" y="12" on="0"/>
        <pt x="346" y="12" on="0"/>
        <pt x="344" y="12" on="1"/>
        <pt x="319" y="-106" on="1"/>
        <pt x="228" y="-116" on="1"/>
        <pt x="257" y="21" on="1"/>
        <pt x="198" y="32" on="0"/>
        <pt x="93" y="76" on="0"/>
        <pt x="54" y="103" on="1"/>
        <pt x="73" y="193" on="1"/>
      </contour>
    </TTGlyph>
    <TTGlyph name="dollar.tab" xMin="75" yMin="-116" xMax="669" yMax="805">
      <contour>
        <pt x="95" y="193" on="1"/>
        <pt x="123" y="173" on="0"/>
        <pt x="193" y="138" on="0"/>
        <pt x="268" y="112" on="0"/>
        <pt x="345" y="97" on="0"/>
        <pt x="380" y="97" on="1"/>
        <pt x="455" y="97" on="0"/>
        <pt x="526" y="154" on="0"/>
        <pt x="526" y="198" on="1"/>
        <pt x="526" y="238" on="0"/>
        <pt x="453" y="284" on="0"/>
        <pt x="363" y="313" on="1"/>
        <pt x="317" y="328" on="0"/>
        <pt x="242" y="359" on="0"/>
        <pt x="189" y="400" on="0"/>
        <pt x="160" y="456" on="0"/>
        <pt x="160" y="496" on="1"/>
        <pt x="160" y="535" on="0"/>
        <pt x="191" y="605" on="0"/>
        <pt x="253" y="657" on="0"/>
        <pt x="345" y="688" on="0"/>
        <pt x="405" y="688" on="1"/>
        <pt x="407" y="688" on="0"/>
        <pt x="413" y="688" on="0"/>
        <pt x="415" y="688" on="1"/>
        <pt x="440" y="805" on="1"/>
        <pt x="530" y="805" on="1"/>
        <pt x="503" y="677" on="1"/>
        <pt x="552" y="667" on="0"/>
        <pt x="637" y="629" on="0"/>
        <pt x="669" y="607" on="1"/>
        <pt x="650" y="517" on="1"/>
        <pt x="649" y="517" on="1"/>
        <pt x="597" y="555" on="0"/>
        <pt x="464" y="602" on="0"/>
        <pt x="402" y="602" on="1"/>
        <pt x="333" y="602" on="0"/>
        <pt x="255" y="550" on="0"/>
        <pt x="255" y="504" on="1"/>
        <pt x="255" y="466" on="0"/>
        <pt x="329" y="421" on="0"/>
        <pt x="415" y="393" on="1"/>
        <pt x="507" y="363" on="0"/>
        <pt x="622" y="286" on="0"/>
        <pt x="622" y="204" on="1"/>
        <pt x="622" y="164" on="0"/>
        <pt x="592" y="93" on="0"/>
        <pt x="530" y="42" on="0"/>
        <pt x="436" y="12" on="0"/>
        <pt x="373" y="12" on="1"/>
        <pt x="371" y="12" on="0"/>
        <pt x="366" y="12" on="0"/>
        <pt x="365" y="12" on="1"/>
        <pt x="340" y="-106" on="1"/>
        <pt x="248" y="-116" on="1"/>
        <pt x="277" y="21" on="1"/>
        <pt x="219" y="32" on="0"/>
        <pt x="114" y="76" on="0"/>
        <pt x="75" y="103" on="1"/>
        <pt x="94" y="193" on="1"/>
      </contour>
    </TTGlyph>
    <TTGlyph name="dotaccent" xMin="273" yMin="628" xMax="408" yMax="748">
      <contour>
        <pt x="273" y="682" on="1"/>
        <pt x="273" y="707" on="0"/>
        <pt x="312" y="748" on="0"/>
        <pt x="346" y="748" on="1"/>
        <pt x="376" y="748" on="0"/>
        <pt x="408" y="716" on="0"/>
        <pt x="408" y="693" on="1"/>
        <pt x="408" y="668" on="0"/>
        <pt x="369" y="628" on="0"/>
        <pt x="335" y="628" on="1"/>
        <pt x="304" y="628" on="0"/>
        <pt x="273" y="660" on="0"/>
      </contour>
    </TTGlyph>
    <TTGlyph name="dotlessi" xMin="44" yMin="0" xMax="255" yMax="532">
      <contour>
        <pt x="157" y="532" on="1"/>
        <pt x="255" y="532" on="1"/>
        <pt x="141" y="0" on="1"/>
        <pt x="44" y="0" on="1"/>
      </contour>
    </TTGlyph>
    <TTGlyph name="dotlessi.sc" xMin="60" yMin="0" xMax="282" yMax="582">
      <component glyphName="i.sc" x="0" y="0" flags="0x204"/>
    </TTGlyph>
    <TTGlyph name="dotmath" xMin="113" yMin="279" xMax="271" yMax="421">
      <component glyphName="period" x="54" y="291" flags="0x4"/>
    </TTGlyph>
    <TTGlyph name="dotmath.tab" xMin="121" yMin="279" xMax="279" yMax="421">
      <component glyphName="dotmath" x="8" y="0" flags="0x4"/>
    </TTGlyph>
    <TTGlyph name="e" xMin="55" yMin="-14" xMax="549" yMax="547">
      <contour>
        <pt x="313" y="68" on="1"/>
        <pt x="367" y="68" on="0"/>
        <pt x="462" y="101" on="0"/>
        <pt x="502" y="127" on="1"/>
        <pt x="503" y="127" on="1"/>
        <pt x="484" y="36" on="1"/>
        <pt x="450" y="15" on="0"/>
        <pt x="359" y="-14" on="0"/>
        <pt x="301" y="-14" on="1"/>
        <pt x="188" y="-14" on="0"/>
        <pt x="55" y="109" on="0"/>
        <pt x="55" y="219" on="1"/>
        <pt x="55" y="287" on="0"/>
        <pt x="100" y="407" on="0"/>
        <pt x="178" y="495" on="0"/>
        <pt x="287" y="547" on="0"/>
        <pt x="350" y="547" on="1"/>
        <pt x="441" y="547" on="0"/>
        <pt x="549" y="439" on="0"/>
        <pt x="549" y="346" on="1"/>
        <pt x="549" y="322" on="0"/>
        <pt x="542" y="272" on="0"/>
        <pt x="534" y="246" on="1"/>
        <pt x="152" y="246" on="1"/>
        <pt x="152" y="245" on="0"/>
        <pt x="152" y="240" on="0"/>
        <pt x="152" y="238" on="1"/>
        <pt x="150" y="221" on="1"/>
        <pt x="150" y="140" on="0"/>
        <pt x="242" y="68" on="0"/>
      </contour>
      <contour>
        <pt x="341" y="467" on="1"/>
        <pt x="278" y="466" on="0"/>
        <pt x="180" y="380" on="0"/>
        <pt x="162" y="311" on="1"/>
        <pt x="456" y="311" on="1"/>
        <pt x="457" y="320" on="0"/>
        <pt x="459" y="340" on="0"/>
        <pt x="459" y="350" on="1"/>
        <pt x="459" y="403" on="0"/>
        <pt x="401" y="468" on="0"/>
      </contour>
    </TTGlyph>
    <TTGlyph name="e.sc" xMin="59" yMin="0" xMax="634" yMax="582">
      <contour>
        <pt x="59" y="0" on="1"/>
        <pt x="183" y="582" on="1"/>
        <pt x="634" y="582" on="1"/>
        <pt x="630" y="499" on="1"/>
        <pt x="261" y="499" on="1"/>
        <pt x="227" y="337" on="1"/>
        <pt x="524" y="337" on="1"/>
        <pt x="506" y="256" on="1"/>
        <pt x="210" y="256" on="1"/>
        <pt x="173" y="84" on="1"/>
        <pt x="559" y="84" on="1"/>
        <pt x="532" y="0" on="1"/>
      </contour>
    </TTGlyph>
    <TTGlyph name="eacute" xMin="55" yMin="-14" xMax="611" yMax="809">
      <component glyphName="e" x="0" y="0" flags="0x204"/>
      <component glyphName="acute" x="98" y="15" flags="0x4"/>
    </TTGlyph>
    <TTGlyph name="eacute.sc" xMin="59" yMin="0" xMax="659" yMax="844">
      <component glyphName="e.sc" x="0" y="0" flags="0x204"/>
      <component glyphName="acute" x="146" y="50" flags="0x4"/>
    </TTGlyph>
    <TTGlyph name="ebreve" xMin="55" yMin="-14" xMax="575" yMax="821">
      <component glyphName="e" x="0" y="0" flags="0x204"/>
      <component glyphName="breve" x="45" y="15" flags="0x4"/>
    </TTGlyph>
    <TTGlyph name="ebreve.sc" xMin="59" yMin="0" xMax="634" yMax="856">
      <component glyphName="e.sc" x="0" y="0" flags="0x204"/>
      <component glyphName="breve" x="93" y="50" flags="0x4"/>
    </TTGlyph>
    <TTGlyph name="ecaron" xMin="55" yMin="-14" xMax="616" yMax="819">
      <component glyphName="e" x="0" y="0" flags="0x204"/>
      <component glyphName="caron" x="46" y="15" flags="0x4"/>
    </TTGlyph>
    <TTGlyph name="ecaron.sc" xMin="59" yMin="0" xMax="663" yMax="854">
      <component glyphName="e.sc" x="0" y="0" flags="0x204"/>
      <component glyphName="caron" x="93" y="50" flags="0x4"/>
    </TTGlyph>
    <TTGlyph name="ecircumflex" xMin="55" yMin="-14" xMax="579" yMax="819">
      <component glyphName="e" x="0" y="0" flags="0x204"/>
      <component glyphName="circumflex" x="45" y="15" flags="0x4"/>
    </TTGlyph>
    <TTGlyph name="ecircumflex.sc" xMin="59" yMin="0" xMax="634" yMax="854">
      <component glyphName="e.sc" x="0" y="0" flags="0x204"/>
      <component glyphName="circumflex" x="93" y="50" flags="0x4"/>
    </TTGlyph>
    <TTGlyph name="edieresis" xMin="55" yMin="-14" xMax="575" yMax="759">
      <component glyphName="e" x="0" y="0" flags="0x204"/>
      <component glyphName="dieresis" x="45" y="15" flags="0x4"/>
    </TTGlyph>
    <TTGlyph name="edieresis.sc" xMin="59" yMin="0" xMax="634" yMax="794">
      <component glyphName="e.sc" x="0" y="0" flags="0x204"/>
      <component glyphName="dieresis" x="93" y="50" flags="0x4"/>
    </TTGlyph>
    <TTGlyph name="edotaccent" xMin="55" yMin="-14" xMax="549" yMax="763">
      <component glyphName="e" x="0" y="0" flags="0x204"/>
      <component glyphName="dotaccent" x="45" y="15" flags="0x4"/>
    </TTGlyph>
    <TTGlyph name="edotaccent.sc" xMin="59" yMin="0" xMax="634" yMax="798">
      <component glyphName="e.sc" x="0" y="0" flags="0x204"/>
      <component glyphName="dotaccent" x="92" y="50" flags="0x4"/>
    </TTGlyph>
    <TTGlyph name="egrave" xMin="55" yMin="-14" xMax="549" yMax="809">
      <component glyphName="e" x="0" y="0" flags="0x204"/>
      <component glyphName="grave" x="-9" y="15" flags="0x4"/>
    </TTGlyph>
    <TTGlyph name="egrave.sc" xMin="59" yMin="0" xMax="634" yMax="844">
      <component glyphName="e.sc" x="0" y="0" flags="0x204"/>
      <component glyphName="grave" x="38" y="50" flags="0x4"/>
    </TTGlyph>
    <TTGlyph name="eight" xMin="51" yMin="-22" xMax="695" yMax="719">
      <contour>
        <pt x="335" y="-22" on="1"/>
        <pt x="196" y="-22" on="0"/>
        <pt x="51" y="82" on="0"/>
        <pt x="51" y="164" on="1"/>
        <pt x="51" y="239" on="0"/>
        <pt x="158" y="344" on="0"/>
        <pt x="254" y="361" on="1"/>
        <pt x="199" y="381" on="0"/>
        <pt x="138" y="459" on="0"/>
        <pt x="138" y="510" on="1"/>
        <pt x="138" y="551" on="0"/>
        <pt x="174" y="627" on="0"/>
        <pt x="246" y="684" on="0"/>
        <pt x="356" y="719" on="0"/>
        <pt x="430" y="719" on="1"/>
        <pt x="495" y="719" on="0"/>
        <pt x="594" y="690" on="0"/>
        <pt x="661" y="639" on="0"/>
        <pt x="695" y="570" on="0"/>
        <pt x="695" y="530" on="1"/>
        <pt x="695" y="456" on="0"/>
        <pt x="592" y="361" on="0"/>
        <pt x="514" y="345" on="1"/>
        <pt x="574" y="324" on="0"/>
        <pt x="644" y="246" on="0"/>
        <pt x="644" y="186" on="1"/>
        <pt x="644" y="143" on="0"/>
        <pt x="604" y="66" on="0"/>
        <pt x="526" y="11" on="0"/>
        <pt x="410" y="-22" on="0"/>
      </contour>
      <contour>
        <pt x="406" y="388" on="1"/>
        <pt x="485" y="388" on="0"/>
        <pt x="593" y="459" on="0"/>
        <pt x="593" y="521" on="1"/>
        <pt x="593" y="575" on="0"/>
        <pt x="505" y="637" on="0"/>
        <pt x="427" y="637" on="1"/>
        <pt x="387" y="637" on="0"/>
        <pt x="318" y="619" on="0"/>
        <pt x="268" y="585" on="0"/>
        <pt x="239" y="535" on="0"/>
        <pt x="239" y="504" on="1"/>
        <pt x="239" y="450" on="0"/>
        <pt x="328" y="388" on="0"/>
      </contour>
      <contour>
        <pt x="358" y="315" on="1"/>
        <pt x="266" y="315" on="0"/>
        <pt x="154" y="241" on="0"/>
        <pt x="154" y="179" on="1"/>
        <pt x="154" y="125" on="0"/>
        <pt x="249" y="60" on="0"/>
        <pt x="338" y="60" on="1"/>
        <pt x="429" y="60" on="0"/>
        <pt x="541" y="134" on="0"/>
        <pt x="541" y="195" on="1"/>
        <pt x="541" y="250" on="0"/>
        <pt x="446" y="315" on="0"/>
      </contour>
    </TTGlyph>
    <TTGlyph name="eight.den" xMin="-1" yMin="-12" xMax="380" yMax="414">
      <component glyphName="eight.small" x="-14" y="0" flags="0x4"/>
    </TTGlyph>
    <TTGlyph name="eight.den_tab" xMin="-19" yMin="-12" xMax="362" yMax="414">
      <component glyphName="eight.small" x="-32" y="0" flags="0x4"/>
    </TTGlyph>
    <TTGlyph name="eight.inf" xMin="-7" yMin="-202" xMax="374" yMax="224">
      <component glyphName="eight.small" x="-20" y="-190" flags="0x4"/>
    </TTGlyph>
    <TTGlyph name="eight.num" xMin="90" yMin="285" xMax="471" yMax="711">
      <component glyphName="eight.small" x="77" y="297" flags="0x4"/>
    </TTGlyph>
    <TTGlyph name="eight.num_tab" xMin="72" yMin="285" xMax="453" yMax="711">
      <component glyphName="eight.small" x="59" y="297" flags="0x4"/>
    </TTGlyph>
    <TTGlyph name="eight.osf" xMin="56" yMin="-22" xMax="657" yMax="719">
      <contour>
        <pt x="412" y="719" on="1"/>
        <pt x="473" y="719" on="0"/>
        <pt x="565" y="690" on="0"/>
        <pt x="626" y="639" on="0"/>
        <pt x="657" y="571" on="0"/>
        <pt x="657" y="532" on="1"/>
        <pt x="657" y="460" on="0"/>
        <pt x="564" y="360" on="0"/>
        <pt x="489" y="344" on="1"/>
        <pt x="547" y="322" on="0"/>
        <pt x="609" y="240" on="0"/>
        <pt x="609" y="185" on="1"/>
        <pt x="609" y="143" on="0"/>
        <pt x="573" y="67" on="0"/>
        <pt x="501" y="11" on="0"/>
        <pt x="393" y="-22" on="0"/>
        <pt x="322" y="-22" on="1"/>
        <pt x="196" y="-22" on="0"/>
        <pt x="56" y="78" on="0"/>
        <pt x="56" y="165" on="1"/>
        <pt x="56" y="240" on="0"/>
        <pt x="161" y="343" on="0"/>
        <pt x="245" y="361" on="1"/>
        <pt x="198" y="383" on="0"/>
        <pt x="142" y="455" on="0"/>
        <pt x="142" y="511" on="1"/>
        <pt x="142" y="552" on="0"/>
        <pt x="178" y="627" on="0"/>
        <pt x="246" y="685" on="0"/>
        <pt x="347" y="719" on="0"/>
      </contour>
      <contour>
        <pt x="409" y="639" on="1"/>
        <pt x="335" y="639" on="0"/>
        <pt x="239" y="565" on="0"/>
        <pt x="239" y="505" on="1"/>
        <pt x="239" y="450" on="0"/>
        <pt x="321" y="389" on="0"/>
        <pt x="390" y="389" on="1"/>
        <pt x="464" y="389" on="0"/>
        <pt x="560" y="463" on="0"/>
        <pt x="560" y="523" on="1"/>
        <pt x="560" y="577" on="0"/>
        <pt x="478" y="639" on="0"/>
      </contour>
      <contour>
        <pt x="324" y="58" on="1"/>
        <pt x="407" y="58" on="0"/>
        <pt x="509" y="133" on="0"/>
        <pt x="509" y="195" on="1"/>
        <pt x="509" y="249" on="0"/>
        <pt x="421" y="314" on="0"/>
        <pt x="341" y="314" on="1"/>
        <pt x="260" y="314" on="0"/>
        <pt x="156" y="239" on="0"/>
        <pt x="156" y="177" on="1"/>
        <pt x="156" y="123" on="0"/>
        <pt x="244" y="58" on="0"/>
      </contour>
    </TTGlyph>
    <TTGlyph name="eight.small" xMin="13" yMin="-12" xMax="394" yMax="414">
      <contour>
        <pt x="182" y="-12" on="1"/>
        <pt x="99" y="-12" on="0"/>
        <pt x="13" y="47" on="0"/>
        <pt x="13" y="95" on="1"/>
        <pt x="13" y="138" on="0"/>
        <pt x="74" y="199" on="0"/>
        <pt x="127" y="208" on="1"/>
        <pt x="96" y="219" on="0"/>
        <pt x="63" y="263" on="0"/>
        <pt x="63" y="293" on="1"/>
        <pt x="63" y="340" on="0"/>
        <pt x="148" y="414" on="0"/>
        <pt x="237" y="414" on="1"/>
        <pt x="315" y="414" on="0"/>
        <pt x="394" y="350" on="0"/>
        <pt x="394" y="304" on="1"/>
        <pt x="394" y="262" on="0"/>
        <pt x="336" y="208" on="0"/>
        <pt x="293" y="199" on="1"/>
        <pt x="327" y="186" on="0"/>
        <pt x="366" y="142" on="0"/>
        <pt x="366" y="109" on="1"/>
        <pt x="366" y="58" on="0"/>
        <pt x="273" y="-12" on="0"/>
      </contour>
      <contour>
        <pt x="223" y="229" on="1"/>
        <pt x="266" y="229" on="0"/>
        <pt x="321" y="264" on="0"/>
        <pt x="321" y="294" on="1"/>
        <pt x="321" y="321" on="0"/>
        <pt x="275" y="353" on="0"/>
        <pt x="234" y="353" on="1"/>
        <pt x="191" y="353" on="0"/>
        <pt x="136" y="318" on="0"/>
        <pt x="136" y="287" on="1"/>
        <pt x="136" y="260" on="0"/>
        <pt x="182" y="229" on="0"/>
      </contour>
      <contour>
        <pt x="194" y="177" on="1"/>
        <pt x="145" y="177" on="0"/>
        <pt x="88" y="140" on="0"/>
        <pt x="88" y="109" on="1"/>
        <pt x="88" y="81" on="0"/>
        <pt x="138" y="49" on="0"/>
        <pt x="184" y="49" on="1"/>
        <pt x="234" y="49" on="0"/>
        <pt x="290" y="86" on="0"/>
        <pt x="290" y="117" on="1"/>
        <pt x="290" y="145" on="0"/>
        <pt x="240" y="177" on="0"/>
      </contour>
    </TTGlyph>
    <TTGlyph name="eight.sup" xMin="108" yMin="340" xMax="489" yMax="766">
      <component glyphName="eight.small" x="95" y="352" flags="0x4"/>
    </TTGlyph>
    <TTGlyph name="eight.tab" xMin="56" yMin="-22" xMax="696" yMax="719">
      <contour>
        <pt x="338" y="-22" on="1"/>
        <pt x="200" y="-22" on="0"/>
        <pt x="56" y="82" on="0"/>
        <pt x="56" y="164" on="1"/>
        <pt x="56" y="239" on="0"/>
        <pt x="164" y="344" on="0"/>
        <pt x="258" y="361" on="1"/>
        <pt x="204" y="381" on="0"/>
        <pt x="143" y="459" on="0"/>
        <pt x="143" y="510" on="1"/>
        <pt x="143" y="551" on="0"/>
        <pt x="179" y="627" on="0"/>
        <pt x="250" y="684" on="0"/>
        <pt x="360" y="719" on="0"/>
        <pt x="433" y="719" on="1"/>
        <pt x="497" y="719" on="0"/>
        <pt x="596" y="690" on="0"/>
        <pt x="662" y="639" on="0"/>
        <pt x="696" y="570" on="0"/>
        <pt x="696" y="530" on="1"/>
        <pt x="696" y="456" on="0"/>
        <pt x="592" y="361" on="0"/>
        <pt x="514" y="345" on="1"/>
        <pt x="574" y="324" on="0"/>
        <pt x="645" y="246" on="0"/>
        <pt x="645" y="186" on="1"/>
        <pt x="645" y="143" on="0"/>
        <pt x="605" y="66" on="0"/>
        <pt x="528" y="11" on="0"/>
        <pt x="413" y="-22" on="0"/>
      </contour>
      <contour>
        <pt x="409" y="388" on="1"/>
        <pt x="487" y="388" on="0"/>
        <pt x="594" y="459" on="0"/>
        <pt x="594" y="521" on="1"/>
        <pt x="594" y="575" on="0"/>
        <pt x="507" y="637" on="0"/>
        <pt x="430" y="637" on="1"/>
        <pt x="352" y="637" on="0"/>
        <pt x="245" y="566" on="0"/>
        <pt x="245" y="504" on="1"/>
        <pt x="245" y="450" on="0"/>
        <pt x="332" y="388" on="0"/>
      </contour>
      <contour>
        <pt x="361" y="315" on="1"/>
        <pt x="270" y="315" on="0"/>
        <pt x="160" y="241" on="0"/>
        <pt x="160" y="179" on="1"/>
        <pt x="160" y="125" on="0"/>
        <pt x="254" y="60" on="0"/>
        <pt x="341" y="60" on="1"/>
        <pt x="431" y="60" on="0"/>
        <pt x="541" y="134" on="0"/>
        <pt x="541" y="195" on="1"/>
        <pt x="541" y="250" on="0"/>
        <pt x="448" y="315" on="0"/>
      </contour>
    </TTGlyph>
    <TTGlyph name="ellipsis" xMin="59" yMin="-12" xMax="941" yMax="130">
      <contour>
        <pt x="59" y="52" on="1"/>
        <pt x="59" y="83" on="0"/>
        <pt x="105" y="130" on="0"/>
        <pt x="145" y="130" on="1"/>
        <pt x="179" y="130" on="0"/>
        <pt x="217" y="93" on="0"/>
        <pt x="217" y="65" on="1"/>
        <pt x="217" y="34" on="0"/>
        <pt x="170" y="-12" on="0"/>
        <pt x="130" y="-12" on="1"/>
        <pt x="96" y="-12" on="0"/>
        <pt x="59" y="25" on="0"/>
      </contour>
      <contour>
        <pt x="421" y="52" on="1"/>
        <pt x="421" y="83" on="0"/>
        <pt x="468" y="130" on="0"/>
        <pt x="508" y="130" on="1"/>
        <pt x="542" y="130" on="0"/>
        <pt x="579" y="93" on="0"/>
        <pt x="579" y="65" on="1"/>
        <pt x="579" y="34" on="0"/>
        <pt x="533" y="-12" on="0"/>
        <pt x="493" y="-12" on="1"/>
        <pt x="459" y="-12" on="0"/>
        <pt x="421" y="25" on="0"/>
      </contour>
      <contour>
        <pt x="784" y="52" on="1"/>
        <pt x="784" y="83" on="0"/>
        <pt x="830" y="130" on="0"/>
        <pt x="870" y="130" on="1"/>
        <pt x="904" y="130" on="0"/>
        <pt x="941" y="93" on="0"/>
        <pt x="941" y="65" on="1"/>
        <pt x="941" y="34" on="0"/>
        <pt x="895" y="-12" on="0"/>
        <pt x="855" y="-12" on="1"/>
        <pt x="821" y="-12" on="0"/>
        <pt x="784" y="25" on="0"/>
      </contour>
    </TTGlyph>
    <TTGlyph name="emacron" xMin="55" yMin="-14" xMax="574" yMax="738">
      <component glyphName="e" x="0" y="0" flags="0x204"/>
      <component glyphName="macron" x="45" y="15" flags="0x4"/>
    </TTGlyph>
    <TTGlyph name="emacron.sc" xMin="59" yMin="0" xMax="634" yMax="773">
      <component glyphName="e.sc" x="0" y="0" flags="0x204"/>
      <component glyphName="macron" x="92" y="50" flags="0x4"/>
    </TTGlyph>
    <TTGlyph name="emdash" xMin="81" yMin="273" xMax="798" yMax="364">
      <contour>
        <pt x="81" y="273" on="1"/>
        <pt x="100" y="364" on="1"/>
        <pt x="798" y="364" on="1"/>
        <pt x="779" y="273" on="1"/>
      </contour>
    </TTGlyph>
    <TTGlyph name="emdash.cap" xMin="88" yMin="304" xMax="805" yMax="395">
      <component glyphName="emdash" x="7" y="31" flags="0x4"/>
    </TTGlyph>
    <TTGlyph name="endash" xMin="81" yMin="273" xMax="641" yMax="364">
      <contour>
        <pt x="81" y="273" on="1"/>
        <pt x="100" y="364" on="1"/>
        <pt x="641" y="364" on="1"/>
        <pt x="621" y="273" on="1"/>
      </contour>
    </TTGlyph>
    <TTGlyph name="endash.cap" xMin="88" yMin="304" xMax="648" yMax="395">
      <component glyphName="endash" x="7" y="31" flags="0x4"/>
    </TTGlyph>
    <TTGlyph name="endash.tab" xMin="91" yMin="304" xMax="671" yMax="396">
      <contour>
        <pt x="91" y="304" on="1"/>
        <pt x="111" y="396" on="1"/>
        <pt x="671" y="396" on="1"/>
        <pt x="652" y="304" on="1"/>
      </contour>
    </TTGlyph>
    <TTGlyph name="eogonek" xMin="55" yMin="-288" xMax="549" yMax="547">
      <contour>
        <pt x="313" y="68" on="1"/>
        <pt x="367" y="68" on="0"/>
        <pt x="462" y="101" on="0"/>
        <pt x="502" y="127" on="1"/>
        <pt x="503" y="127" on="1"/>
        <pt x="484" y="36" on="1"/>
        <pt x="381" y="-53" on="1"/>
        <pt x="330" y="-96" on="0"/>
        <pt x="289" y="-150" on="0"/>
        <pt x="289" y="-172" on="1"/>
        <pt x="289" y="-191" on="0"/>
        <pt x="318" y="-213" on="0"/>
        <pt x="349" y="-213" on="1"/>
        <pt x="371" y="-213" on="0"/>
        <pt x="418" y="-201" on="0"/>
        <pt x="443" y="-188" on="1"/>
        <pt x="427" y="-263" on="1"/>
        <pt x="403" y="-276" on="0"/>
        <pt x="351" y="-288" on="0"/>
        <pt x="323" y="-288" on="1"/>
        <pt x="263" y="-288" on="0"/>
        <pt x="197" y="-233" on="0"/>
        <pt x="197" y="-192" on="1"/>
        <pt x="197" y="-146" on="0"/>
        <pt x="269" y="-65" on="0"/>
        <pt x="332" y="-17" on="1"/>
        <pt x="338" y="-12" on="1"/>
        <pt x="329" y="-13" on="0"/>
        <pt x="311" y="-14" on="0"/>
        <pt x="301" y="-14" on="1"/>
        <pt x="188" y="-14" on="0"/>
        <pt x="55" y="109" on="0"/>
        <pt x="55" y="219" on="1"/>
        <pt x="55" y="287" on="0"/>
        <pt x="100" y="407" on="0"/>
        <pt x="178" y="495" on="0"/>
        <pt x="287" y="547" on="0"/>
        <pt x="350" y="547" on="1"/>
        <pt x="441" y="547" on="0"/>
        <pt x="549" y="439" on="0"/>
        <pt x="549" y="346" on="1"/>
        <pt x="549" y="322" on="0"/>
        <pt x="542" y="272" on="0"/>
        <pt x="534" y="246" on="1"/>
        <pt x="152" y="246" on="1"/>
        <pt x="152" y="245" on="0"/>
        <pt x="152" y="240" on="0"/>
        <pt x="152" y="238" on="1"/>
        <pt x="150" y="221" on="1"/>
        <pt x="150" y="140" on="0"/>
        <pt x="242" y="68" on="0"/>
      </contour>
      <contour>
        <pt x="341" y="467" on="1"/>
        <pt x="278" y="466" on="0"/>
        <pt x="180" y="380" on="0"/>
        <pt x="162" y="311" on="1"/>
        <pt x="456" y="311" on="1"/>
        <pt x="457" y="320" on="0"/>
        <pt x="459" y="340" on="0"/>
        <pt x="459" y="350" on="1"/>
        <pt x="459" y="403" on="0"/>
        <pt x="401" y="468" on="0"/>
      </contour>
    </TTGlyph>
    <TTGlyph name="eogonek.sc" xMin="59" yMin="-289" xMax="634" yMax="582">
      <contour>
        <pt x="59" y="0" on="1"/>
        <pt x="183" y="582" on="1"/>
        <pt x="634" y="582" on="1"/>
        <pt x="630" y="499" on="1"/>
        <pt x="261" y="499" on="1"/>
        <pt x="227" y="337" on="1"/>
        <pt x="524" y="337" on="1"/>
        <pt x="506" y="256" on="1"/>
        <pt x="210" y="256" on="1"/>
        <pt x="173" y="84" on="1"/>
        <pt x="559" y="84" on="1"/>
        <pt x="532" y="0" on="1"/>
        <pt x="464" y="-56" on="1"/>
        <pt x="413" y="-98" on="0"/>
        <pt x="370" y="-150" on="0"/>
        <pt x="370" y="-173" on="1"/>
        <pt x="370" y="-192" on="0"/>
        <pt x="399" y="-214" on="0"/>
        <pt x="429" y="-214" on="1"/>
        <pt x="451" y="-214" on="0"/>
        <pt x="498" y="-202" on="0"/>
        <pt x="523" y="-189" on="1"/>
        <pt x="507" y="-264" on="1"/>
        <pt x="483" y="-277" on="0"/>
        <pt x="431" y="-289" on="0"/>
        <pt x="403" y="-289" on="1"/>
        <pt x="343" y="-289" on="0"/>
        <pt x="278" y="-235" on="0"/>
        <pt x="278" y="-193" on="1"/>
        <pt x="278" y="-147" on="0"/>
        <pt x="347" y="-64" on="0"/>
        <pt x="410" y="-15" on="1"/>
        <pt x="429" y="0" on="1"/>
      </contour>
    </TTGlyph>
    <TTGlyph name="equal" xMin="96" yMin="172" xMax="695" yMax="530">
      <contour>
        <pt x="155" y="444" on="1"/>
        <pt x="173" y="530" on="1"/>
        <pt x="695" y="530" on="1"/>
        <pt x="676" y="444" on="1"/>
      </contour>
      <contour>
        <pt x="96" y="172" on="1"/>
        <pt x="115" y="258" on="1"/>
        <pt x="636" y="258" on="1"/>
        <pt x="618" y="172" on="1"/>
      </contour>
    </TTGlyph>
    <TTGlyph name="equal.tab" xMin="82" yMin="172" xMax="681" yMax="530">
      <component glyphName="equal" x="-14" y="0" flags="0x4"/>
    </TTGlyph>
    <TTGlyph name="eth" xMin="53" yMin="-15" xMax="612" yMax="751">
      <contour>
        <pt x="578" y="328" on="1"/>
        <pt x="578" y="259" on="0"/>
        <pt x="539" y="134" on="0"/>
        <pt x="465" y="41" on="0"/>
        <pt x="359" y="-15" on="0"/>
        <pt x="292" y="-15" on="1"/>
        <pt x="186" y="-15" on="0"/>
        <pt x="53" y="107" on="0"/>
        <pt x="53" y="211" on="1"/>
        <pt x="53" y="269" on="0"/>
        <pt x="90" y="373" on="0"/>
        <pt x="157" y="450" on="0"/>
        <pt x="253" y="496" on="0"/>
        <pt x="312" y="496" on="1"/>
        <pt x="375" y="496" on="0"/>
        <pt x="463" y="441" on="0"/>
        <pt x="488" y="396" on="1"/>
        <pt x="480" y="453" on="0"/>
        <pt x="435" y="558" on="0"/>
        <pt x="390" y="610" on="1"/>
        <pt x="199" y="544" on="1"/>
        <pt x="214" y="613" on="1"/>
        <pt x="343" y="658" on="1"/>
        <pt x="321" y="679" on="0"/>
        <pt x="265" y="723" on="0"/>
        <pt x="231" y="745" on="1"/>
        <pt x="232" y="750" on="1"/>
        <pt x="342" y="750" on="1"/>
        <pt x="365" y="736" on="0"/>
        <pt x="407" y="704" on="0"/>
        <pt x="426" y="687" on="1"/>
        <pt x="612" y="751" on="1"/>
        <pt x="597" y="682" on="1"/>
        <pt x="471" y="638" on="1"/>
        <pt x="523" y="574" on="0"/>
        <pt x="579" y="415" on="0"/>
      </contour>
      <contour>
        <pt x="149" y="219" on="1"/>
        <pt x="149" y="150" on="0"/>
        <pt x="229" y="67" on="0"/>
        <pt x="296" y="67" on="1"/>
        <pt x="342" y="67" on="0"/>
        <pt x="411" y="111" on="0"/>
        <pt x="459" y="182" on="0"/>
        <pt x="483" y="271" on="0"/>
        <pt x="484" y="317" on="1"/>
        <pt x="463" y="368" on="0"/>
        <pt x="381" y="421" on="0"/>
        <pt x="329" y="421" on="1"/>
        <pt x="288" y="421" on="0"/>
        <pt x="221" y="388" on="0"/>
        <pt x="174" y="333" on="0"/>
        <pt x="149" y="260" on="0"/>
      </contour>
    </TTGlyph>
    <TTGlyph name="eth.sc" xMin="48" yMin="0" xMax="714" yMax="582">
      <contour>
        <pt x="93" y="0" on="1"/>
        <pt x="148" y="258" on="1"/>
        <pt x="48" y="258" on="1"/>
        <pt x="71" y="330" on="1"/>
        <pt x="163" y="330" on="1"/>
        <pt x="217" y="582" on="1"/>
        <pt x="429" y="582" on="1"/>
        <pt x="503" y="582" on="0"/>
        <pt x="611" y="546" on="0"/>
        <pt x="680" y="481" on="0"/>
        <pt x="714" y="392" on="0"/>
        <pt x="714" y="339" on="1"/>
        <pt x="714" y="275" on="0"/>
        <pt x="671" y="153" on="0"/>
        <pt x="580" y="58" on="0"/>
        <pt x="434" y="0" on="0"/>
        <pt x="331" y="0" on="1"/>
      </contour>
      <contour>
        <pt x="616" y="332" on="1"/>
        <pt x="615" y="409" on="0"/>
        <pt x="522" y="498" on="0"/>
        <pt x="421" y="498" on="1"/>
        <pt x="296" y="498" on="1"/>
        <pt x="260" y="330" on="1"/>
        <pt x="440" y="330" on="1"/>
        <pt x="425" y="258" on="1"/>
        <pt x="245" y="258" on="1"/>
        <pt x="208" y="85" on="1"/>
        <pt x="344" y="85" on="1"/>
        <pt x="416" y="85" on="0"/>
        <pt x="519" y="126" on="0"/>
        <pt x="585" y="194" on="0"/>
        <pt x="616" y="283" on="0"/>
      </contour>
    </TTGlyph>
    <TTGlyph name="exclam" xMin="69" yMin="-12" xMax="349" yMax="700">
      <contour>
        <pt x="146" y="240" on="1"/>
        <pt x="217" y="698" on="1"/>
        <pt x="217" y="700" on="1"/>
        <pt x="349" y="700" on="1"/>
        <pt x="349" y="698" on="1"/>
        <pt x="223" y="240" on="1"/>
      </contour>
      <contour>
        <pt x="69" y="52" on="1"/>
        <pt x="69" y="83" on="0"/>
        <pt x="115" y="130" on="0"/>
        <pt x="155" y="130" on="1"/>
        <pt x="189" y="130" on="0"/>
        <pt x="226" y="93" on="0"/>
        <pt x="226" y="65" on="1"/>
        <pt x="226" y="34" on="0"/>
        <pt x="180" y="-12" on="0"/>
        <pt x="140" y="-12" on="1"/>
        <pt x="106" y="-12" on="0"/>
        <pt x="69" y="25" on="0"/>
      </contour>
    </TTGlyph>
    <TTGlyph name="exclamdown" xMin="32" yMin="-164" xMax="312" yMax="548">
      <contour>
        <pt x="312" y="484" on="1"/>
        <pt x="312" y="453" on="0"/>
        <pt x="266" y="406" on="0"/>
        <pt x="226" y="406" on="1"/>
        <pt x="192" y="406" on="0"/>
        <pt x="155" y="443" on="0"/>
        <pt x="155" y="471" on="1"/>
        <pt x="155" y="502" on="0"/>
        <pt x="201" y="548" on="0"/>
        <pt x="241" y="548" on="1"/>
        <pt x="275" y="548" on="0"/>
        <pt x="312" y="511" on="0"/>
      </contour>
      <contour>
        <pt x="235" y="296" on="1"/>
        <pt x="164" y="-162" on="1"/>
        <pt x="164" y="-164" on="1"/>
        <pt x="32" y="-164" on="1"/>
        <pt x="32" y="-162" on="1"/>
        <pt x="158" y="296" on="1"/>
      </contour>
    </TTGlyph>
    <TTGlyph name="exclamdown.cap" xMin="67" yMin="0" xMax="347" yMax="712">
      <contour>
        <pt x="347" y="648" on="1"/>
        <pt x="347" y="617" on="0"/>
        <pt x="301" y="570" on="0"/>
        <pt x="261" y="570" on="1"/>
        <pt x="227" y="570" on="0"/>
        <pt x="190" y="607" on="0"/>
        <pt x="190" y="635" on="1"/>
        <pt x="190" y="666" on="0"/>
        <pt x="236" y="712" on="0"/>
        <pt x="276" y="712" on="1"/>
        <pt x="310" y="712" on="0"/>
        <pt x="347" y="675" on="0"/>
      </contour>
      <contour>
        <pt x="270" y="460" on="1"/>
        <pt x="199" y="2" on="1"/>
        <pt x="199" y="0" on="1"/>
        <pt x="67" y="0" on="1"/>
        <pt x="67" y="2" on="1"/>
        <pt x="193" y="460" on="1"/>
      </contour>
    </TTGlyph>
    <TTGlyph name="f" xMin="77" yMin="0" xMax="497" yMax="763">
      <contour>
        <pt x="304" y="570" on="1"/>
        <pt x="296" y="532" on="1"/>
        <pt x="459" y="532" on="1"/>
        <pt x="442" y="452" on="1"/>
        <pt x="279" y="452" on="1"/>
        <pt x="183" y="0" on="1"/>
        <pt x="86" y="0" on="1"/>
        <pt x="183" y="452" on="1"/>
        <pt x="77" y="452" on="1"/>
        <pt x="112" y="532" on="1"/>
        <pt x="200" y="532" on="1"/>
        <pt x="209" y="575" on="1"/>
        <pt x="231" y="682" on="0"/>
        <pt x="336" y="763" on="0"/>
        <pt x="402" y="763" on="1"/>
        <pt x="428" y="763" on="0"/>
        <pt x="478" y="751" on="0"/>
        <pt x="497" y="739" on="1"/>
        <pt x="477" y="661" on="1"/>
        <pt x="476" y="661" on="1"/>
        <pt x="464" y="668" on="0"/>
        <pt x="427" y="680" on="0"/>
        <pt x="408" y="680" on="1"/>
        <pt x="374" y="680" on="0"/>
        <pt x="318" y="636" on="0"/>
      </contour>
    </TTGlyph>
    <TTGlyph name="f.sc" xMin="59" yMin="0" xMax="619" yMax="582">
      <contour>
        <pt x="262" y="498" on="1"/>
        <pt x="225" y="326" on="1"/>
        <pt x="516" y="326" on="1"/>
        <pt x="497" y="241" on="1"/>
        <pt x="208" y="241" on="1"/>
        <pt x="156" y="0" on="1"/>
        <pt x="59" y="0" on="1"/>
        <pt x="183" y="582" on="1"/>
        <pt x="619" y="582" on="1"/>
        <pt x="615" y="498" on="1"/>
      </contour>
    </TTGlyph>
    <TTGlyph name="five" xMin="38" yMin="-16" xMax="650" yMax="700">
      <contour>
        <pt x="38" y="55" on="1"/>
        <pt x="58" y="146" on="1"/>
        <pt x="59" y="146" on="1"/>
        <pt x="115" y="114" on="0"/>
        <pt x="240" y="73" on="0"/>
        <pt x="313" y="72" on="1"/>
        <pt x="410" y="71" on="0"/>
        <pt x="508" y="154" on="0"/>
        <pt x="508" y="212" on="1"/>
        <pt x="508" y="271" on="0"/>
        <pt x="394" y="335" on="0"/>
        <pt x="256" y="335" on="1"/>
        <pt x="118" y="335" on="1"/>
        <pt x="205" y="700" on="1"/>
        <pt x="650" y="700" on="1"/>
        <pt x="645" y="612" on="1"/>
        <pt x="278" y="612" on="1"/>
        <pt x="232" y="421" on="1"/>
        <pt x="282" y="421" on="1"/>
        <pt x="459" y="421" on="0"/>
        <pt x="609" y="311" on="0"/>
        <pt x="609" y="219" on="1"/>
        <pt x="609" y="169" on="0"/>
        <pt x="570" y="83" on="0"/>
        <pt x="495" y="20" on="0"/>
        <pt x="383" y="-16" on="0"/>
        <pt x="311" y="-16" on="1"/>
        <pt x="232" y="-16" on="0"/>
        <pt x="92" y="23" on="0"/>
      </contour>
    </TTGlyph>
    <TTGlyph name="five.den" xMin="7" yMin="-11" xMax="374" yMax="403">
      <component glyphName="five.small" x="-14" y="0" flags="0x4"/>
    </TTGlyph>
    <TTGlyph name="five.den_tab" xMin="-11" yMin="-11" xMax="356" yMax="403">
      <component glyphName="five.small" x="-32" y="0" flags="0x4"/>
    </TTGlyph>
    <TTGlyph name="five.inf" xMin="1" yMin="-201" xMax="368" yMax="213">
      <component glyphName="five.small" x="-20" y="-190" flags="0x4"/>
    </TTGlyph>
    <TTGlyph name="five.num" xMin="98" yMin="286" xMax="465" yMax="700">
      <component glyphName="five.small" x="77" y="297" flags="0x4"/>
    </TTGlyph>
    <TTGlyph name="five.num_tab" xMin="80" yMin="286" xMax="447" yMax="700">
      <component glyphName="five.small" x="59" y="297" flags="0x4"/>
    </TTGlyph>
    <TTGlyph name="five.osf" xMin="3" yMin="-135" xMax="577" yMax="582">
      <contour>
        <pt x="3" y="-77" on="1"/>
        <pt x="22" y="8" on="1"/>
        <pt x="23" y="8" on="1"/>
        <pt x="71" y="-17" on="0"/>
        <pt x="188" y="-51" on="0"/>
        <pt x="248" y="-51" on="1"/>
        <pt x="338" y="-51" on="0"/>
        <pt x="424" y="26" on="0"/>
        <pt x="424" y="86" on="1"/>
        <pt x="424" y="146" on="0"/>
        <pt x="304" y="215" on="0"/>
        <pt x="166" y="219" on="1"/>
        <pt x="90" y="220" on="1"/>
        <pt x="173" y="582" on="1"/>
        <pt x="577" y="582" on="1"/>
        <pt x="571" y="497" on="1"/>
        <pt x="245" y="497" on="1"/>
        <pt x="200" y="299" on="1"/>
        <pt x="224" y="298" on="1"/>
        <pt x="370" y="291" on="0"/>
        <pt x="522" y="189" on="0"/>
        <pt x="522" y="92" on="1"/>
        <pt x="522" y="43" on="0"/>
        <pt x="486" y="-40" on="0"/>
        <pt x="417" y="-101" on="0"/>
        <pt x="313" y="-135" on="0"/>
        <pt x="247" y="-135" on="1"/>
        <pt x="179" y="-135" on="0"/>
        <pt x="51" y="-101" on="0"/>
      </contour>
    </TTGlyph>
    <TTGlyph name="five.small" xMin="21" yMin="-11" xMax="388" yMax="403">
      <contour>
        <pt x="185" y="-11" on="1"/>
        <pt x="138" y="-11" on="0"/>
        <pt x="55" y="11" on="0"/>
        <pt x="21" y="29" on="1"/>
        <pt x="35" y="95" on="1"/>
        <pt x="36" y="95" on="1"/>
        <pt x="69" y="77" on="0"/>
        <pt x="145" y="56" on="0"/>
        <pt x="187" y="56" on="1"/>
        <pt x="238" y="55" on="0"/>
        <pt x="284" y="95" on="0"/>
        <pt x="284" y="123" on="1"/>
        <pt x="284" y="154" on="0"/>
        <pt x="215" y="183" on="0"/>
        <pt x="131" y="183" on="1"/>
        <pt x="65" y="183" on="1"/>
        <pt x="117" y="403" on="1"/>
        <pt x="388" y="403" on="1"/>
        <pt x="384" y="337" on="1"/>
        <pt x="173" y="337" on="1"/>
        <pt x="150" y="242" on="1"/>
        <pt x="166" y="242" on="1"/>
        <pt x="265" y="242" on="0"/>
        <pt x="363" y="184" on="0"/>
        <pt x="363" y="126" on="1"/>
        <pt x="363" y="67" on="0"/>
        <pt x="271" y="-11" on="0"/>
      </contour>
    </TTGlyph>
    <TTGlyph name="five.sup" xMin="116" yMin="341" xMax="483" yMax="755">
      <component glyphName="five.small" x="95" y="352" flags="0x4"/>
    </TTGlyph>
    <TTGlyph name="five.tab" xMin="56" yMin="-16" xMax="678" yMax="700">
      <contour>
        <pt x="335" y="-16" on="1"/>
        <pt x="254" y="-16" on="0"/>
        <pt x="110" y="23" on="0"/>
        <pt x="56" y="55" on="1"/>
        <pt x="76" y="146" on="1"/>
        <pt x="77" y="146" on="1"/>
        <pt x="133" y="114" on="0"/>
        <pt x="262" y="73" on="0"/>
        <pt x="336" y="72" on="1"/>
        <pt x="435" y="71" on="0"/>
        <pt x="533" y="154" on="0"/>
        <pt x="533" y="212" on="1"/>
        <pt x="533" y="271" on="0"/>
        <pt x="415" y="335" on="0"/>
        <pt x="275" y="335" on="1"/>
        <pt x="133" y="335" on="1"/>
        <pt x="220" y="700" on="1"/>
        <pt x="678" y="700" on="1"/>
        <pt x="673" y="612" on="1"/>
        <pt x="293" y="612" on="1"/>
        <pt x="247" y="421" on="1"/>
        <pt x="300" y="421" on="1"/>
        <pt x="479" y="421" on="0"/>
        <pt x="635" y="311" on="0"/>
        <pt x="635" y="219" on="1"/>
        <pt x="635" y="169" on="0"/>
        <pt x="596" y="83" on="0"/>
        <pt x="520" y="20" on="0"/>
        <pt x="408" y="-16" on="0"/>
      </contour>
    </TTGlyph>
    <TTGlyph name="fiveeighths" xMin="98" yMin="-12" xMax="1052" yMax="700">
      <component glyphName="five.num" x="0" y="0" flags="0x4"/>
      <component glyphName="fraction" x="438" y="0" flags="0x4"/>
      <component glyphName="eight.den" x="672" y="0" flags="0x4"/>
    </TTGlyph>
    <TTGlyph name="fiveeighths.tab" xMin="80" yMin="-12" xMax="1014" yMax="700">
      <component glyphName="five.num_tab" x="0" y="0" flags="0x4"/>
      <component glyphName="fraction.tab" x="441" y="0" flags="0x4"/>
      <component glyphName="eight.den_tab" x="652" y="0" flags="0x4"/>
    </TTGlyph>
    <TTGlyph name="four" xMin="24" yMin="0" xMax="696" yMax="700">
      <contour>
        <pt x="414" y="0" on="1"/>
        <pt x="451" y="171" on="1"/>
        <pt x="24" y="171" on="1"/>
        <pt x="48" y="249" on="1"/>
        <pt x="397" y="700" on="1"/>
        <pt x="658" y="700" on="1"/>
        <pt x="563" y="256" on="1"/>
        <pt x="696" y="256" on="1"/>
        <pt x="670" y="171" on="1"/>
        <pt x="545" y="171" on="1"/>
        <pt x="509" y="0" on="1"/>
      </contour>
      <contour>
        <pt x="169" y="256" on="1"/>
        <pt x="468" y="256" on="1"/>
        <pt x="544" y="612" on="1"/>
        <pt x="442" y="612" on="1"/>
      </contour>
    </TTGlyph>
    <TTGlyph name="four.den" xMin="-18" yMin="0" xMax="380" yMax="403">
      <component glyphName="four.small" x="-14" y="0" flags="0x4"/>
    </TTGlyph>
    <TTGlyph name="four.den_tab" xMin="-36" yMin="0" xMax="362" yMax="403">
      <component glyphName="four.small" x="-32" y="0" flags="0x4"/>
    </TTGlyph>
    <TTGlyph name="four.inf" xMin="-24" yMin="-190" xMax="374" yMax="213">
      <component glyphName="four.small" x="-20" y="-190" flags="0x4"/>
    </TTGlyph>
    <TTGlyph name="four.num" xMin="73" yMin="297" xMax="471" yMax="700">
      <component glyphName="four.small" x="77" y="297" flags="0x4"/>
    </TTGlyph>
    <TTGlyph name="four.num_tab" xMin="55" yMin="297" xMax="453" yMax="700">
      <component glyphName="four.small" x="59" y="297" flags="0x4"/>
    </TTGlyph>
    <TTGlyph name="four.osf" xMin="9" yMin="-123" xMax="636" yMax="582">
      <contour>
        <pt x="364" y="-123" on="1"/>
        <pt x="400" y="51" on="1"/>
        <pt x="9" y="51" on="1"/>
        <pt x="26" y="129" on="1"/>
        <pt x="352" y="582" on="1"/>
        <pt x="607" y="582" on="1"/>
        <pt x="511" y="133" on="1"/>
        <pt x="636" y="133" on="1"/>
        <pt x="611" y="51" on="1"/>
        <pt x="494" y="51" on="1"/>
        <pt x="457" y="-123" on="1"/>
      </contour>
      <contour>
        <pt x="136" y="133" on="1"/>
        <pt x="419" y="133" on="1"/>
        <pt x="495" y="494" on="1"/>
        <pt x="394" y="494" on="1"/>
      </contour>
    </TTGlyph>
    <TTGlyph name="four.small" xMin="-4" yMin="0" xMax="394" yMax="403">
      <contour>
        <pt x="215" y="0" on="1"/>
        <pt x="234" y="88" on="1"/>
        <pt x="-4" y="88" on="1"/>
        <pt x="8" y="147" on="1"/>
        <pt x="186" y="403" on="1"/>
        <pt x="376" y="403" on="1"/>
        <pt x="322" y="153" on="1"/>
        <pt x="394" y="153" on="1"/>
        <pt x="375" y="88" on="1"/>
        <pt x="309" y="88" on="1"/>
        <pt x="290" y="0" on="1"/>
      </contour>
      <contour>
        <pt x="93" y="151" on="1"/>
        <pt x="249" y="151" on="1"/>
        <pt x="289" y="339" on="1"/>
        <pt x="224" y="339" on="1"/>
      </contour>
    </TTGlyph>
    <TTGlyph name="four.sup" xMin="91" yMin="352" xMax="489" yMax="755">
      <component glyphName="four.small" x="95" y="352" flags="0x4"/>
    </TTGlyph>
    <TTGlyph name="four.tab" xMin="29" yMin="0" xMax="687" yMax="700">
      <contour>
        <pt x="415" y="0" on="1"/>
        <pt x="450" y="162" on="1"/>
        <pt x="29" y="162" on="1"/>
        <pt x="46" y="240" on="1"/>
        <pt x="382" y="700" on="1"/>
        <pt x="660" y="700" on="1"/>
        <pt x="564" y="247" on="1"/>
        <pt x="687" y="247" on="1"/>
        <pt x="664" y="162" on="1"/>
        <pt x="545" y="162" on="1"/>
        <pt x="511" y="0" on="1"/>
      </contour>
      <contour>
        <pt x="162" y="247" on="1"/>
        <pt x="467" y="247" on="1"/>
        <pt x="546" y="612" on="1"/>
        <pt x="430" y="612" on="1"/>
      </contour>
    </TTGlyph>
    <TTGlyph name="fraction" xMin="-229" yMin="0" xMax="501" yMax="700">
      <contour>
        <pt x="-229" y="1" on="1"/>
        <pt x="410" y="700" on="1"/>
        <pt x="501" y="700" on="1"/>
        <pt x="501" y="699" on="1"/>
        <pt x="-138" y="0" on="1"/>
        <pt x="-228" y="0" on="1"/>
      </contour>
    </TTGlyph>
    <TTGlyph name="fraction.tab" xMin="-255" yMin="0" xMax="475" yMax="700">
      <contour>
        <pt x="-255" y="1" on="1"/>
        <pt x="384" y="700" on="1"/>
        <pt x="475" y="700" on="1"/>
        <pt x="475" y="699" on="1"/>
        <pt x="-164" y="0" on="1"/>
        <pt x="-254" y="0" on="1"/>
      </contour>
    </TTGlyph>
    <TTGlyph name="g" xMin="-22" yMin="-205" xMax="626" yMax="631">
      <contour>
        <pt x="249" y="-205" on="1"/>
        <pt x="127" y="-205" on="0"/>
        <pt x="-22" y="-134" on="0"/>
        <pt x="-22" y="-68" on="1"/>
        <pt x="-22" y="-26" on="0"/>
        <pt x="47" y="41" on="0"/>
        <pt x="110" y="64" on="1"/>
        <pt x="167" y="207" on="1"/>
        <pt x="128" y="230" on="0"/>
        <pt x="87" y="302" on="0"/>
        <pt x="87" y="345" on="1"/>
        <pt x="87" y="385" on="0"/>
        <pt x="118" y="458" on="0"/>
        <pt x="179" y="514" on="0"/>
        <pt x="269" y="547" on="0"/>
        <pt x="327" y="547" on="1"/>
        <pt x="356" y="547" on="0"/>
        <pt x="406" y="538" on="0"/>
        <pt x="428" y="530" on="1"/>
        <pt x="509" y="631" on="1"/>
        <pt x="626" y="631" on="1"/>
        <pt x="626" y="630" on="1"/>
        <pt x="489" y="495" on="1"/>
        <pt x="517" y="473" on="0"/>
        <pt x="545" y="410" on="0"/>
        <pt x="545" y="373" on="1"/>
        <pt x="545" y="335" on="0"/>
        <pt x="514" y="262" on="0"/>
        <pt x="453" y="207" on="0"/>
        <pt x="363" y="174" on="0"/>
        <pt x="305" y="174" on="1"/>
        <pt x="285" y="174" on="0"/>
        <pt x="248" y="178" on="0"/>
        <pt x="231" y="182" on="1"/>
        <pt x="200" y="97" on="1"/>
        <pt x="367" y="82" on="0"/>
        <pt x="519" y="6" on="0"/>
        <pt x="519" y="-54" on="1"/>
        <pt x="519" y="-83" on="0"/>
        <pt x="487" y="-138" on="0"/>
        <pt x="421" y="-180" on="0"/>
        <pt x="319" y="-205" on="0"/>
      </contour>
      <contour>
        <pt x="310" y="245" on="1"/>
        <pt x="379" y="245" on="0"/>
        <pt x="454" y="319" on="0"/>
        <pt x="454" y="370" on="1"/>
        <pt x="454" y="420" on="0"/>
        <pt x="383" y="476" on="0"/>
        <pt x="325" y="476" on="1"/>
        <pt x="256" y="476" on="0"/>
        <pt x="182" y="402" on="0"/>
        <pt x="182" y="351" on="1"/>
        <pt x="182" y="301" on="0"/>
        <pt x="252" y="245" on="0"/>
      </contour>
      <contour>
        <pt x="266" y="-135" on="1"/>
        <pt x="343" y="-134" on="0"/>
        <pt x="429" y="-92" on="0"/>
        <pt x="429" y="-62" on="1"/>
        <pt x="429" y="-28" on="0"/>
        <pt x="280" y="18" on="0"/>
        <pt x="143" y="27" on="1"/>
        <pt x="106" y="12" on="0"/>
        <pt x="64" y="-29" on="0"/>
        <pt x="64" y="-51" on="1"/>
        <pt x="64" y="-73" on="0"/>
        <pt x="97" y="-105" on="0"/>
        <pt x="153" y="-125" on="0"/>
        <pt x="226" y="-135" on="0"/>
      </contour>
    </TTGlyph>
    <TTGlyph name="g.sc" xMin="74" yMin="-16" xMax="687" yMax="595">
      <contour>
        <pt x="422" y="508" on="1"/>
        <pt x="364" y="508" on="0"/>
        <pt x="272" y="469" on="0"/>
        <pt x="208" y="403" on="0"/>
        <pt x="174" y="312" on="0"/>
        <pt x="174" y="261" on="1"/>
        <pt x="174" y="172" on="0"/>
        <pt x="278" y="71" on="0"/>
        <pt x="371" y="71" on="1"/>
        <pt x="453" y="71" on="0"/>
        <pt x="567" y="159" on="0"/>
        <pt x="582" y="242" on="1"/>
        <pt x="358" y="242" on="1"/>
        <pt x="375" y="321" on="1"/>
        <pt x="687" y="321" on="1"/>
        <pt x="682" y="240" on="0"/>
        <pt x="634" y="114" on="0"/>
        <pt x="589" y="70" on="1"/>
        <pt x="548" y="29" on="0"/>
        <pt x="432" y="-16" on="0"/>
        <pt x="365" y="-16" on="1"/>
        <pt x="233" y="-16" on="0"/>
        <pt x="74" y="129" on="0"/>
        <pt x="74" y="253" on="1"/>
        <pt x="74" y="321" on="0"/>
        <pt x="121" y="445" on="0"/>
        <pt x="210" y="539" on="0"/>
        <pt x="340" y="595" on="0"/>
        <pt x="422" y="595" on="1"/>
        <pt x="496" y="595" on="0"/>
        <pt x="618" y="548" on="0"/>
        <pt x="658" y="513" on="1"/>
        <pt x="638" y="421" on="1"/>
        <pt x="637" y="421" on="1"/>
        <pt x="596" y="459" on="0"/>
        <pt x="485" y="508" on="0"/>
      </contour>
    </TTGlyph>
    <TTGlyph name="gbreve" xMin="-22" yMin="-205" xMax="626" yMax="823">
      <component glyphName="g" x="0" y="0" flags="0x204"/>
      <component glyphName="breve" x="26" y="17" flags="0x4"/>
    </TTGlyph>
    <TTGlyph name="gbreve.sc" xMin="74" yMin="-16" xMax="687" yMax="868">
      <component glyphName="g.sc" x="0" y="0" flags="0x204"/>
      <component glyphName="breve" x="120" y="62" flags="0x4"/>
    </TTGlyph>
</ttFont>
